<svg width="572" height="446" viewBox="0 0 572 446" fill="none" xmlns="http://www.w3.org/2000/svg">
<rect x="0.5" y="0.5" width="571" height="445" rx="7.5" fill="#F6F7F8"/>
<path d="M41.9688 55.9961L49.5469 62.0117L46.1094 65L38.6484 59.0234L41.9688 55.9961ZM49.6836 45.0586V46.5234C49.6836 48.6719 49.3971 50.6055 48.8242 52.3242C48.2513 54.0299 47.431 55.4818 46.3633 56.6797C45.3086 57.8776 44.0521 58.7956 42.5938 59.4336C41.1354 60.0716 39.5208 60.3906 37.75 60.3906C35.9922 60.3906 34.3776 60.0716 32.9062 59.4336C31.4479 58.7956 30.1849 57.8776 29.1172 56.6797C28.0495 55.4818 27.2227 54.0299 26.6367 52.3242C26.0508 50.6055 25.7578 48.6719 25.7578 46.5234V45.0586C25.7578 42.8971 26.0443 40.9635 26.6172 39.2578C27.2031 37.5521 28.0234 36.1003 29.0781 34.9023C30.1458 33.6914 31.4089 32.7669 32.8672 32.1289C34.3385 31.4909 35.9531 31.1719 37.7109 31.1719C39.4818 31.1719 41.0964 31.4909 42.5547 32.1289C44.026 32.7669 45.2891 33.6914 46.3438 34.9023C47.4115 36.1003 48.2318 37.5521 48.8047 39.2578C49.3906 40.9635 49.6836 42.8971 49.6836 45.0586ZM44.2539 46.5234V45.0195C44.2539 43.4701 44.1107 42.1094 43.8242 40.9375C43.5378 39.7526 43.1081 38.7565 42.5352 37.9492C41.9753 37.1419 41.2917 36.5365 40.4844 36.1328C39.6771 35.7161 38.7526 35.5078 37.7109 35.5078C36.6823 35.5078 35.7643 35.7161 34.957 36.1328C34.1497 36.5365 33.4661 37.1419 32.9062 37.9492C32.3464 38.7565 31.9167 39.7526 31.6172 40.9375C31.3307 42.1094 31.1875 43.4701 31.1875 45.0195V46.5234C31.1875 48.0599 31.3307 49.4206 31.6172 50.6055C31.9167 51.7904 32.3464 52.793 32.9062 53.6133C33.4792 54.4206 34.1693 55.0326 34.9766 55.4492C35.7969 55.8659 36.7214 56.0742 37.75 56.0742C38.7917 56.0742 39.7161 55.8659 40.5234 55.4492C41.3307 55.0326 42.0078 54.4206 42.5547 53.6133C43.1146 52.793 43.5378 51.7904 43.8242 50.6055C44.1107 49.4206 44.2539 48.0599 44.2539 46.5234ZM66.4805 54.9805V38.8672H71.6758V60H66.793L66.4805 54.9805ZM67.1445 50.6055L68.7461 50.5664C68.7461 51.9857 68.5898 53.2943 68.2773 54.4922C67.9648 55.6901 67.4766 56.7318 66.8125 57.6172C66.1615 58.4896 65.3346 59.1732 64.332 59.668C63.3294 60.1497 62.1445 60.3906 60.7773 60.3906C59.7357 60.3906 58.7852 60.2474 57.9258 59.9609C57.0664 59.6615 56.3242 59.1992 55.6992 58.5742C55.0872 57.9362 54.612 57.1224 54.2734 56.1328C53.9349 55.1302 53.7656 53.9258 53.7656 52.5195V38.8672H58.9219V52.5586C58.9219 53.2617 59 53.8477 59.1562 54.3164C59.3255 54.7852 59.5534 55.1693 59.8398 55.4688C60.1393 55.7552 60.4844 55.9635 60.875 56.0938C61.2786 56.2109 61.7083 56.2695 62.1641 56.2695C63.4141 56.2695 64.3971 56.0221 65.1133 55.5273C65.8424 55.0195 66.3633 54.3424 66.6758 53.4961C66.9883 52.6367 67.1445 51.6732 67.1445 50.6055ZM81.7148 38.8672V60H76.5391V38.8672H81.7148ZM76.1875 33.3398C76.1875 32.5716 76.4479 31.9336 76.9688 31.4258C77.5026 30.918 78.2188 30.6641 79.1172 30.6641C80.0156 30.6641 80.7253 30.918 81.2461 31.4258C81.7799 31.9336 82.0469 32.5716 82.0469 33.3398C82.0469 34.0951 81.7799 34.7266 81.2461 35.2344C80.7253 35.7422 80.0156 35.9961 79.1172 35.9961C78.2188 35.9961 77.5026 35.7422 76.9688 35.2344C76.4479 34.7266 76.1875 34.0951 76.1875 33.3398ZM91.6953 43.3789V60H86.5391V38.8672H91.3828L91.6953 43.3789ZM90.875 48.6719H89.3516C89.3646 47.1354 89.5729 45.7422 89.9766 44.4922C90.3802 43.2422 90.9466 42.168 91.6758 41.2695C92.418 40.3711 93.2969 39.681 94.3125 39.1992C95.3281 38.7174 96.4609 38.4766 97.7109 38.4766C98.7266 38.4766 99.6445 38.6198 100.465 38.9062C101.285 39.1927 101.988 39.6484 102.574 40.2734C103.173 40.8984 103.629 41.7188 103.941 42.7344C104.267 43.737 104.43 44.974 104.43 46.4453V60H99.2344V46.4062C99.2344 45.4427 99.0911 44.681 98.8047 44.1211C98.5312 43.5612 98.1276 43.1641 97.5938 42.9297C97.0729 42.6953 96.4284 42.5781 95.6602 42.5781C94.8659 42.5781 94.1693 42.7409 93.5703 43.0664C92.9844 43.3789 92.4896 43.8151 92.0859 44.375C91.6953 44.9349 91.3958 45.5794 91.1875 46.3086C90.9792 47.0378 90.875 47.8255 90.875 48.6719ZM118.98 38.8672V42.5781H106.871V38.8672H118.98ZM110.113 33.6719H115.289V53.9062C115.289 54.5312 115.374 55.013 115.543 55.3516C115.712 55.6901 115.966 55.918 116.305 56.0352C116.643 56.1523 117.047 56.2109 117.516 56.2109C117.854 56.2109 118.167 56.1914 118.453 56.1523C118.74 56.1133 118.98 56.0742 119.176 56.0352L119.195 59.9023C118.766 60.0456 118.277 60.1628 117.73 60.2539C117.197 60.3451 116.591 60.3906 115.914 60.3906C114.755 60.3906 113.74 60.1953 112.867 59.8047C111.995 59.401 111.318 58.7565 110.836 57.8711C110.354 56.9727 110.113 55.7878 110.113 54.3164V33.6719ZM134.059 55.5078V45.7617C134.059 45.0456 133.935 44.4271 133.688 43.9062C133.44 43.3854 133.062 42.9818 132.555 42.6953C132.047 42.4089 131.402 42.2656 130.621 42.2656C129.931 42.2656 129.326 42.3828 128.805 42.6172C128.297 42.8516 127.906 43.1836 127.633 43.6133C127.359 44.0299 127.223 44.5117 127.223 45.0586H122.047C122.047 44.1862 122.255 43.3594 122.672 42.5781C123.089 41.7839 123.681 41.0807 124.449 40.4688C125.23 39.8438 126.161 39.3555 127.242 39.0039C128.336 38.6523 129.56 38.4766 130.914 38.4766C132.516 38.4766 133.941 38.75 135.191 39.2969C136.454 39.8307 137.444 40.638 138.16 41.7188C138.889 42.7995 139.254 44.1602 139.254 45.8008V55.0195C139.254 56.0742 139.319 56.9792 139.449 57.7344C139.592 58.4766 139.801 59.1211 140.074 59.668V60H134.82C134.573 59.4661 134.384 58.7891 134.254 57.9688C134.124 57.1354 134.059 56.3151 134.059 55.5078ZM134.781 47.1289L134.82 50.1953H131.559C130.751 50.1953 130.042 50.2799 129.43 50.4492C128.818 50.6055 128.316 50.8398 127.926 51.1523C127.535 51.4518 127.242 51.8164 127.047 52.2461C126.852 52.6628 126.754 53.138 126.754 53.6719C126.754 54.1927 126.871 54.6615 127.105 55.0781C127.353 55.4948 127.704 55.8268 128.16 56.0742C128.629 56.3086 129.176 56.4258 129.801 56.4258C130.712 56.4258 131.507 56.2435 132.184 55.8789C132.861 55.5013 133.388 55.0456 133.766 54.5117C134.143 53.9779 134.345 53.4701 134.371 52.9883L135.855 55.2148C135.673 55.7487 135.4 56.3151 135.035 56.9141C134.671 57.513 134.202 58.0729 133.629 58.5938C133.056 59.1146 132.366 59.5443 131.559 59.8828C130.751 60.2214 129.814 60.3906 128.746 60.3906C127.379 60.3906 126.155 60.1172 125.074 59.5703C123.993 59.0234 123.141 58.2747 122.516 57.3242C121.891 56.3737 121.578 55.293 121.578 54.082C121.578 52.9622 121.786 51.9727 122.203 51.1133C122.62 50.2539 123.238 49.5312 124.059 48.9453C124.879 48.3464 125.895 47.8971 127.105 47.5977C128.329 47.2852 129.729 47.1289 131.305 47.1289H134.781ZM154.176 45.7812V49.8633H143.492V45.7812H154.176ZM165.348 60H160.152V36.9141C160.152 35.3255 160.458 33.9909 161.07 32.9102C161.682 31.8164 162.555 30.9896 163.688 30.4297C164.82 29.8698 166.155 29.5898 167.691 29.5898C168.199 29.5898 168.681 29.6224 169.137 29.6875C169.605 29.7526 170.068 29.8438 170.523 29.9609L170.426 33.8867C170.178 33.8216 169.905 33.776 169.605 33.75C169.319 33.724 169 33.7109 168.648 33.7109C167.945 33.7109 167.346 33.8346 166.852 34.082C166.357 34.3294 165.979 34.694 165.719 35.1758C165.471 35.6445 165.348 36.224 165.348 36.9141V60ZM169.625 38.8672V42.5781H156.969V38.8672H169.625ZM181.832 60.3906C180.23 60.3906 178.792 60.1302 177.516 59.6094C176.24 59.0885 175.152 58.3659 174.254 57.4414C173.368 56.5039 172.685 55.4167 172.203 54.1797C171.734 52.9297 171.5 51.5885 171.5 50.1562V49.375C171.5 47.7474 171.734 46.2695 172.203 44.9414C172.672 43.6003 173.336 42.4479 174.195 41.4844C175.055 40.5208 176.083 39.7786 177.281 39.2578C178.479 38.737 179.801 38.4766 181.246 38.4766C182.743 38.4766 184.065 38.7305 185.211 39.2383C186.357 39.7331 187.314 40.4362 188.082 41.3477C188.85 42.2591 189.43 43.3529 189.82 44.6289C190.211 45.8919 190.406 47.2917 190.406 48.8281V50.9961H173.844V47.4414H185.328V47.0508C185.302 46.2305 185.146 45.4818 184.859 44.8047C184.573 44.1146 184.13 43.5677 183.531 43.1641C182.932 42.7474 182.158 42.5391 181.207 42.5391C180.439 42.5391 179.768 42.7083 179.195 43.0469C178.635 43.3724 178.167 43.8411 177.789 44.4531C177.424 45.0521 177.151 45.7682 176.969 46.6016C176.786 47.4349 176.695 48.3594 176.695 49.375V50.1562C176.695 51.0417 176.812 51.862 177.047 52.6172C177.294 53.3724 177.652 54.0299 178.121 54.5898C178.603 55.1367 179.176 55.5664 179.84 55.8789C180.517 56.1784 181.285 56.3281 182.145 56.3281C183.225 56.3281 184.202 56.1198 185.074 55.7031C185.96 55.2734 186.728 54.6419 187.379 53.8086L189.977 56.5039C189.534 57.1549 188.935 57.7799 188.18 58.3789C187.438 58.9779 186.539 59.4661 185.484 59.8438C184.43 60.2083 183.212 60.3906 181.832 60.3906ZM199.332 38.8672V60H194.156V38.8672H199.332ZM193.805 33.3398C193.805 32.5716 194.065 31.9336 194.586 31.4258C195.12 30.918 195.836 30.6641 196.734 30.6641C197.633 30.6641 198.342 30.918 198.863 31.4258C199.397 31.9336 199.664 32.5716 199.664 33.3398C199.664 34.0951 199.397 34.7266 198.863 35.2344C198.342 35.7422 197.633 35.9961 196.734 35.9961C195.836 35.9961 195.12 35.7422 194.586 35.2344C194.065 34.7266 193.805 34.0951 193.805 33.3398ZM209.41 43.1836V60H204.254V38.8672H209.137L209.41 43.1836ZM215.836 38.7305L215.758 43.5352C215.471 43.4831 215.146 43.444 214.781 43.418C214.43 43.3919 214.098 43.3789 213.785 43.3789C212.991 43.3789 212.294 43.4896 211.695 43.7109C211.096 43.9193 210.595 44.2253 210.191 44.6289C209.801 45.0326 209.501 45.5273 209.293 46.1133C209.085 46.6862 208.967 47.3372 208.941 48.0664L207.828 47.9297C207.828 46.5885 207.965 45.3451 208.238 44.1992C208.512 43.0534 208.909 42.0508 209.43 41.1914C209.951 40.332 210.602 39.668 211.383 39.1992C212.177 38.7174 213.089 38.4766 214.117 38.4766C214.404 38.4766 214.71 38.5026 215.035 38.5547C215.374 38.5938 215.641 38.6523 215.836 38.7305ZM229.645 55.5078V45.7617C229.645 45.0456 229.521 44.4271 229.273 43.9062C229.026 43.3854 228.648 42.9818 228.141 42.6953C227.633 42.4089 226.988 42.2656 226.207 42.2656C225.517 42.2656 224.911 42.3828 224.391 42.6172C223.883 42.8516 223.492 43.1836 223.219 43.6133C222.945 44.0299 222.809 44.5117 222.809 45.0586H217.633C217.633 44.1862 217.841 43.3594 218.258 42.5781C218.674 41.7839 219.267 41.0807 220.035 40.4688C220.816 39.8438 221.747 39.3555 222.828 39.0039C223.922 38.6523 225.146 38.4766 226.5 38.4766C228.102 38.4766 229.527 38.75 230.777 39.2969C232.04 39.8307 233.03 40.638 233.746 41.7188C234.475 42.7995 234.84 44.1602 234.84 45.8008V55.0195C234.84 56.0742 234.905 56.9792 235.035 57.7344C235.178 58.4766 235.387 59.1211 235.66 59.668V60H230.406C230.159 59.4661 229.97 58.7891 229.84 57.9688C229.71 57.1354 229.645 56.3151 229.645 55.5078ZM230.367 47.1289L230.406 50.1953H227.145C226.337 50.1953 225.628 50.2799 225.016 50.4492C224.404 50.6055 223.902 50.8398 223.512 51.1523C223.121 51.4518 222.828 51.8164 222.633 52.2461C222.438 52.6628 222.34 53.138 222.34 53.6719C222.34 54.1927 222.457 54.6615 222.691 55.0781C222.939 55.4948 223.29 55.8268 223.746 56.0742C224.215 56.3086 224.762 56.4258 225.387 56.4258C226.298 56.4258 227.092 56.2435 227.77 55.8789C228.447 55.5013 228.974 55.0456 229.352 54.5117C229.729 53.9779 229.931 53.4701 229.957 52.9883L231.441 55.2148C231.259 55.7487 230.986 56.3151 230.621 56.9141C230.257 57.513 229.788 58.0729 229.215 58.5938C228.642 59.1146 227.952 59.5443 227.145 59.8828C226.337 60.2214 225.4 60.3906 224.332 60.3906C222.965 60.3906 221.741 60.1172 220.66 59.5703C219.579 59.0234 218.727 58.2747 218.102 57.3242C217.477 56.3737 217.164 55.293 217.164 54.082C217.164 52.9622 217.372 51.9727 217.789 51.1133C218.206 50.2539 218.824 49.5312 219.645 48.9453C220.465 48.3464 221.48 47.8971 222.691 47.5977C223.915 47.2852 225.315 47.1289 226.891 47.1289H230.367ZM244.352 55.3516L244.312 58.9258C244.312 60.319 243.967 61.7318 243.277 63.1641C242.587 64.5964 241.695 65.7812 240.602 66.7188L237.867 65.2148C238.219 64.6289 238.544 64.0365 238.844 63.4375C239.156 62.8385 239.404 62.1875 239.586 61.4844C239.781 60.7943 239.879 60.0195 239.879 59.1602V55.3516H244.352ZM271.871 31.4844V60H266.695V37.5195L259.84 39.7852V35.6055L271.285 31.4844H271.871ZM300.543 31.5625V34.375L289.371 60H283.922L295.094 35.625H280.641V31.5625H300.543ZM314.781 38.8672H319.977V61.5625C319.977 63.0599 319.703 64.3294 319.156 65.3711C318.622 66.4128 317.848 67.2005 316.832 67.7344C315.816 68.2682 314.573 68.5352 313.102 68.5352C312.646 68.5352 312.19 68.5091 311.734 68.457C311.279 68.4049 310.829 68.3203 310.387 68.2031L310.406 64.2188C310.693 64.2708 310.986 64.3099 311.285 64.3359C311.585 64.375 311.884 64.3945 312.184 64.3945C312.743 64.3945 313.212 64.2969 313.59 64.1016C313.98 63.9062 314.273 63.6003 314.469 63.1836C314.677 62.7669 314.781 62.2266 314.781 61.5625V38.8672ZM314.352 33.3398C314.352 32.5716 314.612 31.9336 315.133 31.4258C315.667 30.918 316.383 30.6641 317.281 30.6641C318.18 30.6641 318.889 30.918 319.41 31.4258C319.944 31.9336 320.211 32.5716 320.211 33.3398C320.211 34.0951 319.944 34.7266 319.41 35.2344C318.889 35.7422 318.18 35.9961 317.281 35.9961C316.383 35.9961 315.667 35.7422 315.133 35.2344C314.612 34.7266 314.352 34.0951 314.352 33.3398ZM337.34 54.9805V38.8672H342.535V60H337.652L337.34 54.9805ZM338.004 50.6055L339.605 50.5664C339.605 51.9857 339.449 53.2943 339.137 54.4922C338.824 55.6901 338.336 56.7318 337.672 57.6172C337.021 58.4896 336.194 59.1732 335.191 59.668C334.189 60.1497 333.004 60.3906 331.637 60.3906C330.595 60.3906 329.645 60.2474 328.785 59.9609C327.926 59.6615 327.184 59.1992 326.559 58.5742C325.947 57.9362 325.471 57.1224 325.133 56.1328C324.794 55.1302 324.625 53.9258 324.625 52.5195V38.8672H329.781V52.5586C329.781 53.2617 329.859 53.8477 330.016 54.3164C330.185 54.7852 330.413 55.1693 330.699 55.4688C330.999 55.7552 331.344 55.9635 331.734 56.0938C332.138 56.2109 332.568 56.2695 333.023 56.2695C334.273 56.2695 335.257 56.0221 335.973 55.5273C336.702 55.0195 337.223 54.3424 337.535 53.4961C337.848 52.6367 338.004 51.6732 338.004 50.6055ZM352.574 30V60H347.398V30H352.574ZM362.555 30V60H357.379V30H362.555ZM361.734 48.6719H360.211C360.211 47.2005 360.406 45.8464 360.797 44.6094C361.188 43.3724 361.741 42.2982 362.457 41.3867C363.173 40.4622 364.026 39.7461 365.016 39.2383C366.018 38.7305 367.125 38.4766 368.336 38.4766C369.378 38.4766 370.322 38.6263 371.168 38.9258C372.027 39.2122 372.763 39.6745 373.375 40.3125C373.987 40.9505 374.456 41.7839 374.781 42.8125C375.12 43.8281 375.289 45.0651 375.289 46.5234V60H370.094V46.4844C370.094 45.5078 369.951 44.7396 369.664 44.1797C369.378 43.6068 368.967 43.1966 368.434 42.9492C367.913 42.7018 367.268 42.5781 366.5 42.5781C365.667 42.5781 364.951 42.7409 364.352 43.0664C363.753 43.3789 363.258 43.8151 362.867 44.375C362.49 44.9349 362.203 45.5794 362.008 46.3086C361.826 47.0378 361.734 47.8255 361.734 48.6719ZM378.922 49.6484V49.2383C378.922 47.6888 379.143 46.263 379.586 44.9609C380.029 43.6458 380.673 42.5065 381.52 41.543C382.366 40.5794 383.401 39.8307 384.625 39.2969C385.849 38.75 387.242 38.4766 388.805 38.4766C390.393 38.4766 391.799 38.75 393.023 39.2969C394.26 39.8307 395.302 40.5794 396.148 41.543C396.995 42.5065 397.639 43.6458 398.082 44.9609C398.525 46.263 398.746 47.6888 398.746 49.2383V49.6484C398.746 51.1849 398.525 52.6107 398.082 53.9258C397.639 55.2279 396.995 56.3672 396.148 57.3438C395.302 58.3073 394.267 59.056 393.043 59.5898C391.819 60.1237 390.419 60.3906 388.844 60.3906C387.281 60.3906 385.882 60.1237 384.645 59.5898C383.408 59.056 382.366 58.3073 381.52 57.3438C380.673 56.3672 380.029 55.2279 379.586 53.9258C379.143 52.6107 378.922 51.1849 378.922 49.6484ZM384.078 49.2383V49.6484C384.078 50.5729 384.169 51.4388 384.352 52.2461C384.534 53.0534 384.814 53.763 385.191 54.375C385.569 54.987 386.057 55.4688 386.656 55.8203C387.268 56.1589 387.997 56.3281 388.844 56.3281C389.677 56.3281 390.393 56.1589 390.992 55.8203C391.591 55.4688 392.079 54.987 392.457 54.375C392.848 53.763 393.134 53.0534 393.316 52.2461C393.499 51.4388 393.59 50.5729 393.59 49.6484V49.2383C393.59 48.3268 393.499 47.474 393.316 46.6797C393.134 45.8724 392.848 45.1628 392.457 44.5508C392.079 43.9258 391.585 43.4375 390.973 43.0859C390.374 42.7214 389.651 42.5391 388.805 42.5391C387.971 42.5391 387.255 42.7214 386.656 43.0859C386.057 43.4375 385.569 43.9258 385.191 44.5508C384.814 45.1628 384.534 45.8724 384.352 46.6797C384.169 47.474 384.078 48.3268 384.078 49.2383Z" fill="#5C59BB"/>
<path d="M572 83H0V85H572V83Z" fill="#5C59BB" mask="url(#path-2-inside-1_942_2897)"/>
<path d="M40.7695 116.762V104.938H44.2734V116.762C44.2734 117.902 44.0234 118.883 43.5234 119.703C43.0234 120.516 42.3398 121.141 41.4727 121.578C40.6133 122.016 39.6445 122.234 38.5664 122.234C37.4492 122.234 36.4609 122.047 35.6016 121.672C34.7422 121.297 34.0664 120.723 33.5742 119.949C33.082 119.168 32.8359 118.18 32.8359 116.984H36.3633C36.3633 117.609 36.4492 118.105 36.6211 118.473C36.8008 118.84 37.0547 119.102 37.3828 119.258C37.7109 119.414 38.1055 119.492 38.5664 119.492C39.0117 119.492 39.3984 119.387 39.7266 119.176C40.0547 118.965 40.3086 118.656 40.4883 118.25C40.6758 117.844 40.7695 117.348 40.7695 116.762ZM54.5625 118.965V109.32H57.9375V122H54.7617L54.5625 118.965ZM54.9375 116.363L55.9336 116.34C55.9336 117.184 55.8359 117.969 55.6406 118.695C55.4453 119.414 55.1523 120.039 54.7617 120.57C54.3711 121.094 53.8789 121.504 53.2852 121.801C52.6914 122.09 51.9922 122.234 51.1875 122.234C50.5703 122.234 50 122.148 49.4766 121.977C48.9609 121.797 48.5156 121.52 48.1406 121.145C47.7734 120.762 47.4844 120.273 47.2734 119.68C47.0703 119.078 46.9688 118.355 46.9688 117.512V109.32H50.3438V117.535C50.3438 117.91 50.3867 118.227 50.4727 118.484C50.5664 118.742 50.6953 118.953 50.8594 119.117C51.0234 119.281 51.2148 119.398 51.4336 119.469C51.6602 119.539 51.9102 119.574 52.1836 119.574C52.8789 119.574 53.4258 119.434 53.8242 119.152C54.2305 118.871 54.5156 118.488 54.6797 118.004C54.8516 117.512 54.9375 116.965 54.9375 116.363ZM64.0781 104V122H60.6914V104H64.0781ZM70.1602 104V122H66.7852V104H70.1602ZM69.6797 115.215H68.7539C68.7617 114.332 68.8789 113.52 69.1055 112.777C69.332 112.027 69.6562 111.379 70.0781 110.832C70.5 110.277 71.0039 109.848 71.5898 109.543C72.1836 109.238 72.8398 109.086 73.5586 109.086C74.1836 109.086 74.75 109.176 75.2578 109.355C75.7734 109.527 76.2148 109.809 76.582 110.199C76.957 110.582 77.2461 111.086 77.4492 111.711C77.6523 112.336 77.7539 113.094 77.7539 113.984V122H74.3555V113.961C74.3555 113.398 74.2734 112.957 74.1094 112.637C73.9531 112.309 73.7227 112.078 73.418 111.945C73.1211 111.805 72.7539 111.734 72.3164 111.734C71.832 111.734 71.418 111.824 71.0742 112.004C70.7383 112.184 70.4688 112.434 70.2656 112.754C70.0625 113.066 69.9141 113.434 69.8203 113.855C69.7266 114.277 69.6797 114.73 69.6797 115.215ZM79.7812 115.789V115.543C79.7812 114.613 79.9141 113.758 80.1797 112.977C80.4453 112.188 80.832 111.504 81.3398 110.926C81.8477 110.348 82.4727 109.898 83.2148 109.578C83.957 109.25 84.8086 109.086 85.7695 109.086C86.7305 109.086 87.5859 109.25 88.3359 109.578C89.0859 109.898 89.7148 110.348 90.2227 110.926C90.7383 111.504 91.1289 112.188 91.3945 112.977C91.6602 113.758 91.793 114.613 91.793 115.543V115.789C91.793 116.711 91.6602 117.566 91.3945 118.355C91.1289 119.137 90.7383 119.82 90.2227 120.406C89.7148 120.984 89.0898 121.434 88.3477 121.754C87.6055 122.074 86.7539 122.234 85.793 122.234C84.832 122.234 83.9766 122.074 83.2266 121.754C82.4844 121.434 81.8555 120.984 81.3398 120.406C80.832 119.82 80.4453 119.137 80.1797 118.355C79.9141 117.566 79.7812 116.711 79.7812 115.789ZM83.1562 115.543V115.789C83.1562 116.32 83.2031 116.816 83.2969 117.277C83.3906 117.738 83.5391 118.145 83.7422 118.496C83.9531 118.84 84.2266 119.109 84.5625 119.305C84.8984 119.5 85.3086 119.598 85.793 119.598C86.2617 119.598 86.6641 119.5 87 119.305C87.3359 119.109 87.6055 118.84 87.8086 118.496C88.0117 118.145 88.1602 117.738 88.2539 117.277C88.3555 116.816 88.4062 116.32 88.4062 115.789V115.543C88.4062 115.027 88.3555 114.543 88.2539 114.09C88.1602 113.629 88.0078 113.223 87.7969 112.871C87.5938 112.512 87.3242 112.23 86.9883 112.027C86.6523 111.824 86.2461 111.723 85.7695 111.723C85.293 111.723 84.8867 111.824 84.5508 112.027C84.2227 112.23 83.9531 112.512 83.7422 112.871C83.5391 113.223 83.3906 113.629 83.2969 114.09C83.2031 114.543 83.1562 115.027 83.1562 115.543ZM111.375 119.363V122H99.7031V119.75L105.223 113.832C105.777 113.215 106.215 112.672 106.535 112.203C106.855 111.727 107.086 111.301 107.227 110.926C107.375 110.543 107.449 110.18 107.449 109.836C107.449 109.32 107.363 108.879 107.191 108.512C107.02 108.137 106.766 107.848 106.43 107.645C106.102 107.441 105.695 107.34 105.211 107.34C104.695 107.34 104.25 107.465 103.875 107.715C103.508 107.965 103.227 108.312 103.031 108.758C102.844 109.203 102.75 109.707 102.75 110.27H99.3633C99.3633 109.254 99.6055 108.324 100.09 107.48C100.574 106.629 101.258 105.953 102.141 105.453C103.023 104.945 104.07 104.691 105.281 104.691C106.477 104.691 107.484 104.887 108.305 105.277C109.133 105.66 109.758 106.215 110.18 106.941C110.609 107.66 110.824 108.52 110.824 109.52C110.824 110.082 110.734 110.633 110.555 111.172C110.375 111.703 110.117 112.234 109.781 112.766C109.453 113.289 109.055 113.82 108.586 114.359C108.117 114.898 107.598 115.457 107.027 116.035L104.062 119.363H111.375ZM124.969 111.969V114.922C124.969 116.203 124.832 117.309 124.559 118.238C124.285 119.16 123.891 119.918 123.375 120.512C122.867 121.098 122.262 121.531 121.559 121.812C120.855 122.094 120.074 122.234 119.215 122.234C118.527 122.234 117.887 122.148 117.293 121.977C116.699 121.797 116.164 121.52 115.688 121.145C115.219 120.77 114.812 120.297 114.469 119.727C114.133 119.148 113.875 118.461 113.695 117.664C113.516 116.867 113.426 115.953 113.426 114.922V111.969C113.426 110.688 113.562 109.59 113.836 108.676C114.117 107.754 114.512 107 115.02 106.414C115.535 105.828 116.145 105.398 116.848 105.125C117.551 104.844 118.332 104.703 119.191 104.703C119.879 104.703 120.516 104.793 121.102 104.973C121.695 105.145 122.23 105.414 122.707 105.781C123.184 106.148 123.59 106.621 123.926 107.199C124.262 107.77 124.52 108.453 124.699 109.25C124.879 110.039 124.969 110.945 124.969 111.969ZM121.582 115.367V111.512C121.582 110.895 121.547 110.355 121.477 109.895C121.414 109.434 121.316 109.043 121.184 108.723C121.051 108.395 120.887 108.129 120.691 107.926C120.496 107.723 120.273 107.574 120.023 107.48C119.773 107.387 119.496 107.34 119.191 107.34C118.809 107.34 118.469 107.414 118.172 107.562C117.883 107.711 117.637 107.949 117.434 108.277C117.23 108.598 117.074 109.027 116.965 109.566C116.863 110.098 116.812 110.746 116.812 111.512V115.367C116.812 115.984 116.844 116.527 116.906 116.996C116.977 117.465 117.078 117.867 117.211 118.203C117.352 118.531 117.516 118.801 117.703 119.012C117.898 119.215 118.121 119.363 118.371 119.457C118.629 119.551 118.91 119.598 119.215 119.598C119.59 119.598 119.922 119.523 120.211 119.375C120.508 119.219 120.758 118.977 120.961 118.648C121.172 118.312 121.328 117.875 121.43 117.336C121.531 116.797 121.582 116.141 121.582 115.367ZM138.938 119.363V122H127.266V119.75L132.785 113.832C133.34 113.215 133.777 112.672 134.098 112.203C134.418 111.727 134.648 111.301 134.789 110.926C134.938 110.543 135.012 110.18 135.012 109.836C135.012 109.32 134.926 108.879 134.754 108.512C134.582 108.137 134.328 107.848 133.992 107.645C133.664 107.441 133.258 107.34 132.773 107.34C132.258 107.34 131.812 107.465 131.438 107.715C131.07 107.965 130.789 108.312 130.594 108.758C130.406 109.203 130.312 109.707 130.312 110.27H126.926C126.926 109.254 127.168 108.324 127.652 107.48C128.137 106.629 128.82 105.953 129.703 105.453C130.586 104.945 131.633 104.691 132.844 104.691C134.039 104.691 135.047 104.887 135.867 105.277C136.695 105.66 137.32 106.215 137.742 106.941C138.172 107.66 138.387 108.52 138.387 109.52C138.387 110.082 138.297 110.633 138.117 111.172C137.938 111.703 137.68 112.234 137.344 112.766C137.016 113.289 136.617 113.82 136.148 114.359C135.68 114.898 135.16 115.457 134.59 116.035L131.625 119.363H138.938ZM144.504 112.004H146.309C146.887 112.004 147.363 111.906 147.738 111.711C148.113 111.508 148.391 111.227 148.57 110.867C148.758 110.5 148.852 110.074 148.852 109.59C148.852 109.152 148.766 108.766 148.594 108.43C148.43 108.086 148.176 107.82 147.832 107.633C147.488 107.438 147.055 107.34 146.531 107.34C146.117 107.34 145.734 107.422 145.383 107.586C145.031 107.75 144.75 107.98 144.539 108.277C144.328 108.574 144.223 108.934 144.223 109.355H140.836C140.836 108.418 141.086 107.602 141.586 106.906C142.094 106.211 142.773 105.668 143.625 105.277C144.477 104.887 145.414 104.691 146.438 104.691C147.594 104.691 148.605 104.879 149.473 105.254C150.34 105.621 151.016 106.164 151.5 106.883C151.984 107.602 152.227 108.492 152.227 109.555C152.227 110.094 152.102 110.617 151.852 111.125C151.602 111.625 151.242 112.078 150.773 112.484C150.312 112.883 149.75 113.203 149.086 113.445C148.422 113.68 147.676 113.797 146.848 113.797H144.504V112.004ZM144.504 114.57V112.824H146.848C147.777 112.824 148.594 112.93 149.297 113.141C150 113.352 150.59 113.656 151.066 114.055C151.543 114.445 151.902 114.91 152.145 115.449C152.387 115.98 152.508 116.57 152.508 117.219C152.508 118.016 152.355 118.727 152.051 119.352C151.746 119.969 151.316 120.492 150.762 120.922C150.215 121.352 149.574 121.68 148.84 121.906C148.105 122.125 147.305 122.234 146.438 122.234C145.719 122.234 145.012 122.137 144.316 121.941C143.629 121.738 143.004 121.438 142.441 121.039C141.887 120.633 141.441 120.125 141.105 119.516C140.777 118.898 140.613 118.168 140.613 117.324H144C144 117.762 144.109 118.152 144.328 118.496C144.547 118.84 144.848 119.109 145.23 119.305C145.621 119.5 146.055 119.598 146.531 119.598C147.07 119.598 147.531 119.5 147.914 119.305C148.305 119.102 148.602 118.82 148.805 118.461C149.016 118.094 149.121 117.668 149.121 117.184C149.121 116.559 149.008 116.059 148.781 115.684C148.555 115.301 148.23 115.02 147.809 114.84C147.387 114.66 146.887 114.57 146.309 114.57H144.504Z" fill="#5C59BB"/>
<path d="M174 117.375L168 111.375L169.075 110.3L174 115.25L178.925 110.325L180 111.4L174 117.375Z" fill="#5C59BB"/>
<path d="M490.175 106.35L487.825 104L477.825 114L487.825 124L490.175 121.65L482.542 114L490.175 106.35Z" fill="#5C59BB"/>
<path d="M536.175 104L533.825 106.35L541.459 114L533.825 121.65L536.175 124L546.175 114L536.175 104Z" fill="#5C59BB"/>
<path d="M50.1001 176H46.3853L46.4087 173.258H50.1001C51.022 173.258 51.7993 173.051 52.4321 172.637C53.0649 172.215 53.5415 171.602 53.8618 170.797C54.1899 169.992 54.354 169.02 54.354 167.879V167.047C54.354 166.172 54.2603 165.402 54.0728 164.738C53.8931 164.074 53.6235 163.516 53.2642 163.062C52.9048 162.609 52.4634 162.27 51.9399 162.043C51.4165 161.809 50.8149 161.691 50.1353 161.691H46.3149V158.938H50.1353C51.2759 158.938 52.3188 159.133 53.2642 159.523C54.2173 159.906 55.0415 160.457 55.7368 161.176C56.4321 161.895 56.9673 162.754 57.3423 163.754C57.7251 164.746 57.9165 165.852 57.9165 167.07V167.879C57.9165 169.09 57.7251 170.195 57.3423 171.195C56.9673 172.195 56.4321 173.055 55.7368 173.773C55.0493 174.484 54.2251 175.035 53.2642 175.426C52.311 175.809 51.2563 176 50.1001 176ZM48.3774 158.938V176H44.8618V158.938H48.3774Z" fill="#171A21"/>
<path d="M132.44 171.535C132.44 171.23 132.394 170.957 132.3 170.715C132.214 170.465 132.05 170.238 131.808 170.035C131.565 169.824 131.226 169.617 130.788 169.414C130.351 169.211 129.784 169 129.089 168.781C128.315 168.531 127.581 168.25 126.886 167.938C126.198 167.625 125.589 167.262 125.058 166.848C124.534 166.426 124.12 165.938 123.815 165.383C123.519 164.828 123.37 164.184 123.37 163.449C123.37 162.738 123.526 162.094 123.839 161.516C124.151 160.93 124.589 160.43 125.151 160.016C125.714 159.594 126.378 159.27 127.144 159.043C127.917 158.816 128.765 158.703 129.687 158.703C130.944 158.703 132.042 158.93 132.979 159.383C133.917 159.836 134.644 160.457 135.159 161.246C135.683 162.035 135.944 162.938 135.944 163.953H132.452C132.452 163.453 132.347 163.016 132.136 162.641C131.933 162.258 131.62 161.957 131.198 161.738C130.784 161.52 130.261 161.41 129.628 161.41C129.019 161.41 128.511 161.504 128.104 161.691C127.698 161.871 127.394 162.117 127.19 162.43C126.987 162.734 126.886 163.078 126.886 163.461C126.886 163.75 126.956 164.012 127.097 164.246C127.245 164.48 127.464 164.699 127.753 164.902C128.042 165.105 128.397 165.297 128.819 165.477C129.241 165.656 129.729 165.832 130.284 166.004C131.214 166.285 132.03 166.602 132.733 166.953C133.444 167.305 134.038 167.699 134.515 168.137C134.991 168.574 135.351 169.07 135.593 169.625C135.835 170.18 135.956 170.809 135.956 171.512C135.956 172.254 135.812 172.918 135.522 173.504C135.233 174.09 134.815 174.586 134.269 174.992C133.722 175.398 133.069 175.707 132.312 175.918C131.554 176.129 130.706 176.234 129.769 176.234C128.925 176.234 128.093 176.125 127.272 175.906C126.452 175.68 125.706 175.34 125.034 174.887C124.37 174.434 123.839 173.855 123.44 173.152C123.042 172.449 122.843 171.617 122.843 170.656H126.37C126.37 171.188 126.452 171.637 126.616 172.004C126.78 172.371 127.011 172.668 127.308 172.895C127.612 173.121 127.972 173.285 128.386 173.387C128.808 173.488 129.269 173.539 129.769 173.539C130.378 173.539 130.878 173.453 131.269 173.281C131.667 173.109 131.96 172.871 132.147 172.566C132.343 172.262 132.44 171.918 132.44 171.535Z" fill="#171A21"/>
<path d="M209.425 158.938V176H205.921V158.938H209.425ZM214.675 158.938V161.691H200.753V158.938H214.675Z" fill="#171A21"/>
<path d="M288.52 173.469L293.137 177.125L290.922 179.047L286.375 175.391L288.52 173.469ZM293.254 167.07V167.879C293.254 169.176 293.078 170.34 292.727 171.371C292.383 172.402 291.887 173.281 291.238 174.008C290.59 174.727 289.824 175.277 288.941 175.66C288.059 176.043 287.078 176.234 286 176.234C284.93 176.234 283.949 176.043 283.059 175.66C282.168 175.277 281.398 174.727 280.75 174.008C280.102 173.281 279.598 172.402 279.238 171.371C278.887 170.34 278.711 169.176 278.711 167.879V167.07C278.711 165.766 278.887 164.602 279.238 163.578C279.598 162.547 280.098 161.668 280.738 160.941C281.379 160.215 282.145 159.66 283.035 159.277C283.926 158.895 284.906 158.703 285.977 158.703C287.055 158.703 288.035 158.895 288.918 159.277C289.809 159.66 290.578 160.215 291.227 160.941C291.875 161.668 292.375 162.547 292.727 163.578C293.078 164.602 293.254 165.766 293.254 167.07ZM289.703 167.879V167.047C289.703 166.141 289.617 165.344 289.445 164.656C289.281 163.969 289.039 163.391 288.719 162.922C288.406 162.453 288.02 162.102 287.559 161.867C287.098 161.625 286.57 161.504 285.977 161.504C285.383 161.504 284.855 161.625 284.395 161.867C283.934 162.102 283.547 162.453 283.234 162.922C282.922 163.391 282.684 163.969 282.52 164.656C282.355 165.344 282.273 166.141 282.273 167.047V167.879C282.273 168.777 282.355 169.574 282.52 170.27C282.684 170.957 282.922 171.539 283.234 172.016C283.555 172.484 283.945 172.84 284.406 173.082C284.875 173.324 285.406 173.445 286 173.445C286.594 173.445 287.117 173.324 287.57 173.082C288.031 172.84 288.418 172.484 288.73 172.016C289.051 171.539 289.293 170.957 289.457 170.27C289.621 169.574 289.703 168.777 289.703 167.879Z" fill="#171A21"/>
<path d="M366.806 173.469L371.423 177.125L369.208 179.047L364.661 175.391L366.806 173.469ZM371.54 167.07V167.879C371.54 169.176 371.364 170.34 371.013 171.371C370.669 172.402 370.173 173.281 369.524 174.008C368.876 174.727 368.11 175.277 367.228 175.66C366.345 176.043 365.364 176.234 364.286 176.234C363.216 176.234 362.235 176.043 361.345 175.66C360.454 175.277 359.685 174.727 359.036 174.008C358.388 173.281 357.884 172.402 357.524 171.371C357.173 170.34 356.997 169.176 356.997 167.879V167.07C356.997 165.766 357.173 164.602 357.524 163.578C357.884 162.547 358.384 161.668 359.024 160.941C359.665 160.215 360.431 159.66 361.321 159.277C362.212 158.895 363.192 158.703 364.263 158.703C365.341 158.703 366.321 158.895 367.204 159.277C368.095 159.66 368.864 160.215 369.513 160.941C370.161 161.668 370.661 162.547 371.013 163.578C371.364 164.602 371.54 165.766 371.54 167.07ZM367.989 167.879V167.047C367.989 166.141 367.903 165.344 367.731 164.656C367.567 163.969 367.325 163.391 367.005 162.922C366.692 162.453 366.306 162.102 365.845 161.867C365.384 161.625 364.856 161.504 364.263 161.504C363.669 161.504 363.142 161.625 362.681 161.867C362.22 162.102 361.833 162.453 361.521 162.922C361.208 163.391 360.97 163.969 360.806 164.656C360.642 165.344 360.56 166.141 360.56 167.047V167.879C360.56 168.777 360.642 169.574 360.806 170.27C360.97 170.957 361.208 171.539 361.521 172.016C361.841 172.484 362.231 172.84 362.692 173.082C363.161 173.324 363.692 173.445 364.286 173.445C364.88 173.445 365.403 173.324 365.856 173.082C366.317 172.84 366.704 172.484 367.017 172.016C367.337 171.539 367.579 170.957 367.743 170.27C367.907 169.574 367.989 168.777 367.989 167.879Z" fill="#171A21"/>
<path d="M445.583 171.535C445.583 171.23 445.537 170.957 445.443 170.715C445.357 170.465 445.193 170.238 444.951 170.035C444.708 169.824 444.369 169.617 443.931 169.414C443.494 169.211 442.927 169 442.232 168.781C441.458 168.531 440.724 168.25 440.029 167.938C439.341 167.625 438.732 167.262 438.201 166.848C437.677 166.426 437.263 165.938 436.958 165.383C436.662 164.828 436.513 164.184 436.513 163.449C436.513 162.738 436.669 162.094 436.982 161.516C437.294 160.93 437.732 160.43 438.294 160.016C438.857 159.594 439.521 159.27 440.287 159.043C441.06 158.816 441.908 158.703 442.83 158.703C444.087 158.703 445.185 158.93 446.123 159.383C447.06 159.836 447.787 160.457 448.302 161.246C448.826 162.035 449.087 162.938 449.087 163.953H445.595C445.595 163.453 445.49 163.016 445.279 162.641C445.076 162.258 444.763 161.957 444.341 161.738C443.927 161.52 443.404 161.41 442.771 161.41C442.162 161.41 441.654 161.504 441.248 161.691C440.841 161.871 440.537 162.117 440.333 162.43C440.13 162.734 440.029 163.078 440.029 163.461C440.029 163.75 440.099 164.012 440.24 164.246C440.388 164.48 440.607 164.699 440.896 164.902C441.185 165.105 441.541 165.297 441.962 165.477C442.384 165.656 442.873 165.832 443.427 166.004C444.357 166.285 445.173 166.602 445.876 166.953C446.587 167.305 447.181 167.699 447.658 168.137C448.134 168.574 448.494 169.07 448.736 169.625C448.978 170.18 449.099 170.809 449.099 171.512C449.099 172.254 448.955 172.918 448.666 173.504C448.376 174.09 447.958 174.586 447.412 174.992C446.865 175.398 446.212 175.707 445.455 175.918C444.697 176.129 443.849 176.234 442.912 176.234C442.068 176.234 441.236 176.125 440.416 175.906C439.595 175.68 438.849 175.34 438.177 174.887C437.513 174.434 436.982 173.855 436.583 173.152C436.185 172.449 435.986 171.617 435.986 170.656H439.513C439.513 171.188 439.595 171.637 439.759 172.004C439.923 172.371 440.154 172.668 440.451 172.895C440.755 173.121 441.115 173.285 441.529 173.387C441.951 173.488 442.412 173.539 442.912 173.539C443.521 173.539 444.021 173.453 444.412 173.281C444.81 173.109 445.103 172.871 445.291 172.566C445.486 172.262 445.583 171.918 445.583 171.535Z" fill="#171A21"/>
<path d="M523.869 171.535C523.869 171.23 523.822 170.957 523.729 170.715C523.643 170.465 523.479 170.238 523.236 170.035C522.994 169.824 522.654 169.617 522.217 169.414C521.779 169.211 521.213 169 520.518 168.781C519.744 168.531 519.01 168.25 518.314 167.938C517.627 167.625 517.018 167.262 516.486 166.848C515.963 166.426 515.549 165.938 515.244 165.383C514.947 164.828 514.799 164.184 514.799 163.449C514.799 162.738 514.955 162.094 515.268 161.516C515.58 160.93 516.018 160.43 516.58 160.016C517.143 159.594 517.807 159.27 518.572 159.043C519.346 158.816 520.193 158.703 521.115 158.703C522.373 158.703 523.471 158.93 524.408 159.383C525.346 159.836 526.072 160.457 526.588 161.246C527.111 162.035 527.373 162.938 527.373 163.953H523.881C523.881 163.453 523.775 163.016 523.564 162.641C523.361 162.258 523.049 161.957 522.627 161.738C522.213 161.52 521.689 161.41 521.057 161.41C520.447 161.41 519.939 161.504 519.533 161.691C519.127 161.871 518.822 162.117 518.619 162.43C518.416 162.734 518.314 163.078 518.314 163.461C518.314 163.75 518.385 164.012 518.525 164.246C518.674 164.48 518.893 164.699 519.182 164.902C519.471 165.105 519.826 165.297 520.248 165.477C520.67 165.656 521.158 165.832 521.713 166.004C522.643 166.285 523.459 166.602 524.162 166.953C524.873 167.305 525.467 167.699 525.943 168.137C526.42 168.574 526.779 169.07 527.021 169.625C527.264 170.18 527.385 170.809 527.385 171.512C527.385 172.254 527.24 172.918 526.951 173.504C526.662 174.09 526.244 174.586 525.697 174.992C525.15 175.398 524.498 175.707 523.74 175.918C522.982 176.129 522.135 176.234 521.197 176.234C520.354 176.234 519.521 176.125 518.701 175.906C517.881 175.68 517.135 175.34 516.463 174.887C515.799 174.434 515.268 173.855 514.869 173.152C514.471 172.449 514.271 171.617 514.271 170.656H517.799C517.799 171.188 517.881 171.637 518.045 172.004C518.209 172.371 518.439 172.668 518.736 172.895C519.041 173.121 519.4 173.285 519.814 173.387C520.236 173.488 520.697 173.539 521.197 173.539C521.807 173.539 522.307 173.453 522.697 173.281C523.096 173.109 523.389 172.871 523.576 172.566C523.771 172.262 523.869 171.918 523.869 171.535Z" fill="#171A21"/>
<g clip-path="url(#clip0_942_2897)">
<path d="M209.208 208.703V223H207.402V210.959L203.759 212.287V210.656L208.925 208.703H209.208Z" fill="#171A21"/>
</g>
<g clip-path="url(#clip1_942_2897)">
<path d="M290.873 221.516V223H281.566V221.701L286.225 216.516C286.798 215.878 287.24 215.337 287.553 214.895C287.872 214.445 288.093 214.045 288.217 213.693C288.347 213.335 288.412 212.971 288.412 212.6C288.412 212.131 288.314 211.708 288.119 211.33C287.93 210.946 287.65 210.64 287.279 210.412C286.908 210.184 286.459 210.07 285.932 210.07C285.3 210.07 284.773 210.194 284.35 210.441C283.933 210.682 283.62 211.021 283.412 211.457C283.204 211.893 283.1 212.395 283.1 212.961H281.293C281.293 212.16 281.469 211.428 281.82 210.764C282.172 210.1 282.693 209.572 283.383 209.182C284.073 208.785 284.923 208.586 285.932 208.586C286.83 208.586 287.598 208.745 288.236 209.064C288.874 209.377 289.363 209.82 289.701 210.393C290.046 210.959 290.219 211.623 290.219 212.385C290.219 212.801 290.147 213.225 290.004 213.654C289.867 214.077 289.675 214.501 289.428 214.924C289.187 215.347 288.904 215.764 288.578 216.174C288.259 216.584 287.917 216.988 287.553 217.385L283.744 221.516H290.873Z" fill="#171A21"/>
</g>
<g clip-path="url(#clip2_942_2897)">
<path d="M362.479 215.002H363.769C364.4 215.002 364.921 214.898 365.331 214.689C365.748 214.475 366.057 214.185 366.259 213.82C366.467 213.449 366.571 213.033 366.571 212.57C366.571 212.023 366.48 211.564 366.298 211.193C366.116 210.822 365.842 210.542 365.478 210.354C365.113 210.165 364.651 210.07 364.091 210.07C363.583 210.07 363.134 210.171 362.743 210.373C362.359 210.568 362.056 210.848 361.835 211.213C361.62 211.577 361.513 212.007 361.513 212.502H359.706C359.706 211.779 359.888 211.122 360.253 210.529C360.618 209.937 361.129 209.465 361.786 209.113C362.45 208.762 363.218 208.586 364.091 208.586C364.95 208.586 365.702 208.739 366.347 209.045C366.991 209.344 367.493 209.794 367.851 210.393C368.209 210.985 368.388 211.724 368.388 212.609C368.388 212.967 368.303 213.352 368.134 213.762C367.971 214.165 367.714 214.543 367.362 214.895C367.017 215.246 366.568 215.536 366.015 215.764C365.461 215.985 364.797 216.096 364.022 216.096H362.479V215.002ZM362.479 216.486V215.402H364.022C364.927 215.402 365.676 215.51 366.269 215.725C366.861 215.939 367.326 216.226 367.665 216.584C368.01 216.942 368.251 217.336 368.388 217.766C368.531 218.189 368.603 218.612 368.603 219.035C368.603 219.699 368.489 220.288 368.261 220.803C368.039 221.317 367.724 221.753 367.313 222.111C366.91 222.469 366.435 222.74 365.888 222.922C365.341 223.104 364.745 223.195 364.101 223.195C363.482 223.195 362.899 223.107 362.353 222.932C361.812 222.756 361.334 222.502 360.917 222.17C360.5 221.831 360.175 221.418 359.94 220.93C359.706 220.435 359.589 219.872 359.589 219.24H361.396C361.396 219.735 361.503 220.168 361.718 220.539C361.939 220.91 362.252 221.2 362.655 221.408C363.065 221.61 363.547 221.711 364.101 221.711C364.654 221.711 365.129 221.617 365.526 221.428C365.93 221.232 366.239 220.939 366.454 220.549C366.675 220.158 366.786 219.667 366.786 219.074C366.786 218.482 366.662 217.997 366.415 217.619C366.168 217.235 365.816 216.952 365.36 216.77C364.911 216.581 364.381 216.486 363.769 216.486H362.479Z" fill="#171A21"/>
</g>
<g clip-path="url(#clip3_942_2897)">
<path d="M447.738 218.215V219.699H437.464V218.635L443.832 208.781H445.306L443.724 211.633L439.515 218.215H447.738ZM445.755 208.781V223H443.949V208.781H445.755Z" fill="#171A21"/>
</g>
<g clip-path="url(#clip4_942_2897)">
<path d="M518.699 216.232L517.254 215.861L517.967 208.781H525.262V210.451H519.5L519.07 214.318C519.331 214.169 519.66 214.029 520.057 213.898C520.46 213.768 520.923 213.703 521.443 213.703C522.101 213.703 522.69 213.817 523.211 214.045C523.732 214.266 524.174 214.585 524.539 215.002C524.91 215.419 525.193 215.92 525.389 216.506C525.584 217.092 525.682 217.746 525.682 218.469C525.682 219.152 525.587 219.781 525.398 220.354C525.216 220.926 524.939 221.428 524.568 221.857C524.197 222.281 523.729 222.609 523.162 222.844C522.602 223.078 521.941 223.195 521.18 223.195C520.607 223.195 520.063 223.117 519.549 222.961C519.041 222.798 518.585 222.554 518.182 222.229C517.785 221.896 517.459 221.486 517.205 220.998C516.958 220.503 516.801 219.924 516.736 219.26H518.455C518.533 219.794 518.689 220.243 518.924 220.607C519.158 220.972 519.464 221.249 519.842 221.438C520.226 221.62 520.672 221.711 521.18 221.711C521.609 221.711 521.99 221.636 522.322 221.486C522.654 221.337 522.934 221.122 523.162 220.842C523.39 220.562 523.562 220.223 523.68 219.826C523.803 219.429 523.865 218.983 523.865 218.488C523.865 218.039 523.803 217.622 523.68 217.238C523.556 216.854 523.37 216.519 523.123 216.232C522.882 215.946 522.586 215.725 522.234 215.568C521.883 215.406 521.479 215.324 521.023 215.324C520.418 215.324 519.959 215.406 519.646 215.568C519.34 215.731 519.025 215.952 518.699 216.232Z" fill="#171A21"/>
</g>
<rect x="501.357" y="196.5" width="39" height="39" rx="19.5" stroke="#5C59BB"/>
<g clip-path="url(#clip5_942_2897)">
<path d="M53.6333 256.762H53.7896V258.295H53.6333C52.6763 258.295 51.8755 258.451 51.231 258.764C50.5864 259.07 50.0754 259.483 49.6978 260.004C49.3201 260.518 49.0467 261.098 48.8774 261.742C48.7147 262.387 48.6333 263.041 48.6333 263.705V265.795C48.6333 266.426 48.7082 266.986 48.8579 267.475C49.0076 267.956 49.2127 268.363 49.4731 268.695C49.7336 269.027 50.0265 269.278 50.3521 269.447C50.6841 269.617 51.0291 269.701 51.3872 269.701C51.8039 269.701 52.175 269.623 52.5005 269.467C52.826 269.304 53.0994 269.079 53.3208 268.793C53.5487 268.5 53.7212 268.155 53.8384 267.758C53.9556 267.361 54.0142 266.924 54.0142 266.449C54.0142 266.026 53.9621 265.619 53.8579 265.229C53.7537 264.831 53.5942 264.48 53.3794 264.174C53.1646 263.861 52.8944 263.617 52.5688 263.441C52.2498 263.259 51.869 263.168 51.4263 263.168C50.925 263.168 50.4562 263.292 50.02 263.539C49.5903 263.78 49.2355 264.099 48.9556 264.496C48.6821 264.887 48.5259 265.313 48.4868 265.775L47.5298 265.766C47.6209 265.036 47.7902 264.415 48.0376 263.9C48.2915 263.38 48.604 262.956 48.9751 262.631C49.3527 262.299 49.7726 262.058 50.2349 261.908C50.7036 261.752 51.1984 261.674 51.7192 261.674C52.4289 261.674 53.0409 261.807 53.5552 262.074C54.0695 262.341 54.4927 262.699 54.8247 263.148C55.1567 263.591 55.4009 264.092 55.5571 264.652C55.7199 265.206 55.8013 265.775 55.8013 266.361C55.8013 267.032 55.7069 267.66 55.5181 268.246C55.3293 268.832 55.0461 269.346 54.6685 269.789C54.2974 270.232 53.8384 270.577 53.2915 270.824C52.7446 271.072 52.1099 271.195 51.3872 271.195C50.619 271.195 49.9484 271.039 49.3755 270.727C48.8026 270.408 48.3273 269.984 47.9497 269.457C47.5721 268.93 47.2889 268.344 47.1001 267.699C46.9113 267.055 46.8169 266.4 46.8169 265.736V264.887C46.8169 263.884 46.9178 262.901 47.1196 261.938C47.3215 260.974 47.6698 260.102 48.1646 259.32C48.6659 258.539 49.3592 257.917 50.2446 257.455C51.13 256.993 52.2596 256.762 53.6333 256.762Z" fill="#171A21"/>
</g>
<g clip-path="url(#clip6_942_2897)">
<path d="M134.175 256.781V257.797L128.286 271H126.382L132.261 258.266H124.565V256.781H134.175Z" fill="#171A21"/>
</g>
<g clip-path="url(#clip7_942_2897)">
<path d="M212.236 267.152C212.236 268.018 212.034 268.754 211.63 269.359C211.233 269.958 210.693 270.414 210.009 270.727C209.332 271.039 208.567 271.195 207.714 271.195C206.861 271.195 206.093 271.039 205.41 270.727C204.726 270.414 204.186 269.958 203.789 269.359C203.391 268.754 203.193 268.018 203.193 267.152C203.193 266.586 203.3 266.068 203.515 265.6C203.736 265.124 204.046 264.711 204.443 264.359C204.847 264.008 205.322 263.738 205.869 263.549C206.422 263.354 207.031 263.256 207.695 263.256C208.567 263.256 209.345 263.425 210.029 263.764C210.712 264.096 211.25 264.555 211.64 265.141C212.037 265.727 212.236 266.397 212.236 267.152ZM210.419 267.113C210.419 266.586 210.306 266.12 210.078 265.717C209.85 265.307 209.531 264.988 209.121 264.76C208.71 264.532 208.235 264.418 207.695 264.418C207.141 264.418 206.663 264.532 206.259 264.76C205.862 264.988 205.553 265.307 205.332 265.717C205.11 266.12 205 266.586 205 267.113C205 267.66 205.107 268.129 205.322 268.52C205.543 268.904 205.856 269.2 206.259 269.408C206.669 269.61 207.154 269.711 207.714 269.711C208.274 269.711 208.756 269.61 209.16 269.408C209.563 269.2 209.873 268.904 210.087 268.52C210.309 268.129 210.419 267.66 210.419 267.113ZM211.904 260.482C211.904 261.173 211.722 261.794 211.357 262.348C210.992 262.901 210.494 263.337 209.863 263.656C209.231 263.975 208.515 264.135 207.714 264.135C206.901 264.135 206.175 263.975 205.537 263.656C204.905 263.337 204.41 262.901 204.052 262.348C203.694 261.794 203.515 261.173 203.515 260.482C203.515 259.656 203.694 258.952 204.052 258.373C204.417 257.794 204.915 257.351 205.546 257.045C206.178 256.739 206.897 256.586 207.705 256.586C208.518 256.586 209.241 256.739 209.873 257.045C210.504 257.351 210.999 257.794 211.357 258.373C211.722 258.952 211.904 259.656 211.904 260.482ZM210.097 260.512C210.097 260.036 209.996 259.617 209.794 259.252C209.593 258.887 209.313 258.601 208.955 258.393C208.597 258.178 208.18 258.07 207.705 258.07C207.229 258.07 206.813 258.171 206.455 258.373C206.103 258.568 205.826 258.848 205.625 259.213C205.429 259.577 205.332 260.01 205.332 260.512C205.332 261 205.429 261.426 205.625 261.791C205.826 262.156 206.106 262.439 206.464 262.641C206.822 262.842 207.239 262.943 207.714 262.943C208.19 262.943 208.603 262.842 208.955 262.641C209.313 262.439 209.593 262.156 209.794 261.791C209.996 261.426 210.097 261 210.097 260.512Z" fill="#171A21"/>
</g>
<g clip-path="url(#clip8_942_2897)">
<path d="M283.354 269.486H283.539C284.581 269.486 285.427 269.34 286.078 269.047C286.729 268.754 287.23 268.36 287.582 267.865C287.934 267.37 288.174 266.814 288.305 266.195C288.435 265.57 288.5 264.929 288.5 264.271V262.094C288.5 261.449 288.425 260.876 288.275 260.375C288.132 259.874 287.93 259.454 287.67 259.115C287.416 258.777 287.126 258.52 286.801 258.344C286.475 258.168 286.13 258.08 285.766 258.08C285.349 258.08 284.975 258.165 284.643 258.334C284.317 258.497 284.04 258.728 283.812 259.027C283.591 259.327 283.422 259.678 283.305 260.082C283.188 260.486 283.129 260.925 283.129 261.4C283.129 261.824 283.181 262.234 283.285 262.631C283.389 263.028 283.549 263.386 283.764 263.705C283.979 264.024 284.245 264.278 284.564 264.467C284.89 264.649 285.271 264.74 285.707 264.74C286.111 264.74 286.488 264.662 286.84 264.506C287.198 264.343 287.514 264.125 287.787 263.852C288.067 263.572 288.288 263.256 288.451 262.904C288.62 262.553 288.718 262.185 288.744 261.801H289.604C289.604 262.341 289.496 262.875 289.281 263.402C289.073 263.923 288.78 264.398 288.402 264.828C288.025 265.258 287.582 265.603 287.074 265.863C286.566 266.117 286.013 266.244 285.414 266.244C284.711 266.244 284.102 266.107 283.588 265.834C283.074 265.561 282.65 265.196 282.318 264.74C281.993 264.285 281.749 263.777 281.586 263.217C281.43 262.65 281.352 262.077 281.352 261.498C281.352 260.821 281.446 260.186 281.635 259.594C281.824 259.001 282.104 258.48 282.475 258.031C282.846 257.576 283.305 257.221 283.852 256.967C284.405 256.713 285.043 256.586 285.766 256.586C286.579 256.586 287.273 256.749 287.846 257.074C288.419 257.4 288.884 257.836 289.242 258.383C289.607 258.93 289.874 259.545 290.043 260.229C290.212 260.912 290.297 261.615 290.297 262.338V262.992C290.297 263.728 290.248 264.477 290.15 265.238C290.059 265.993 289.88 266.716 289.613 267.406C289.353 268.096 288.972 268.715 288.471 269.262C287.969 269.802 287.315 270.232 286.508 270.551C285.707 270.863 284.717 271.02 283.539 271.02H283.354V269.486Z" fill="#171A21"/>
</g>
<g clip-path="url(#clip9_942_2897)">
<path d="M359.905 256.703V271H358.099V258.959L354.456 260.287V258.656L359.622 256.703H359.905ZM374.644 262.758V264.926C374.644 266.091 374.539 267.074 374.331 267.875C374.123 268.676 373.823 269.32 373.433 269.809C373.042 270.297 372.57 270.652 372.017 270.873C371.47 271.088 370.851 271.195 370.161 271.195C369.614 271.195 369.11 271.127 368.647 270.99C368.185 270.854 367.769 270.635 367.397 270.336C367.033 270.03 366.72 269.633 366.46 269.145C366.2 268.656 366.001 268.064 365.864 267.367C365.728 266.671 365.659 265.857 365.659 264.926V262.758C365.659 261.592 365.763 260.616 365.972 259.828C366.187 259.04 366.489 258.409 366.88 257.934C367.271 257.452 367.739 257.107 368.286 256.898C368.84 256.69 369.458 256.586 370.142 256.586C370.695 256.586 371.203 256.654 371.665 256.791C372.134 256.921 372.55 257.133 372.915 257.426C373.28 257.712 373.589 258.096 373.843 258.578C374.103 259.053 374.302 259.636 374.438 260.326C374.575 261.016 374.644 261.827 374.644 262.758ZM372.827 265.219V262.455C372.827 261.817 372.788 261.257 372.71 260.775C372.638 260.287 372.531 259.87 372.388 259.525C372.244 259.18 372.062 258.9 371.841 258.686C371.626 258.471 371.375 258.314 371.089 258.217C370.809 258.113 370.493 258.061 370.142 258.061C369.712 258.061 369.331 258.142 368.999 258.305C368.667 258.461 368.387 258.712 368.159 259.057C367.938 259.402 367.769 259.854 367.651 260.414C367.534 260.974 367.476 261.654 367.476 262.455V265.219C367.476 265.857 367.511 266.42 367.583 266.908C367.661 267.396 367.775 267.82 367.925 268.178C368.075 268.529 368.257 268.819 368.472 269.047C368.687 269.275 368.934 269.444 369.214 269.555C369.5 269.659 369.816 269.711 370.161 269.711C370.604 269.711 370.991 269.626 371.323 269.457C371.655 269.288 371.932 269.024 372.153 268.666C372.381 268.301 372.55 267.836 372.661 267.27C372.772 266.697 372.827 266.013 372.827 265.219Z" fill="#171A21"/>
</g>
<g clip-path="url(#clip10_942_2897)">
<path d="M438.191 256.703V271H436.384V258.959L432.742 260.287V258.656L437.908 256.703H438.191ZM449.941 256.703V271H448.134V258.959L444.492 260.287V258.656L449.658 256.703H449.941Z" fill="#171A21"/>
</g>
<g clip-path="url(#clip11_942_2897)">
<path d="M516.477 256.703V271H514.67V258.959L511.027 260.287V258.656L516.193 256.703H516.477ZM531.605 269.516V271H522.299V269.701L526.957 264.516C527.53 263.878 527.973 263.337 528.285 262.895C528.604 262.445 528.826 262.045 528.949 261.693C529.079 261.335 529.145 260.971 529.145 260.6C529.145 260.131 529.047 259.708 528.852 259.33C528.663 258.946 528.383 258.64 528.012 258.412C527.641 258.184 527.191 258.07 526.664 258.07C526.033 258.07 525.505 258.194 525.082 258.441C524.665 258.682 524.353 259.021 524.145 259.457C523.936 259.893 523.832 260.395 523.832 260.961H522.025C522.025 260.16 522.201 259.428 522.553 258.764C522.904 258.1 523.425 257.572 524.115 257.182C524.805 256.785 525.655 256.586 526.664 256.586C527.562 256.586 528.331 256.745 528.969 257.064C529.607 257.377 530.095 257.82 530.434 258.393C530.779 258.959 530.951 259.623 530.951 260.385C530.951 260.801 530.88 261.225 530.736 261.654C530.6 262.077 530.408 262.501 530.16 262.924C529.919 263.347 529.636 263.764 529.311 264.174C528.992 264.584 528.65 264.988 528.285 265.385L524.477 269.516H531.605Z" fill="#171A21"/>
</g>
<g clip-path="url(#clip12_942_2897)">
<path d="M46.7622 304.703V319H44.9556V306.959L41.313 308.287V306.656L46.479 304.703H46.7622ZM55.2114 311.002H56.5005C57.132 311.002 57.6528 310.898 58.063 310.689C58.4797 310.475 58.7889 310.185 58.9907 309.82C59.1991 309.449 59.3032 309.033 59.3032 308.57C59.3032 308.023 59.2121 307.564 59.0298 307.193C58.8475 306.822 58.5741 306.542 58.2095 306.354C57.8449 306.165 57.3826 306.07 56.8228 306.07C56.3149 306.07 55.8657 306.171 55.4751 306.373C55.091 306.568 54.7882 306.848 54.5669 307.213C54.3521 307.577 54.2446 308.007 54.2446 308.502H52.438C52.438 307.779 52.6203 307.122 52.9849 306.529C53.3494 305.937 53.8605 305.465 54.5181 305.113C55.1821 304.762 55.9504 304.586 56.8228 304.586C57.6821 304.586 58.4341 304.739 59.0786 305.045C59.7231 305.344 60.2244 305.794 60.5825 306.393C60.9406 306.985 61.1196 307.724 61.1196 308.609C61.1196 308.967 61.035 309.352 60.8657 309.762C60.703 310.165 60.4458 310.543 60.0942 310.895C59.7492 311.246 59.3 311.536 58.7466 311.764C58.1932 311.985 57.5291 312.096 56.7544 312.096H55.2114V311.002ZM55.2114 312.486V311.402H56.7544C57.6593 311.402 58.408 311.51 59.0005 311.725C59.5929 311.939 60.0584 312.226 60.397 312.584C60.742 312.942 60.9829 313.336 61.1196 313.766C61.2629 314.189 61.3345 314.612 61.3345 315.035C61.3345 315.699 61.2205 316.288 60.9927 316.803C60.7713 317.317 60.4556 317.753 60.0454 318.111C59.6418 318.469 59.1665 318.74 58.6196 318.922C58.0728 319.104 57.4771 319.195 56.8325 319.195C56.214 319.195 55.6313 319.107 55.0845 318.932C54.5441 318.756 54.0656 318.502 53.6489 318.17C53.2323 317.831 52.9067 317.418 52.6724 316.93C52.438 316.435 52.3208 315.872 52.3208 315.24H54.1274C54.1274 315.735 54.2349 316.168 54.4497 316.539C54.6711 316.91 54.9836 317.2 55.3872 317.408C55.7974 317.61 56.2791 317.711 56.8325 317.711C57.3859 317.711 57.8612 317.617 58.2583 317.428C58.6619 317.232 58.9712 316.939 59.186 316.549C59.4074 316.158 59.5181 315.667 59.5181 315.074C59.5181 314.482 59.3944 313.997 59.147 313.619C58.8996 313.235 58.548 312.952 58.0923 312.77C57.6431 312.581 57.1125 312.486 56.5005 312.486H55.2114Z" fill="#171A21"/>
</g>
<g clip-path="url(#clip13_942_2897)">
<path d="M125.048 304.703V319H123.241V306.959L119.599 308.287V306.656L124.765 304.703H125.048ZM140.47 314.215V315.699H130.196V314.635L136.563 304.781H138.038L136.456 307.633L132.247 314.215H140.47ZM138.487 304.781V319H136.681V304.781H138.487Z" fill="#171A21"/>
</g>
<g clip-path="url(#clip14_942_2897)">
<path d="M203.333 304.703V319H201.527V306.959L197.884 308.287V306.656L203.05 304.703H203.333ZM211.431 312.232L209.986 311.861L210.699 304.781H217.994V306.451H212.232L211.802 310.318C212.063 310.169 212.391 310.029 212.789 309.898C213.192 309.768 213.654 309.703 214.175 309.703C214.833 309.703 215.422 309.817 215.943 310.045C216.464 310.266 216.906 310.585 217.271 311.002C217.642 311.419 217.925 311.92 218.121 312.506C218.316 313.092 218.414 313.746 218.414 314.469C218.414 315.152 218.319 315.781 218.13 316.354C217.948 316.926 217.671 317.428 217.3 317.857C216.929 318.281 216.46 318.609 215.894 318.844C215.334 319.078 214.673 319.195 213.912 319.195C213.339 319.195 212.795 319.117 212.281 318.961C211.773 318.798 211.317 318.554 210.914 318.229C210.516 317.896 210.191 317.486 209.937 316.998C209.69 316.503 209.533 315.924 209.468 315.26H211.187C211.265 315.794 211.421 316.243 211.656 316.607C211.89 316.972 212.196 317.249 212.574 317.438C212.958 317.62 213.404 317.711 213.912 317.711C214.341 317.711 214.722 317.636 215.054 317.486C215.386 317.337 215.666 317.122 215.894 316.842C216.122 316.562 216.294 316.223 216.412 315.826C216.535 315.429 216.597 314.983 216.597 314.488C216.597 314.039 216.535 313.622 216.412 313.238C216.288 312.854 216.102 312.519 215.855 312.232C215.614 311.946 215.318 311.725 214.966 311.568C214.615 311.406 214.211 311.324 213.755 311.324C213.15 311.324 212.691 311.406 212.378 311.568C212.072 311.731 211.757 311.952 211.431 312.232Z" fill="#171A21"/>
</g>
<g clip-path="url(#clip15_942_2897)">
<path d="M281.619 304.703V319H279.812V306.959L276.17 308.287V306.656L281.336 304.703H281.619ZM294.365 304.762H294.521V306.295H294.365C293.408 306.295 292.607 306.451 291.963 306.764C291.318 307.07 290.807 307.483 290.43 308.004C290.052 308.518 289.779 309.098 289.609 309.742C289.447 310.387 289.365 311.041 289.365 311.705V313.795C289.365 314.426 289.44 314.986 289.59 315.475C289.74 315.956 289.945 316.363 290.205 316.695C290.465 317.027 290.758 317.278 291.084 317.447C291.416 317.617 291.761 317.701 292.119 317.701C292.536 317.701 292.907 317.623 293.232 317.467C293.558 317.304 293.831 317.079 294.053 316.793C294.281 316.5 294.453 316.155 294.57 315.758C294.688 315.361 294.746 314.924 294.746 314.449C294.746 314.026 294.694 313.619 294.59 313.229C294.486 312.831 294.326 312.48 294.111 312.174C293.896 311.861 293.626 311.617 293.301 311.441C292.982 311.259 292.601 311.168 292.158 311.168C291.657 311.168 291.188 311.292 290.752 311.539C290.322 311.78 289.967 312.099 289.688 312.496C289.414 312.887 289.258 313.313 289.219 313.775L288.262 313.766C288.353 313.036 288.522 312.415 288.77 311.9C289.023 311.38 289.336 310.956 289.707 310.631C290.085 310.299 290.505 310.058 290.967 309.908C291.436 309.752 291.93 309.674 292.451 309.674C293.161 309.674 293.773 309.807 294.287 310.074C294.801 310.341 295.225 310.699 295.557 311.148C295.889 311.591 296.133 312.092 296.289 312.652C296.452 313.206 296.533 313.775 296.533 314.361C296.533 315.032 296.439 315.66 296.25 316.246C296.061 316.832 295.778 317.346 295.4 317.789C295.029 318.232 294.57 318.577 294.023 318.824C293.477 319.072 292.842 319.195 292.119 319.195C291.351 319.195 290.68 319.039 290.107 318.727C289.535 318.408 289.059 317.984 288.682 317.457C288.304 316.93 288.021 316.344 287.832 315.699C287.643 315.055 287.549 314.4 287.549 313.736V312.887C287.549 311.884 287.65 310.901 287.852 309.938C288.053 308.974 288.402 308.102 288.896 307.32C289.398 306.539 290.091 305.917 290.977 305.455C291.862 304.993 292.992 304.762 294.365 304.762Z" fill="#171A21"/>
</g>
<g clip-path="url(#clip16_942_2897)">
<rect x="344.286" y="292" width="40" height="40" rx="20" fill="#5C59BB"/>
<path d="M359.905 304.703V319H358.099V306.959L354.456 308.287V306.656L359.622 304.703H359.905ZM374.907 304.781V305.797L369.019 319H367.114L372.993 306.266H365.298V304.781H374.907Z" fill="#F6F7F8"/>
</g>
<g clip-path="url(#clip17_942_2897)">
<path d="M438.191 304.703V319H436.384V306.959L432.742 308.287V306.656L437.908 304.703H438.191ZM452.968 315.152C452.968 316.018 452.766 316.754 452.363 317.359C451.966 317.958 451.425 318.414 450.742 318.727C450.065 319.039 449.3 319.195 448.447 319.195C447.594 319.195 446.826 319.039 446.142 318.727C445.458 318.414 444.918 317.958 444.521 317.359C444.124 316.754 443.925 316.018 443.925 315.152C443.925 314.586 444.033 314.068 444.248 313.6C444.469 313.124 444.778 312.711 445.175 312.359C445.579 312.008 446.054 311.738 446.601 311.549C447.154 311.354 447.763 311.256 448.427 311.256C449.3 311.256 450.078 311.425 450.761 311.764C451.445 312.096 451.982 312.555 452.373 313.141C452.77 313.727 452.968 314.397 452.968 315.152ZM451.152 315.113C451.152 314.586 451.038 314.12 450.81 313.717C450.582 313.307 450.263 312.988 449.853 312.76C449.443 312.532 448.968 312.418 448.427 312.418C447.874 312.418 447.395 312.532 446.992 312.76C446.595 312.988 446.285 313.307 446.064 313.717C445.843 314.12 445.732 314.586 445.732 315.113C445.732 315.66 445.839 316.129 446.054 316.52C446.276 316.904 446.588 317.2 446.992 317.408C447.402 317.61 447.887 317.711 448.447 317.711C449.007 317.711 449.488 317.61 449.892 317.408C450.296 317.2 450.605 316.904 450.82 316.52C451.041 316.129 451.152 315.66 451.152 315.113ZM452.636 308.482C452.636 309.173 452.454 309.794 452.089 310.348C451.725 310.901 451.227 311.337 450.595 311.656C449.964 311.975 449.248 312.135 448.447 312.135C447.633 312.135 446.907 311.975 446.269 311.656C445.638 311.337 445.143 310.901 444.785 310.348C444.427 309.794 444.248 309.173 444.248 308.482C444.248 307.656 444.427 306.952 444.785 306.373C445.149 305.794 445.647 305.351 446.279 305.045C446.91 304.739 447.63 304.586 448.437 304.586C449.251 304.586 449.973 304.739 450.605 305.045C451.236 305.351 451.731 305.794 452.089 306.373C452.454 306.952 452.636 307.656 452.636 308.482ZM450.83 308.512C450.83 308.036 450.729 307.617 450.527 307.252C450.325 306.887 450.045 306.601 449.687 306.393C449.329 306.178 448.912 306.07 448.437 306.07C447.962 306.07 447.545 306.171 447.187 306.373C446.835 306.568 446.559 306.848 446.357 307.213C446.162 307.577 446.064 308.01 446.064 308.512C446.064 309 446.162 309.426 446.357 309.791C446.559 310.156 446.839 310.439 447.197 310.641C447.555 310.842 447.972 310.943 448.447 310.943C448.922 310.943 449.335 310.842 449.687 310.641C450.045 310.439 450.325 310.156 450.527 309.791C450.729 309.426 450.83 309 450.83 308.512Z" fill="#171A21"/>
</g>
<g clip-path="url(#clip18_942_2897)">
<path d="M516.477 304.703V319H514.67V306.959L511.027 308.287V306.656L516.193 304.703H516.477ZM524.086 317.486H524.271C525.313 317.486 526.16 317.34 526.811 317.047C527.462 316.754 527.963 316.36 528.314 315.865C528.666 315.37 528.907 314.814 529.037 314.195C529.167 313.57 529.232 312.929 529.232 312.271V310.094C529.232 309.449 529.158 308.876 529.008 308.375C528.865 307.874 528.663 307.454 528.402 307.115C528.148 306.777 527.859 306.52 527.533 306.344C527.208 306.168 526.863 306.08 526.498 306.08C526.081 306.08 525.707 306.165 525.375 306.334C525.049 306.497 524.773 306.728 524.545 307.027C524.324 307.327 524.154 307.678 524.037 308.082C523.92 308.486 523.861 308.925 523.861 309.4C523.861 309.824 523.913 310.234 524.018 310.631C524.122 311.028 524.281 311.386 524.496 311.705C524.711 312.024 524.978 312.278 525.297 312.467C525.622 312.649 526.003 312.74 526.439 312.74C526.843 312.74 527.221 312.662 527.572 312.506C527.93 312.343 528.246 312.125 528.52 311.852C528.799 311.572 529.021 311.256 529.184 310.904C529.353 310.553 529.451 310.185 529.477 309.801H530.336C530.336 310.341 530.229 310.875 530.014 311.402C529.805 311.923 529.512 312.398 529.135 312.828C528.757 313.258 528.314 313.603 527.807 313.863C527.299 314.117 526.745 314.244 526.146 314.244C525.443 314.244 524.835 314.107 524.32 313.834C523.806 313.561 523.383 313.196 523.051 312.74C522.725 312.285 522.481 311.777 522.318 311.217C522.162 310.65 522.084 310.077 522.084 309.498C522.084 308.821 522.178 308.186 522.367 307.594C522.556 307.001 522.836 306.48 523.207 306.031C523.578 305.576 524.037 305.221 524.584 304.967C525.137 304.713 525.775 304.586 526.498 304.586C527.312 304.586 528.005 304.749 528.578 305.074C529.151 305.4 529.617 305.836 529.975 306.383C530.339 306.93 530.606 307.545 530.775 308.229C530.945 308.912 531.029 309.615 531.029 310.338V310.992C531.029 311.728 530.98 312.477 530.883 313.238C530.792 313.993 530.613 314.716 530.346 315.406C530.085 316.096 529.704 316.715 529.203 317.262C528.702 317.802 528.048 318.232 527.24 318.551C526.439 318.863 525.45 319.02 524.271 319.02H524.086V317.486Z" fill="#171A21"/>
</g>
<g clip-path="url(#clip19_942_2897)">
<path d="M50.1411 365.516V367H40.8345V365.701L45.4927 360.516C46.0656 359.878 46.5083 359.337 46.8208 358.895C47.1398 358.445 47.3612 358.045 47.4849 357.693C47.6151 357.335 47.6802 356.971 47.6802 356.6C47.6802 356.131 47.5825 355.708 47.3872 355.33C47.1984 354.946 46.9185 354.64 46.5474 354.412C46.1763 354.184 45.7271 354.07 45.1997 354.07C44.5682 354.07 44.0409 354.194 43.6177 354.441C43.201 354.682 42.8885 355.021 42.6802 355.457C42.4718 355.893 42.3677 356.395 42.3677 356.961H40.561C40.561 356.16 40.7368 355.428 41.0884 354.764C41.4399 354.1 41.9608 353.572 42.6509 353.182C43.341 352.785 44.1906 352.586 45.1997 352.586C46.0981 352.586 46.8664 352.745 47.5044 353.064C48.1424 353.377 48.6307 353.82 48.9692 354.393C49.3143 354.959 49.4868 355.623 49.4868 356.385C49.4868 356.801 49.4152 357.225 49.272 357.654C49.1353 358.077 48.9432 358.501 48.6958 358.924C48.4549 359.347 48.1717 359.764 47.8462 360.174C47.5272 360.584 47.1854 360.988 46.8208 361.385L43.0122 365.516H50.1411ZM61.5005 358.758V360.926C61.5005 362.091 61.3963 363.074 61.188 363.875C60.9797 364.676 60.6802 365.32 60.2896 365.809C59.8989 366.297 59.4269 366.652 58.8735 366.873C58.3267 367.088 57.7082 367.195 57.0181 367.195C56.4712 367.195 55.9666 367.127 55.5044 366.99C55.0422 366.854 54.6255 366.635 54.2544 366.336C53.8898 366.03 53.5773 365.633 53.3169 365.145C53.0565 364.656 52.8579 364.064 52.7212 363.367C52.5845 362.671 52.5161 361.857 52.5161 360.926V358.758C52.5161 357.592 52.6203 356.616 52.8286 355.828C53.0435 355.04 53.3462 354.409 53.7368 353.934C54.1274 353.452 54.5962 353.107 55.1431 352.898C55.6965 352.69 56.3149 352.586 56.9985 352.586C57.5519 352.586 58.0597 352.654 58.522 352.791C58.9907 352.921 59.4074 353.133 59.772 353.426C60.1366 353.712 60.4458 354.096 60.6997 354.578C60.9601 355.053 61.1587 355.636 61.2954 356.326C61.4321 357.016 61.5005 357.827 61.5005 358.758ZM59.6841 361.219V358.455C59.6841 357.817 59.645 357.257 59.5669 356.775C59.4953 356.287 59.3879 355.87 59.2446 355.525C59.1014 355.18 58.9191 354.9 58.6978 354.686C58.4829 354.471 58.2323 354.314 57.9458 354.217C57.6659 354.113 57.3501 354.061 56.9985 354.061C56.5688 354.061 56.188 354.142 55.856 354.305C55.5239 354.461 55.244 354.712 55.0161 355.057C54.7948 355.402 54.6255 355.854 54.5083 356.414C54.3911 356.974 54.3325 357.654 54.3325 358.455V361.219C54.3325 361.857 54.3683 362.42 54.4399 362.908C54.5181 363.396 54.632 363.82 54.7817 364.178C54.9315 364.529 55.1138 364.819 55.3286 365.047C55.5435 365.275 55.7909 365.444 56.0708 365.555C56.3573 365.659 56.673 365.711 57.0181 365.711C57.4608 365.711 57.8481 365.626 58.1802 365.457C58.5122 365.288 58.7889 365.024 59.0103 364.666C59.2381 364.301 59.4074 363.836 59.5181 363.27C59.6287 362.697 59.6841 362.013 59.6841 361.219Z" fill="#171A21"/>
</g>
<g clip-path="url(#clip20_942_2897)">
<path d="M128.427 365.516V367H119.12V365.701L123.778 360.516C124.351 359.878 124.794 359.337 125.106 358.895C125.425 358.445 125.647 358.045 125.771 357.693C125.901 357.335 125.966 356.971 125.966 356.6C125.966 356.131 125.868 355.708 125.673 355.33C125.484 354.946 125.204 354.64 124.833 354.412C124.462 354.184 124.013 354.07 123.485 354.07C122.854 354.07 122.326 354.194 121.903 354.441C121.487 354.682 121.174 355.021 120.966 355.457C120.757 355.893 120.653 356.395 120.653 356.961H118.847C118.847 356.16 119.022 355.428 119.374 354.764C119.726 354.1 120.246 353.572 120.937 353.182C121.627 352.785 122.476 352.586 123.485 352.586C124.384 352.586 125.152 352.745 125.79 353.064C126.428 353.377 126.916 353.82 127.255 354.393C127.6 354.959 127.772 355.623 127.772 356.385C127.772 356.801 127.701 357.225 127.558 357.654C127.421 358.077 127.229 358.501 126.981 358.924C126.741 359.347 126.457 359.764 126.132 360.174C125.813 360.584 125.471 360.988 125.106 361.385L121.298 365.516H128.427ZM136.798 352.703V367H134.991V354.959L131.349 356.287V354.656L136.515 352.703H136.798Z" fill="#171A21"/>
</g>
<g clip-path="url(#clip21_942_2897)">
<path d="M206.712 365.516V367H197.406V365.701L202.064 360.516C202.637 359.878 203.08 359.337 203.392 358.895C203.711 358.445 203.932 358.045 204.056 357.693C204.186 357.335 204.251 356.971 204.251 356.6C204.251 356.131 204.154 355.708 203.958 355.33C203.77 354.946 203.49 354.64 203.119 354.412C202.748 354.184 202.298 354.07 201.771 354.07C201.139 354.07 200.612 354.194 200.189 354.441C199.772 354.682 199.46 355.021 199.251 355.457C199.043 355.893 198.939 356.395 198.939 356.961H197.132C197.132 356.16 197.308 355.428 197.66 354.764C198.011 354.1 198.532 353.572 199.222 353.182C199.912 352.785 200.762 352.586 201.771 352.586C202.669 352.586 203.438 352.745 204.076 353.064C204.714 353.377 205.202 353.82 205.541 354.393C205.886 354.959 206.058 355.623 206.058 356.385C206.058 356.801 205.986 357.225 205.843 357.654C205.707 358.077 205.514 358.501 205.267 358.924C205.026 359.347 204.743 359.764 204.417 360.174C204.098 360.584 203.757 360.988 203.392 361.385L199.583 365.516H206.712ZM218.462 365.516V367H209.156V365.701L213.814 360.516C214.387 359.878 214.83 359.337 215.142 358.895C215.461 358.445 215.682 358.045 215.806 357.693C215.936 357.335 216.001 356.971 216.001 356.6C216.001 356.131 215.904 355.708 215.708 355.33C215.52 354.946 215.24 354.64 214.869 354.412C214.498 354.184 214.048 354.07 213.521 354.07C212.889 354.07 212.362 354.194 211.939 354.441C211.522 354.682 211.21 355.021 211.001 355.457C210.793 355.893 210.689 356.395 210.689 356.961H208.882C208.882 356.16 209.058 355.428 209.41 354.764C209.761 354.1 210.282 353.572 210.972 353.182C211.662 352.785 212.512 352.586 213.521 352.586C214.419 352.586 215.188 352.745 215.826 353.064C216.464 353.377 216.952 353.82 217.291 354.393C217.636 354.959 217.808 355.623 217.808 356.385C217.808 356.801 217.736 357.225 217.593 357.654C217.457 358.077 217.264 358.501 217.017 358.924C216.776 359.347 216.493 359.764 216.167 360.174C215.848 360.584 215.507 360.988 215.142 361.385L211.333 365.516H218.462Z" fill="#171A21"/>
</g>
<g clip-path="url(#clip22_942_2897)">
<path d="M284.998 365.516V367H275.691V365.701L280.35 360.516C280.923 359.878 281.365 359.337 281.678 358.895C281.997 358.445 282.218 358.045 282.342 357.693C282.472 357.335 282.537 356.971 282.537 356.6C282.537 356.131 282.439 355.708 282.244 355.33C282.055 354.946 281.775 354.64 281.404 354.412C281.033 354.184 280.584 354.07 280.057 354.07C279.425 354.07 278.898 354.194 278.475 354.441C278.058 354.682 277.745 355.021 277.537 355.457C277.329 355.893 277.225 356.395 277.225 356.961H275.418C275.418 356.16 275.594 355.428 275.945 354.764C276.297 354.1 276.818 353.572 277.508 353.182C278.198 352.785 279.048 352.586 280.057 352.586C280.955 352.586 281.723 352.745 282.361 353.064C282.999 353.377 283.488 353.82 283.826 354.393C284.171 354.959 284.344 355.623 284.344 356.385C284.344 356.801 284.272 357.225 284.129 357.654C283.992 358.077 283.8 358.501 283.553 358.924C283.312 359.347 283.029 359.764 282.703 360.174C282.384 360.584 282.042 360.988 281.678 361.385L277.869 365.516H284.998ZM290.068 359.002H291.357C291.989 359.002 292.51 358.898 292.92 358.689C293.337 358.475 293.646 358.185 293.848 357.82C294.056 357.449 294.16 357.033 294.16 356.57C294.16 356.023 294.069 355.564 293.887 355.193C293.704 354.822 293.431 354.542 293.066 354.354C292.702 354.165 292.24 354.07 291.68 354.07C291.172 354.07 290.723 354.171 290.332 354.373C289.948 354.568 289.645 354.848 289.424 355.213C289.209 355.577 289.102 356.007 289.102 356.502H287.295C287.295 355.779 287.477 355.122 287.842 354.529C288.206 353.937 288.717 353.465 289.375 353.113C290.039 352.762 290.807 352.586 291.68 352.586C292.539 352.586 293.291 352.739 293.936 353.045C294.58 353.344 295.081 353.794 295.439 354.393C295.798 354.985 295.977 355.724 295.977 356.609C295.977 356.967 295.892 357.352 295.723 357.762C295.56 358.165 295.303 358.543 294.951 358.895C294.606 359.246 294.157 359.536 293.604 359.764C293.05 359.985 292.386 360.096 291.611 360.096H290.068V359.002ZM290.068 360.486V359.402H291.611C292.516 359.402 293.265 359.51 293.857 359.725C294.45 359.939 294.915 360.226 295.254 360.584C295.599 360.942 295.84 361.336 295.977 361.766C296.12 362.189 296.191 362.612 296.191 363.035C296.191 363.699 296.077 364.288 295.85 364.803C295.628 365.317 295.312 365.753 294.902 366.111C294.499 366.469 294.023 366.74 293.477 366.922C292.93 367.104 292.334 367.195 291.689 367.195C291.071 367.195 290.488 367.107 289.941 366.932C289.401 366.756 288.923 366.502 288.506 366.17C288.089 365.831 287.764 365.418 287.529 364.93C287.295 364.435 287.178 363.872 287.178 363.24H288.984C288.984 363.735 289.092 364.168 289.307 364.539C289.528 364.91 289.84 365.2 290.244 365.408C290.654 365.61 291.136 365.711 291.689 365.711C292.243 365.711 292.718 365.617 293.115 365.428C293.519 365.232 293.828 364.939 294.043 364.549C294.264 364.158 294.375 363.667 294.375 363.074C294.375 362.482 294.251 361.997 294.004 361.619C293.757 361.235 293.405 360.952 292.949 360.77C292.5 360.581 291.969 360.486 291.357 360.486H290.068Z" fill="#171A21"/>
</g>
<g clip-path="url(#clip23_942_2897)">
<path d="M363.284 365.516V367H353.978V365.701L358.636 360.516C359.209 359.878 359.651 359.337 359.964 358.895C360.283 358.445 360.504 358.045 360.628 357.693C360.758 357.335 360.823 356.971 360.823 356.6C360.823 356.131 360.726 355.708 360.53 355.33C360.341 354.946 360.062 354.64 359.69 354.412C359.319 354.184 358.87 354.07 358.343 354.07C357.711 354.07 357.184 354.194 356.761 354.441C356.344 354.682 356.032 355.021 355.823 355.457C355.615 355.893 355.511 356.395 355.511 356.961H353.704C353.704 356.16 353.88 355.428 354.231 354.764C354.583 354.1 355.104 353.572 355.794 353.182C356.484 352.785 357.334 352.586 358.343 352.586C359.241 352.586 360.009 352.745 360.647 353.064C361.285 353.377 361.774 353.82 362.112 354.393C362.457 354.959 362.63 355.623 362.63 356.385C362.63 356.801 362.558 357.225 362.415 357.654C362.278 358.077 362.086 358.501 361.839 358.924C361.598 359.347 361.315 359.764 360.989 360.174C360.67 360.584 360.328 360.988 359.964 361.385L356.155 365.516H363.284ZM375.327 362.215V363.699H365.054V362.635L371.421 352.781H372.896L371.313 355.633L367.104 362.215H375.327ZM373.345 352.781V367H371.538V352.781H373.345Z" fill="#171A21"/>
</g>
<g clip-path="url(#clip24_942_2897)">
<path d="M441.57 365.516V367H432.263V365.701L436.921 360.516C437.494 359.878 437.937 359.337 438.25 358.895C438.569 358.445 438.79 358.045 438.914 357.693C439.044 357.335 439.109 356.971 439.109 356.6C439.109 356.131 439.011 355.708 438.816 355.33C438.627 354.946 438.347 354.64 437.976 354.412C437.605 354.184 437.156 354.07 436.628 354.07C435.997 354.07 435.47 354.194 435.046 354.441C434.63 354.682 434.317 355.021 434.109 355.457C433.901 355.893 433.796 356.395 433.796 356.961H431.99C431.99 356.16 432.166 355.428 432.517 354.764C432.869 354.1 433.389 353.572 434.08 353.182C434.77 352.785 435.619 352.586 436.628 352.586C437.527 352.586 438.295 352.745 438.933 353.064C439.571 353.377 440.059 353.82 440.398 354.393C440.743 354.959 440.916 355.623 440.916 356.385C440.916 356.801 440.844 357.225 440.701 357.654C440.564 358.077 440.372 358.501 440.125 358.924C439.884 359.347 439.6 359.764 439.275 360.174C438.956 360.584 438.614 360.988 438.25 361.385L434.441 365.516H441.57ZM446.289 360.232L444.843 359.861L445.556 352.781H452.851V354.451H447.089L446.66 358.318C446.92 358.169 447.249 358.029 447.646 357.898C448.05 357.768 448.512 357.703 449.033 357.703C449.69 357.703 450.279 357.817 450.8 358.045C451.321 358.266 451.764 358.585 452.128 359.002C452.5 359.419 452.783 359.92 452.978 360.506C453.173 361.092 453.271 361.746 453.271 362.469C453.271 363.152 453.177 363.781 452.988 364.354C452.806 364.926 452.529 365.428 452.158 365.857C451.787 366.281 451.318 366.609 450.751 366.844C450.192 367.078 449.531 367.195 448.769 367.195C448.196 367.195 447.653 367.117 447.138 366.961C446.63 366.798 446.175 366.554 445.771 366.229C445.374 365.896 445.048 365.486 444.794 364.998C444.547 364.503 444.391 363.924 444.326 363.26H446.044C446.123 363.794 446.279 364.243 446.513 364.607C446.748 364.972 447.054 365.249 447.431 365.438C447.815 365.62 448.261 365.711 448.769 365.711C449.199 365.711 449.58 365.636 449.912 365.486C450.244 365.337 450.524 365.122 450.751 364.842C450.979 364.562 451.152 364.223 451.269 363.826C451.393 363.429 451.455 362.983 451.455 362.488C451.455 362.039 451.393 361.622 451.269 361.238C451.145 360.854 450.96 360.519 450.712 360.232C450.472 359.946 450.175 359.725 449.824 359.568C449.472 359.406 449.069 359.324 448.613 359.324C448.007 359.324 447.548 359.406 447.236 359.568C446.93 359.731 446.614 359.952 446.289 360.232Z" fill="#171A21"/>
</g>
<g clip-path="url(#clip25_942_2897)">
<path d="M519.855 365.516V367H510.549V365.701L515.207 360.516C515.78 359.878 516.223 359.337 516.535 358.895C516.854 358.445 517.076 358.045 517.199 357.693C517.329 357.335 517.395 356.971 517.395 356.6C517.395 356.131 517.297 355.708 517.102 355.33C516.913 354.946 516.633 354.64 516.262 354.412C515.891 354.184 515.441 354.07 514.914 354.07C514.283 354.07 513.755 354.194 513.332 354.441C512.915 354.682 512.603 355.021 512.395 355.457C512.186 355.893 512.082 356.395 512.082 356.961H510.275C510.275 356.16 510.451 355.428 510.803 354.764C511.154 354.1 511.675 353.572 512.365 353.182C513.055 352.785 513.905 352.586 514.914 352.586C515.812 352.586 516.581 352.745 517.219 353.064C517.857 353.377 518.345 353.82 518.684 354.393C519.029 354.959 519.201 355.623 519.201 356.385C519.201 356.801 519.13 357.225 518.986 357.654C518.85 358.077 518.658 358.501 518.41 358.924C518.169 359.347 517.886 359.764 517.561 360.174C517.242 360.584 516.9 360.988 516.535 361.385L512.727 365.516H519.855ZM529.223 352.762H529.379V354.295H529.223C528.266 354.295 527.465 354.451 526.82 354.764C526.176 355.07 525.665 355.483 525.287 356.004C524.91 356.518 524.636 357.098 524.467 357.742C524.304 358.387 524.223 359.041 524.223 359.705V361.795C524.223 362.426 524.298 362.986 524.447 363.475C524.597 363.956 524.802 364.363 525.062 364.695C525.323 365.027 525.616 365.278 525.941 365.447C526.273 365.617 526.618 365.701 526.977 365.701C527.393 365.701 527.764 365.623 528.09 365.467C528.415 365.304 528.689 365.079 528.91 364.793C529.138 364.5 529.311 364.155 529.428 363.758C529.545 363.361 529.604 362.924 529.604 362.449C529.604 362.026 529.551 361.619 529.447 361.229C529.343 360.831 529.184 360.48 528.969 360.174C528.754 359.861 528.484 359.617 528.158 359.441C527.839 359.259 527.458 359.168 527.016 359.168C526.514 359.168 526.046 359.292 525.609 359.539C525.18 359.78 524.825 360.099 524.545 360.496C524.271 360.887 524.115 361.313 524.076 361.775L523.119 361.766C523.21 361.036 523.38 360.415 523.627 359.9C523.881 359.38 524.193 358.956 524.564 358.631C524.942 358.299 525.362 358.058 525.824 357.908C526.293 357.752 526.788 357.674 527.309 357.674C528.018 357.674 528.63 357.807 529.145 358.074C529.659 358.341 530.082 358.699 530.414 359.148C530.746 359.591 530.99 360.092 531.146 360.652C531.309 361.206 531.391 361.775 531.391 362.361C531.391 363.032 531.296 363.66 531.107 364.246C530.919 364.832 530.635 365.346 530.258 365.789C529.887 366.232 529.428 366.577 528.881 366.824C528.334 367.072 527.699 367.195 526.977 367.195C526.208 367.195 525.538 367.039 524.965 366.727C524.392 366.408 523.917 365.984 523.539 365.457C523.161 364.93 522.878 364.344 522.689 363.699C522.501 363.055 522.406 362.4 522.406 361.736V360.887C522.406 359.884 522.507 358.901 522.709 357.938C522.911 356.974 523.259 356.102 523.754 355.32C524.255 354.539 524.949 353.917 525.834 353.455C526.719 352.993 527.849 352.762 529.223 352.762Z" fill="#171A21"/>
</g>
<g clip-path="url(#clip26_942_2897)">
<path d="M50.1411 413.516V415H40.8345V413.701L45.4927 408.516C46.0656 407.878 46.5083 407.337 46.8208 406.895C47.1398 406.445 47.3612 406.045 47.4849 405.693C47.6151 405.335 47.6802 404.971 47.6802 404.6C47.6802 404.131 47.5825 403.708 47.3872 403.33C47.1984 402.946 46.9185 402.64 46.5474 402.412C46.1763 402.184 45.7271 402.07 45.1997 402.07C44.5682 402.07 44.0409 402.194 43.6177 402.441C43.201 402.682 42.8885 403.021 42.6802 403.457C42.4718 403.893 42.3677 404.395 42.3677 404.961H40.561C40.561 404.16 40.7368 403.428 41.0884 402.764C41.4399 402.1 41.9608 401.572 42.6509 401.182C43.341 400.785 44.1906 400.586 45.1997 400.586C46.0981 400.586 46.8664 400.745 47.5044 401.064C48.1424 401.377 48.6307 401.82 48.9692 402.393C49.3143 402.959 49.4868 403.623 49.4868 404.385C49.4868 404.801 49.4152 405.225 49.272 405.654C49.1353 406.077 48.9432 406.501 48.6958 406.924C48.4549 407.347 48.1717 407.764 47.8462 408.174C47.5272 408.584 47.1854 408.988 46.8208 409.385L43.0122 413.516H50.1411ZM61.7642 400.781V401.797L55.8755 415H53.9712L59.8501 402.266H52.1548V400.781H61.7642Z" fill="#171A21"/>
</g>
<g clip-path="url(#clip27_942_2897)">
<path d="M128.427 413.516V415H119.12V413.701L123.778 408.516C124.351 407.878 124.794 407.337 125.106 406.895C125.425 406.445 125.647 406.045 125.771 405.693C125.901 405.335 125.966 404.971 125.966 404.6C125.966 404.131 125.868 403.708 125.673 403.33C125.484 402.946 125.204 402.64 124.833 402.412C124.462 402.184 124.013 402.07 123.485 402.07C122.854 402.07 122.326 402.194 121.903 402.441C121.487 402.682 121.174 403.021 120.966 403.457C120.757 403.893 120.653 404.395 120.653 404.961H118.847C118.847 404.16 119.022 403.428 119.374 402.764C119.726 402.1 120.246 401.572 120.937 401.182C121.627 400.785 122.476 400.586 123.485 400.586C124.384 400.586 125.152 400.745 125.79 401.064C126.428 401.377 126.916 401.82 127.255 402.393C127.6 402.959 127.772 403.623 127.772 404.385C127.772 404.801 127.701 405.225 127.558 405.654C127.421 406.077 127.229 406.501 126.981 406.924C126.741 407.347 126.457 407.764 126.132 408.174C125.813 408.584 125.471 408.988 125.106 409.385L121.298 413.516H128.427ZM139.825 411.152C139.825 412.018 139.623 412.754 139.22 413.359C138.823 413.958 138.282 414.414 137.599 414.727C136.922 415.039 136.157 415.195 135.304 415.195C134.451 415.195 133.683 415.039 132.999 414.727C132.315 414.414 131.775 413.958 131.378 413.359C130.981 412.754 130.782 412.018 130.782 411.152C130.782 410.586 130.89 410.068 131.104 409.6C131.326 409.124 131.635 408.711 132.032 408.359C132.436 408.008 132.911 407.738 133.458 407.549C134.011 407.354 134.62 407.256 135.284 407.256C136.157 407.256 136.935 407.425 137.618 407.764C138.302 408.096 138.839 408.555 139.229 409.141C139.627 409.727 139.825 410.397 139.825 411.152ZM138.009 411.113C138.009 410.586 137.895 410.12 137.667 409.717C137.439 409.307 137.12 408.988 136.71 408.76C136.3 408.532 135.825 408.418 135.284 408.418C134.731 408.418 134.252 408.532 133.849 408.76C133.451 408.988 133.142 409.307 132.921 409.717C132.7 410.12 132.589 410.586 132.589 411.113C132.589 411.66 132.696 412.129 132.911 412.52C133.132 412.904 133.445 413.2 133.849 413.408C134.259 413.61 134.744 413.711 135.304 413.711C135.864 413.711 136.345 413.61 136.749 413.408C137.153 413.2 137.462 412.904 137.677 412.52C137.898 412.129 138.009 411.66 138.009 411.113ZM139.493 404.482C139.493 405.173 139.311 405.794 138.946 406.348C138.582 406.901 138.084 407.337 137.452 407.656C136.821 407.975 136.104 408.135 135.304 408.135C134.49 408.135 133.764 407.975 133.126 407.656C132.494 407.337 132 406.901 131.642 406.348C131.284 405.794 131.104 405.173 131.104 404.482C131.104 403.656 131.284 402.952 131.642 402.373C132.006 401.794 132.504 401.351 133.136 401.045C133.767 400.739 134.487 400.586 135.294 400.586C136.108 400.586 136.83 400.739 137.462 401.045C138.093 401.351 138.588 401.794 138.946 402.373C139.311 402.952 139.493 403.656 139.493 404.482ZM137.687 404.512C137.687 404.036 137.586 403.617 137.384 403.252C137.182 402.887 136.902 402.601 136.544 402.393C136.186 402.178 135.769 402.07 135.294 402.07C134.819 402.07 134.402 402.171 134.044 402.373C133.692 402.568 133.416 402.848 133.214 403.213C133.019 403.577 132.921 404.01 132.921 404.512C132.921 405 133.019 405.426 133.214 405.791C133.416 406.156 133.696 406.439 134.054 406.641C134.412 406.842 134.828 406.943 135.304 406.943C135.779 406.943 136.192 406.842 136.544 406.641C136.902 406.439 137.182 406.156 137.384 405.791C137.586 405.426 137.687 405 137.687 404.512Z" fill="#171A21"/>
</g>
<g clip-path="url(#clip28_942_2897)">
<path d="M206.712 413.516V415H197.406V413.701L202.064 408.516C202.637 407.878 203.08 407.337 203.392 406.895C203.711 406.445 203.932 406.045 204.056 405.693C204.186 405.335 204.251 404.971 204.251 404.6C204.251 404.131 204.154 403.708 203.958 403.33C203.77 402.946 203.49 402.64 203.119 402.412C202.748 402.184 202.298 402.07 201.771 402.07C201.139 402.07 200.612 402.194 200.189 402.441C199.772 402.682 199.46 403.021 199.251 403.457C199.043 403.893 198.939 404.395 198.939 404.961H197.132C197.132 404.16 197.308 403.428 197.66 402.764C198.011 402.1 198.532 401.572 199.222 401.182C199.912 400.785 200.762 400.586 201.771 400.586C202.669 400.586 203.438 400.745 204.076 401.064C204.714 401.377 205.202 401.82 205.541 402.393C205.886 402.959 206.058 403.623 206.058 404.385C206.058 404.801 205.986 405.225 205.843 405.654C205.707 406.077 205.514 406.501 205.267 406.924C205.026 407.347 204.743 407.764 204.417 408.174C204.098 408.584 203.757 408.988 203.392 409.385L199.583 413.516H206.712ZM210.943 413.486H211.128C212.17 413.486 213.016 413.34 213.667 413.047C214.319 412.754 214.82 412.36 215.171 411.865C215.523 411.37 215.764 410.814 215.894 410.195C216.024 409.57 216.089 408.929 216.089 408.271V406.094C216.089 405.449 216.014 404.876 215.865 404.375C215.722 403.874 215.52 403.454 215.259 403.115C215.005 402.777 214.716 402.52 214.39 402.344C214.065 402.168 213.72 402.08 213.355 402.08C212.938 402.08 212.564 402.165 212.232 402.334C211.906 402.497 211.63 402.728 211.402 403.027C211.181 403.327 211.011 403.678 210.894 404.082C210.777 404.486 210.718 404.925 210.718 405.4C210.718 405.824 210.77 406.234 210.875 406.631C210.979 407.028 211.138 407.386 211.353 407.705C211.568 408.024 211.835 408.278 212.154 408.467C212.479 408.649 212.86 408.74 213.296 408.74C213.7 408.74 214.078 408.662 214.429 408.506C214.787 408.343 215.103 408.125 215.376 407.852C215.656 407.572 215.878 407.256 216.041 406.904C216.21 406.553 216.307 406.185 216.333 405.801H217.193C217.193 406.341 217.085 406.875 216.871 407.402C216.662 407.923 216.369 408.398 215.992 408.828C215.614 409.258 215.171 409.603 214.664 409.863C214.156 410.117 213.602 410.244 213.003 410.244C212.3 410.244 211.692 410.107 211.177 409.834C210.663 409.561 210.24 409.196 209.908 408.74C209.582 408.285 209.338 407.777 209.175 407.217C209.019 406.65 208.941 406.077 208.941 405.498C208.941 404.821 209.035 404.186 209.224 403.594C209.413 403.001 209.693 402.48 210.064 402.031C210.435 401.576 210.894 401.221 211.441 400.967C211.994 400.713 212.632 400.586 213.355 400.586C214.169 400.586 214.862 400.749 215.435 401.074C216.008 401.4 216.473 401.836 216.832 402.383C217.196 402.93 217.463 403.545 217.632 404.229C217.802 404.912 217.886 405.615 217.886 406.338V406.992C217.886 407.728 217.837 408.477 217.74 409.238C217.649 409.993 217.47 410.716 217.203 411.406C216.942 412.096 216.561 412.715 216.06 413.262C215.559 413.802 214.904 414.232 214.097 414.551C213.296 414.863 212.307 415.02 211.128 415.02H210.943V413.486Z" fill="#171A21"/>
</g>
<g clip-path="url(#clip29_942_2897)">
<path d="M278.318 407.002H279.607C280.239 407.002 280.76 406.898 281.17 406.689C281.587 406.475 281.896 406.185 282.098 405.82C282.306 405.449 282.41 405.033 282.41 404.57C282.41 404.023 282.319 403.564 282.137 403.193C281.954 402.822 281.681 402.542 281.316 402.354C280.952 402.165 280.49 402.07 279.93 402.07C279.422 402.07 278.973 402.171 278.582 402.373C278.198 402.568 277.895 402.848 277.674 403.213C277.459 403.577 277.352 404.007 277.352 404.502H275.545C275.545 403.779 275.727 403.122 276.092 402.529C276.456 401.937 276.967 401.465 277.625 401.113C278.289 400.762 279.057 400.586 279.93 400.586C280.789 400.586 281.541 400.739 282.186 401.045C282.83 401.344 283.331 401.794 283.689 402.393C284.048 402.985 284.227 403.724 284.227 404.609C284.227 404.967 284.142 405.352 283.973 405.762C283.81 406.165 283.553 406.543 283.201 406.895C282.856 407.246 282.407 407.536 281.854 407.764C281.3 407.985 280.636 408.096 279.861 408.096H278.318V407.002ZM278.318 408.486V407.402H279.861C280.766 407.402 281.515 407.51 282.107 407.725C282.7 407.939 283.165 408.226 283.504 408.584C283.849 408.942 284.09 409.336 284.227 409.766C284.37 410.189 284.441 410.612 284.441 411.035C284.441 411.699 284.327 412.288 284.1 412.803C283.878 413.317 283.562 413.753 283.152 414.111C282.749 414.469 282.273 414.74 281.727 414.922C281.18 415.104 280.584 415.195 279.939 415.195C279.321 415.195 278.738 415.107 278.191 414.932C277.651 414.756 277.173 414.502 276.756 414.17C276.339 413.831 276.014 413.418 275.779 412.93C275.545 412.435 275.428 411.872 275.428 411.24H277.234C277.234 411.735 277.342 412.168 277.557 412.539C277.778 412.91 278.09 413.2 278.494 413.408C278.904 413.61 279.386 413.711 279.939 413.711C280.493 413.711 280.968 413.617 281.365 413.428C281.769 413.232 282.078 412.939 282.293 412.549C282.514 412.158 282.625 411.667 282.625 411.074C282.625 410.482 282.501 409.997 282.254 409.619C282.007 409.235 281.655 408.952 281.199 408.77C280.75 408.581 280.219 408.486 279.607 408.486H278.318ZM296.357 406.758V408.926C296.357 410.091 296.253 411.074 296.045 411.875C295.837 412.676 295.537 413.32 295.146 413.809C294.756 414.297 294.284 414.652 293.73 414.873C293.184 415.088 292.565 415.195 291.875 415.195C291.328 415.195 290.824 415.127 290.361 414.99C289.899 414.854 289.482 414.635 289.111 414.336C288.747 414.03 288.434 413.633 288.174 413.145C287.913 412.656 287.715 412.064 287.578 411.367C287.441 410.671 287.373 409.857 287.373 408.926V406.758C287.373 405.592 287.477 404.616 287.686 403.828C287.9 403.04 288.203 402.409 288.594 401.934C288.984 401.452 289.453 401.107 290 400.898C290.553 400.69 291.172 400.586 291.855 400.586C292.409 400.586 292.917 400.654 293.379 400.791C293.848 400.921 294.264 401.133 294.629 401.426C294.993 401.712 295.303 402.096 295.557 402.578C295.817 403.053 296.016 403.636 296.152 404.326C296.289 405.016 296.357 405.827 296.357 406.758ZM294.541 409.219V406.455C294.541 405.817 294.502 405.257 294.424 404.775C294.352 404.287 294.245 403.87 294.102 403.525C293.958 403.18 293.776 402.9 293.555 402.686C293.34 402.471 293.089 402.314 292.803 402.217C292.523 402.113 292.207 402.061 291.855 402.061C291.426 402.061 291.045 402.142 290.713 402.305C290.381 402.461 290.101 402.712 289.873 403.057C289.652 403.402 289.482 403.854 289.365 404.414C289.248 404.974 289.189 405.654 289.189 406.455V409.219C289.189 409.857 289.225 410.42 289.297 410.908C289.375 411.396 289.489 411.82 289.639 412.178C289.788 412.529 289.971 412.819 290.186 413.047C290.4 413.275 290.648 413.444 290.928 413.555C291.214 413.659 291.53 413.711 291.875 413.711C292.318 413.711 292.705 413.626 293.037 413.457C293.369 413.288 293.646 413.024 293.867 412.666C294.095 412.301 294.264 411.836 294.375 411.27C294.486 410.697 294.541 410.013 294.541 409.219Z" fill="#171A21"/>
</g>
<g clip-path="url(#clip30_942_2897)">
<path d="M356.604 407.002H357.894C358.525 407.002 359.046 406.898 359.456 406.689C359.873 406.475 360.182 406.185 360.384 405.82C360.592 405.449 360.696 405.033 360.696 404.57C360.696 404.023 360.605 403.564 360.423 403.193C360.241 402.822 359.967 402.542 359.603 402.354C359.238 402.165 358.776 402.07 358.216 402.07C357.708 402.07 357.259 402.171 356.868 402.373C356.484 402.568 356.181 402.848 355.96 403.213C355.745 403.577 355.638 404.007 355.638 404.502H353.831C353.831 403.779 354.013 403.122 354.378 402.529C354.743 401.937 355.254 401.465 355.911 401.113C356.575 400.762 357.343 400.586 358.216 400.586C359.075 400.586 359.827 400.739 360.472 401.045C361.116 401.344 361.618 401.794 361.976 402.393C362.334 402.985 362.513 403.724 362.513 404.609C362.513 404.967 362.428 405.352 362.259 405.762C362.096 406.165 361.839 406.543 361.487 406.895C361.142 407.246 360.693 407.536 360.14 407.764C359.586 407.985 358.922 408.096 358.147 408.096H356.604V407.002ZM356.604 408.486V407.402H358.147C359.052 407.402 359.801 407.51 360.394 407.725C360.986 407.939 361.451 408.226 361.79 408.584C362.135 408.942 362.376 409.336 362.513 409.766C362.656 410.189 362.728 410.612 362.728 411.035C362.728 411.699 362.614 412.288 362.386 412.803C362.164 413.317 361.849 413.753 361.438 414.111C361.035 414.469 360.56 414.74 360.013 414.922C359.466 415.104 358.87 415.195 358.226 415.195C357.607 415.195 357.024 415.107 356.478 414.932C355.937 414.756 355.459 414.502 355.042 414.17C354.625 413.831 354.3 413.418 354.065 412.93C353.831 412.435 353.714 411.872 353.714 411.24H355.521C355.521 411.735 355.628 412.168 355.843 412.539C356.064 412.91 356.377 413.2 356.78 413.408C357.19 413.61 357.672 413.711 358.226 413.711C358.779 413.711 359.254 413.617 359.651 413.428C360.055 413.232 360.364 412.939 360.579 412.549C360.8 412.158 360.911 411.667 360.911 411.074C360.911 410.482 360.787 409.997 360.54 409.619C360.293 409.235 359.941 408.952 359.485 408.77C359.036 408.581 358.506 408.486 357.894 408.486H356.604ZM371.655 400.703V415H369.849V402.959L366.206 404.287V402.656L371.372 400.703H371.655Z" fill="#171A21"/>
</g>
<rect x="0.5" y="0.5" width="571" height="445" rx="7.5" stroke="#5C59BB"/>
<defs>
<clipPath id="clip0_942_2897">
<rect x="187.714" y="196" width="40" height="40" rx="20" fill="white"/>
</clipPath>
<clipPath id="clip1_942_2897">
<rect x="266" y="196" width="40" height="40" rx="20" fill="white"/>
</clipPath>
<clipPath id="clip2_942_2897">
<rect x="344.286" y="196" width="40" height="40" rx="20" fill="white"/>
</clipPath>
<clipPath id="clip3_942_2897">
<rect x="422.572" y="196" width="40" height="40" rx="20" fill="white"/>
</clipPath>
<clipPath id="clip4_942_2897">
<rect x="500.857" y="196" width="40" height="40" rx="20" fill="white"/>
</clipPath>
<clipPath id="clip5_942_2897">
<rect x="31.1431" y="244" width="40" height="40" rx="20" fill="white"/>
</clipPath>
<clipPath id="clip6_942_2897">
<rect x="109.429" y="244" width="40" height="40" rx="20" fill="white"/>
</clipPath>
<clipPath id="clip7_942_2897">
<rect x="187.714" y="244" width="40" height="40" rx="20" fill="white"/>
</clipPath>
<clipPath id="clip8_942_2897">
<rect x="266" y="244" width="40" height="40" rx="20" fill="white"/>
</clipPath>
<clipPath id="clip9_942_2897">
<rect x="344.286" y="244" width="40" height="40" rx="20" fill="white"/>
</clipPath>
<clipPath id="clip10_942_2897">
<rect x="422.572" y="244" width="40" height="40" rx="20" fill="white"/>
</clipPath>
<clipPath id="clip11_942_2897">
<rect x="500.857" y="244" width="40" height="40" rx="20" fill="white"/>
</clipPath>
<clipPath id="clip12_942_2897">
<rect x="31.1431" y="292" width="40" height="40" rx="20" fill="white"/>
</clipPath>
<clipPath id="clip13_942_2897">
<rect x="109.429" y="292" width="40" height="40" rx="20" fill="white"/>
</clipPath>
<clipPath id="clip14_942_2897">
<rect x="187.714" y="292" width="40" height="40" rx="20" fill="white"/>
</clipPath>
<clipPath id="clip15_942_2897">
<rect x="266" y="292" width="40" height="40" rx="20" fill="white"/>
</clipPath>
<clipPath id="clip16_942_2897">
<rect x="344.286" y="292" width="40" height="40" rx="20" fill="white"/>
</clipPath>
<clipPath id="clip17_942_2897">
<rect x="422.572" y="292" width="40" height="40" rx="20" fill="white"/>
</clipPath>
<clipPath id="clip18_942_2897">
<rect x="500.857" y="292" width="40" height="40" rx="20" fill="white"/>
</clipPath>
<clipPath id="clip19_942_2897">
<rect x="31.1431" y="340" width="40" height="40" rx="20" fill="white"/>
</clipPath>
<clipPath id="clip20_942_2897">
<rect x="109.429" y="340" width="40" height="40" rx="20" fill="white"/>
</clipPath>
<clipPath id="clip21_942_2897">
<rect x="187.714" y="340" width="40" height="40" rx="20" fill="white"/>
</clipPath>
<clipPath id="clip22_942_2897">
<rect x="266" y="340" width="40" height="40" rx="20" fill="white"/>
</clipPath>
<clipPath id="clip23_942_2897">
<rect x="344.286" y="340" width="40" height="40" rx="20" fill="white"/>
</clipPath>
<clipPath id="clip24_942_2897">
<rect x="422.572" y="340" width="40" height="40" rx="20" fill="white"/>
</clipPath>
<clipPath id="clip25_942_2897">
<rect x="500.857" y="340" width="40" height="40" rx="20" fill="white"/>
</clipPath>
<clipPath id="clip26_942_2897">
<rect x="31.1431" y="388" width="40" height="40" rx="20" fill="white"/>
</clipPath>
<clipPath id="clip27_942_2897">
<rect x="109.429" y="388" width="40" height="40" rx="20" fill="white"/>
</clipPath>
<clipPath id="clip28_942_2897">
<rect x="187.714" y="388" width="40" height="40" rx="20" fill="white"/>
</clipPath>
<clipPath id="clip29_942_2897">
<rect x="266" y="388" width="40" height="40" rx="20" fill="white"/>
</clipPath>
<clipPath id="clip30_942_2897">
<rect x="344.286" y="388" width="40" height="40" rx="20" fill="white"/>
</clipPath>
</defs>
</svg>
