<svg width="264" height="350" viewBox="0 0 264 350" fill="none" xmlns="http://www.w3.org/2000/svg">
<path d="M229.618 342.165C227.76 344.676 225.457 346.822 222.824 348.496C222.264 348.852 221.689 349.188 221.104 349.499H207.34C207.505 349.168 207.665 348.832 207.82 348.496C212.088 339.467 213.426 329.324 211.647 319.494C209.867 309.663 205.06 300.638 197.901 293.688C206.22 296.264 213.909 301.287 218.939 308.41C221.383 311.879 223.121 315.796 224.054 319.939C224.885 311.654 223.564 303.294 220.219 295.673C226.973 301.182 232.233 308.726 234.238 317.217C236.242 325.714 234.788 335.142 229.618 342.165Z" fill="#5FBE2F"/>
<path d="M115.242 240.725H115.236C115.107 240.724 114.979 240.696 114.862 240.642C114.744 240.587 114.64 240.509 114.555 240.411L109.705 234.828C109.627 234.738 109.566 234.633 109.528 234.519C109.49 234.406 109.474 234.285 109.483 234.166C109.491 234.046 109.522 233.929 109.576 233.821C109.629 233.714 109.703 233.618 109.793 233.539C109.883 233.46 109.988 233.4 110.102 233.362C110.215 233.324 110.335 233.309 110.454 233.317C110.574 233.325 110.69 233.357 110.798 233.411C110.905 233.464 111 233.539 111.079 233.629L115.25 238.431L127.771 224.347C127.85 224.257 127.947 224.185 128.054 224.132C128.162 224.08 128.279 224.05 128.398 224.043C128.517 224.036 128.637 224.053 128.75 224.092C128.863 224.132 128.967 224.193 129.056 224.273C129.145 224.352 129.218 224.449 129.27 224.557C129.322 224.665 129.352 224.782 129.359 224.902C129.366 225.021 129.349 225.141 129.31 225.254C129.271 225.367 129.209 225.472 129.13 225.561L115.921 240.419C115.836 240.515 115.731 240.592 115.614 240.645C115.497 240.697 115.37 240.725 115.242 240.725Z" fill="#4B9625"/>
<path d="M115.353 250.491C111.507 250.491 107.819 248.959 105.1 246.233C102.381 243.507 100.854 239.809 100.854 235.954C100.854 232.099 102.381 228.401 105.1 225.675C107.819 222.949 111.507 221.417 115.353 221.417C115.485 221.417 115.612 221.47 115.706 221.564C115.8 221.658 115.853 221.786 115.853 221.919C115.853 222.051 115.8 222.179 115.706 222.273C115.612 222.367 115.485 222.42 115.353 222.42C112.683 222.42 110.073 223.214 107.853 224.701C105.633 226.188 103.903 228.302 102.881 230.775C101.86 233.248 101.592 235.969 102.113 238.594C102.634 241.22 103.92 243.631 105.807 245.524C107.695 247.417 110.101 248.706 112.719 249.228C115.338 249.75 118.052 249.482 120.518 248.458C122.985 247.434 125.093 245.699 126.576 243.473C128.06 241.247 128.851 238.631 128.851 235.954C128.851 235.821 128.904 235.693 128.998 235.599C129.092 235.505 129.219 235.453 129.351 235.453C129.484 235.453 129.611 235.505 129.705 235.599C129.799 235.693 129.851 235.821 129.851 235.954C129.847 239.808 128.318 243.503 125.6 246.228C122.882 248.953 119.197 250.486 115.353 250.491Z" fill="#3B719F"/>
<path d="M211.995 228.227C211.525 227.66 211.185 226.997 210.998 226.285C210.811 225.572 210.782 224.827 210.913 224.102C211.044 223.377 211.332 222.689 211.757 222.088C212.182 221.487 212.733 220.986 213.372 220.622L210.11 203.01L218.664 206.63L220.45 222.799C220.99 223.915 221.102 225.192 220.766 226.386C220.43 227.58 219.669 228.609 218.627 229.278C217.585 229.947 216.334 230.209 215.112 230.016C213.89 229.822 212.781 229.185 211.995 228.227Z" fill="#9E616A"/>
<path d="M132.7 228.227C133.17 227.66 133.511 226.997 133.698 226.285C133.885 225.572 133.914 224.827 133.782 224.102C133.651 223.377 133.363 222.689 132.938 222.088C132.513 221.487 131.962 220.986 131.323 220.622L134.585 203.01L126.032 206.63L124.246 222.799C123.706 223.915 123.593 225.192 123.929 226.386C124.265 227.58 125.026 228.609 126.068 229.278C127.11 229.947 128.361 230.209 129.583 230.016C130.806 229.822 131.915 229.185 132.7 228.227Z" fill="#9E616A"/>
<path d="M164.526 343.382H158.396L155.481 319.678H164.527L164.526 343.382Z" fill="#9E616A"/>
<path d="M166.089 349.338L146.325 349.337V349.087C146.326 347.041 147.136 345.08 148.579 343.634C150.021 342.187 151.978 341.375 154.018 341.375L166.09 341.375L166.089 349.338Z" fill="#171A21"/>
<path d="M190.024 343.382H183.894L180.979 319.678H190.025L190.024 343.382Z" fill="#9E616A"/>
<path d="M191.587 349.338L171.823 349.337V349.087C171.823 347.041 172.634 345.08 174.077 343.634C175.519 342.187 177.476 341.375 179.516 341.375L191.587 341.375L191.587 349.338Z" fill="#171A21"/>
<path d="M153.558 200.122L145.6 208.911L149.1 274.721L155.099 337.719H166.029L176.097 225.223L180.579 337.719H192.295L206.043 205.496L153.558 200.122Z" fill="#171A21"/>
<path d="M204.095 123.679L182.847 110.395L179.847 102.876H159.983L157.849 109.894L135.851 123.428L144.6 161.775L145.6 208.894C145.6 208.894 179.597 229.446 206.095 206.388L195.346 151.499L204.095 123.679Z" fill="#8F8CE7"/>
<path d="M142.6 124.18L135.851 123.428C135.851 123.428 129.101 128.692 128.101 140.221C127.101 151.75 128.101 173.673 128.101 173.673L124.102 216.413L132.601 216.914L143.6 174.307L144.6 154.546L142.6 124.18Z" fill="#8F8CE7"/>
<path d="M197.096 124.18L203.845 123.428C203.845 123.428 210.595 128.692 211.595 140.221C212.594 151.75 216.594 173.673 216.594 173.673L220.594 216.413L212.095 216.914L201.095 174.307L195.096 154.546L197.096 124.18Z" fill="#8F8CE7"/>
<path d="M182.639 89.0073C186.984 81.0393 184.063 71.049 176.116 66.6933C168.169 62.3376 158.204 65.2659 153.86 73.2339C149.516 81.2019 152.436 91.1922 160.384 95.548C168.331 99.9037 178.295 96.9753 182.639 89.0073Z" fill="#9E616A"/>
<path d="M186.983 81.4373C187.162 80.4211 186.952 79.3747 186.396 78.5067C186.932 77.6439 187.305 76.6897 187.497 75.6915C187.944 72.7007 185.659 71.6051 184.187 69.3464C183.548 68.3664 183.837 67.9792 183.801 66.9379C183.74 65.5317 183.289 64.1706 182.497 63.008C181.588 61.4962 180.617 59.92 179.091 58.9375C175.885 56.8729 171.777 58.2453 168.103 57.3645C166.484 56.9762 164.972 56.1497 163.357 55.7357C161.743 55.3216 159.841 55.429 158.905 56.6132C158.473 57.1598 158.3 57.872 157.867 58.4178C157.006 59.5024 155.371 59.6835 154.041 60.227C151.1 61.4288 149.586 64.6079 149.65 67.7465C149.669 68.4042 149.742 69.0592 149.867 69.7052C149.356 70.9007 149.107 72.1921 149.136 73.4923C149.201 76.6309 150.595 79.7313 152.262 82.5926C152.495 81.6978 152.817 80.829 153.225 79.9996C153.34 79.7111 153.532 79.4596 153.779 79.2724C154.346 78.9087 155.154 79.181 155.871 79.2096C157.354 79.2688 158.534 78.2201 159.232 77.0477C159.93 75.8752 160.314 74.5242 161.115 73.4173C161.28 73.1428 161.505 72.909 161.772 72.733C162.039 72.557 162.343 72.4433 162.66 72.4002C163.216 72.424 163.758 72.5918 164.231 72.8874C166.646 74.1283 169.141 75.4764 171.789 75.6436C172.695 75.621 173.601 75.6985 174.491 75.8748C176.496 76.455 177.688 78.5873 177.949 80.5256C178.21 82.464 177.813 84.3742 177.97 86.3133C178.127 88.2525 179.055 90.424 180.972 91.28C181.174 91.3962 181.413 91.4279 181.638 91.3683C181.786 91.2881 181.902 91.1616 181.971 91.0084L185.562 84.8126C186.244 83.7878 186.727 82.6425 186.983 81.4373Z" fill="#171A21"/>
<path d="M264 349.499C264 349.632 263.947 349.759 263.853 349.853C263.76 349.947 263.633 350 263.5 350H73.0161C72.8835 350 72.7563 349.947 72.6626 349.853C72.5688 349.759 72.5161 349.632 72.5161 349.499C72.5161 349.366 72.5688 349.238 72.6626 349.144C72.7563 349.05 72.8835 348.997 73.0161 348.997H263.5C263.633 348.998 263.76 349.051 263.853 349.145C263.947 349.239 264 349.366 264 349.499Z" fill="#8F8CE7"/>
<path d="M38.8014 5.68781C38.5157 5.68832 38.2419 5.80245 38.0401 6.00516C37.8382 6.20786 37.7249 6.48257 37.7249 6.76899C37.7249 7.0554 37.8382 7.33011 38.0401 7.53282C38.2419 7.73552 38.5157 7.84966 38.8014 7.85017H117.542C117.828 7.84966 118.101 7.73552 118.303 7.53282C118.505 7.33011 118.618 7.0554 118.618 6.76899C118.618 6.48257 118.505 6.20786 118.303 6.00516C118.101 5.80245 117.828 5.68832 117.542 5.68781H38.8014Z" fill="#4B9625"/>
<path d="M38.8014 12.1751C38.5154 12.1744 38.2409 12.2878 38.0382 12.4901C37.8355 12.6924 37.7213 12.9672 37.7207 13.254C37.7201 13.5407 37.8331 13.8159 38.035 14.0191C38.2368 14.2223 38.5109 14.3368 38.7969 14.3374H88.5774C88.7192 14.3377 88.8597 14.3099 88.9907 14.2557C89.1218 14.2014 89.2409 14.1219 89.3413 14.0214C89.4416 13.921 89.5212 13.8017 89.5756 13.6704C89.6299 13.5391 89.6578 13.3984 89.6578 13.2562C89.6578 13.1141 89.6299 12.9733 89.5756 12.842C89.5212 12.7107 89.4416 12.5915 89.3413 12.491C89.2409 12.3906 89.1218 12.311 88.9907 12.2568C88.8597 12.2026 88.7192 12.1748 88.5774 12.1751H38.8014Z" fill="#4B9625"/>
<path d="M38.8014 44.7023C38.5157 44.7028 38.2419 44.817 38.0401 45.0197C37.8382 45.2224 37.7249 45.4971 37.7249 45.7835C37.7249 46.0699 37.8382 46.3446 38.0401 46.5473C38.2419 46.7501 38.5157 46.8642 38.8014 46.8647H117.542C117.828 46.8642 118.101 46.7501 118.303 46.5473C118.505 46.3446 118.618 46.0699 118.618 45.7835C118.618 45.4971 118.505 45.2224 118.303 45.0197C118.101 44.817 117.828 44.7028 117.542 44.7023H38.8014Z" fill="#8F8CE7"/>
<path d="M38.8014 51.1896C38.5154 51.189 38.2409 51.3023 38.0382 51.5046C37.8355 51.707 37.7213 51.9817 37.7207 52.2685C37.7201 52.5552 37.8331 52.8305 38.035 53.0337C38.2368 53.2368 38.5109 53.3513 38.7969 53.3519H88.5774C88.7192 53.3522 88.8597 53.3244 88.9907 53.2702C89.1218 53.216 89.2409 53.1364 89.3413 53.036C89.4416 52.9355 89.5212 52.8163 89.5756 52.685C89.6299 52.5537 89.6578 52.4129 89.6578 52.2708C89.6578 52.1286 89.6299 51.9879 89.5756 51.8566C89.5212 51.7253 89.4416 51.606 89.3413 51.5056C89.2409 51.4051 89.1218 51.3255 88.9907 51.2713C88.8597 51.2171 88.7192 51.1893 88.5774 51.1896H38.8014Z" fill="#8F8CE7"/>
<path d="M38.8014 83.7164C38.5157 83.7169 38.2419 83.8311 38.0401 84.0338C37.8382 84.2365 37.7249 84.5112 37.7249 84.7976C37.7249 85.084 37.8382 85.3587 38.0401 85.5614C38.2419 85.7641 38.5157 85.8783 38.8014 85.8788H117.542C117.828 85.8783 118.101 85.7641 118.303 85.5614C118.505 85.3587 118.618 85.084 118.618 84.7976C118.618 84.5112 118.505 84.2365 118.303 84.0338C118.101 83.8311 117.828 83.7169 117.542 83.7164H38.8014Z" fill="#8F8CE7"/>
<path d="M38.8014 90.2042C38.5154 90.2036 38.2409 90.3169 38.0382 90.5193C37.8355 90.7216 37.7213 90.9964 37.7207 91.2831C37.7201 91.5699 37.8331 91.8451 38.035 92.0483C38.2368 92.2515 38.5109 92.366 38.7969 92.3666H88.5774C88.7192 92.3668 88.8597 92.3391 88.9907 92.2848C89.1218 92.2306 89.2409 92.151 89.3413 92.0506C89.4416 91.9502 89.5212 91.8309 89.5756 91.6996C89.6299 91.5683 89.6578 91.4276 89.6578 91.2854C89.6578 91.1433 89.6299 91.0025 89.5756 90.8712C89.5212 90.7399 89.4416 90.6206 89.3413 90.5202C89.2409 90.4198 89.1218 90.3402 88.9907 90.286C88.8597 90.2318 88.7192 90.204 88.5774 90.2042H38.8014Z" fill="#8F8CE7"/>
<path d="M9.91025 13.2984H9.90655C9.81753 13.2979 9.72964 13.2784 9.64873 13.2411C9.56783 13.2039 9.49577 13.1498 9.43734 13.0825L6.09713 9.23721C6.04286 9.17497 6.00136 9.10262 5.97502 9.02429C5.94867 8.94595 5.93799 8.86318 5.94358 8.7807C5.94918 8.69823 5.97094 8.61766 6.00763 8.54363C6.04431 8.4696 6.0952 8.40354 6.15737 8.34925C6.21955 8.29495 6.29179 8.25349 6.36997 8.22722C6.44815 8.20095 6.53073 8.19039 6.61298 8.19616C6.69523 8.20192 6.77554 8.22389 6.84931 8.26081C6.92308 8.29773 6.98887 8.34887 7.0429 8.41131L9.91575 11.7186L18.5401 2.01772C18.5949 1.95592 18.6612 1.90554 18.7354 1.86948C18.8095 1.83341 18.8901 1.81236 18.9724 1.80753C19.0546 1.8027 19.1371 1.81419 19.2149 1.84134C19.2928 1.86849 19.3645 1.91077 19.4261 1.96575C19.4876 2.02073 19.5377 2.08734 19.5736 2.16176C19.6094 2.23618 19.6302 2.31696 19.6349 2.39947C19.6396 2.48198 19.6279 2.56461 19.6007 2.64261C19.5735 2.72062 19.5312 2.79247 19.4763 2.85407L10.3783 13.088C10.3195 13.1542 10.2474 13.2071 10.1667 13.2434C10.086 13.2797 9.99864 13.2984 9.91025 13.2984Z" fill="#4B9625"/>
<path d="M9.9865 20.0252C7.33791 20.0252 4.79781 18.9703 2.92498 17.0926C1.05215 15.2149 0 12.6681 0 10.0126C0 7.3571 1.05215 4.81036 2.92498 2.93263C4.79781 1.0549 7.33791 0 9.9865 0C10.0778 0 10.1654 0.0363755 10.23 0.101125C10.2946 0.165874 10.3309 0.253693 10.3309 0.345262C10.3309 0.436832 10.2946 0.524651 10.23 0.5894C10.1654 0.654149 10.0778 0.690525 9.9865 0.690525C8.14758 0.690558 6.34997 1.23732 4.82098 2.26166C3.29199 3.286 2.1003 4.74193 1.3966 6.44532C0.692894 8.14871 0.508787 10.0231 0.867562 11.8314C1.22634 13.6397 2.11188 15.3007 3.4122 16.6044C4.71253 17.9081 6.36923 18.7959 8.17282 19.1556C9.9764 19.5153 11.8459 19.3306 13.5448 18.6251C15.2437 17.9195 16.6958 16.7247 17.7175 15.1917C18.7391 13.6587 19.2844 11.8563 19.2844 10.0126C19.2844 9.92104 19.3207 9.83322 19.3853 9.76847C19.4499 9.70372 19.5375 9.66735 19.6288 9.66735C19.7201 9.66735 19.8077 9.70372 19.8723 9.76847C19.9369 9.83322 19.9732 9.92104 19.9732 10.0126C19.9701 12.6672 18.917 15.2122 17.0448 17.0893C15.1726 18.9664 12.6342 20.0222 9.9865 20.0252Z" fill="#3B719F"/>
<path d="M119.204 28.9386H0.399414V29.6291H119.204V28.9386Z" fill="#8F8CE7"/>
<path d="M119.204 67.6085H0.399414V68.2989H119.204V67.6085Z" fill="#8F8CE7"/>
<path d="M119.204 106.277H0.399414V106.968H119.204V106.277Z" fill="#8F8CE7"/>
</svg>
