<svg width="653" height="434" viewBox="0 0 653 434" fill="none" xmlns="http://www.w3.org/2000/svg">
<path d="M234.231 249.771C256.61 210.401 299.297 180.172 344.485 183.084C311.153 219.335 291.716 266.207 289.614 315.41C288.872 334.388 290.023 355.573 277.423 369.784C269.583 378.626 257.6 382.909 245.818 383.807C234.035 384.705 222.255 382.576 210.629 380.456L207.809 381.322C206.736 336.049 211.853 289.14 234.231 249.771Z" fill="#D8DCD6"/>
<path d="M344.552 184.032C311.136 200.12 282.643 226.988 265.152 259.757C261.37 266.841 258.151 274.357 256.746 282.303C255.341 290.253 256.323 297.821 259.038 305.372C261.52 312.275 264.858 319.048 265.62 326.434C266.422 334.22 263.557 341.499 258.401 347.277C252.093 354.346 243.621 358.726 235.187 362.722C225.823 367.158 216.026 371.618 209.394 379.898C208.59 380.901 207.081 379.595 207.883 378.594C219.422 364.188 239.175 361.48 252.872 349.875C259.264 344.461 264.062 337.087 263.759 328.446C263.494 320.891 260.058 313.903 257.484 306.935C254.782 299.619 253.434 292.263 254.403 284.463C255.394 276.483 258.327 268.826 261.911 261.676C269.993 245.551 281.054 230.747 293.726 217.95C308.288 203.24 325.26 191.13 343.906 182.144C345.06 181.588 345.699 183.48 344.552 184.032Z" fill="white"/>
<path d="M270.276 248.805C265.153 245.059 261.528 239.614 260.049 233.442C258.57 227.27 259.333 220.774 262.202 215.112C262.786 213.969 264.591 214.823 264.006 215.968C261.325 221.235 260.614 227.287 262.003 233.031C263.392 238.776 266.789 243.835 271.58 247.295C272.62 248.048 271.31 249.554 270.276 248.805Z" fill="white"/>
<path d="M257.318 302.038C270.155 300.162 281.813 293.516 289.968 283.426C290.775 282.426 292.285 283.731 291.478 284.73C282.973 295.215 270.827 302.106 257.465 304.028C256.191 304.21 256.052 302.219 257.318 302.038Z" fill="white"/>
<path d="M309.274 205.696C310.954 207.559 313.071 208.975 315.433 209.817C317.796 210.659 320.331 210.902 322.81 210.522C324.081 210.324 324.219 212.316 322.956 212.513C320.215 212.919 317.416 212.648 314.804 211.723C312.191 210.798 309.845 209.248 307.97 207.207C307.777 207.029 307.659 206.785 307.64 206.524C307.621 206.262 307.702 206.003 307.867 205.799C308.041 205.6 308.286 205.478 308.549 205.458C308.813 205.439 309.073 205.524 309.274 205.696Z" fill="white"/>
<path d="M434.396 307.28C433.606 307.427 432.816 307.573 432.019 307.735C421.408 309.759 410.979 312.642 400.836 316.356C400.047 316.63 399.251 316.92 398.472 317.217C374.129 326.424 351.706 340.07 332.345 357.463C324.646 364.391 317.486 371.895 310.926 379.909C301.868 390.978 292.926 403.7 281.089 410.917C279.862 411.684 278.589 412.374 277.277 412.983L209.084 384.695C208.962 384.553 208.832 384.427 208.708 384.284L205.934 383.279C206.243 382.842 206.574 382.396 206.883 381.959C207.062 381.704 207.255 381.457 207.434 381.202C207.557 381.035 207.682 380.868 207.784 380.709C207.825 380.653 207.867 380.598 207.901 380.557C208.004 380.399 208.115 380.263 208.211 380.121C210.051 377.619 211.911 375.127 213.792 372.643C213.799 372.627 213.799 372.627 213.82 372.618C228.202 353.727 244.288 335.871 262.572 321.024C263.122 320.578 263.678 320.115 264.259 319.682C272.538 313.035 281.346 307.077 290.595 301.865C295.669 299.028 300.884 296.449 306.218 294.139C320.013 288.197 334.657 284.462 349.613 283.071C379.428 280.302 409.796 287.1 432.663 305.832C433.247 306.312 433.818 306.785 434.396 307.28Z" fill="#D8DCD6"/>
<path d="M433.883 308.082C397.517 300.807 358.592 305.104 324.899 320.735C317.615 324.115 310.52 328.177 304.614 333.676C298.706 339.178 294.934 345.811 292.556 353.475C290.382 360.481 288.97 367.9 285.131 374.256C281.085 380.955 274.415 385.043 266.82 386.551C257.528 388.397 248.126 386.793 238.987 384.905C228.84 382.809 218.333 380.471 208.052 383.089C206.807 383.406 206.387 381.454 207.631 381.138C225.517 376.583 242.919 386.315 260.841 385.296C269.204 384.821 277.475 381.823 282.435 374.742C286.772 368.55 288.235 360.901 290.374 353.788C292.621 346.319 295.974 339.634 301.443 333.99C307.039 328.216 313.99 323.868 321.156 320.317C337.317 312.308 355.061 307.148 372.882 304.56C393.365 301.584 414.207 302.133 434.504 306.185C435.761 306.437 435.131 308.332 433.883 308.082Z" fill="white"/>
<path d="M335.583 315.076C333.748 309.001 334.132 302.471 336.667 296.652C339.202 290.834 343.722 286.106 349.421 283.313C350.575 282.752 351.502 284.521 350.345 285.083C345.034 287.674 340.824 292.078 338.474 297.501C336.125 302.924 335.791 309.008 337.534 314.655C337.911 315.883 335.958 316.297 335.583 315.076Z" fill="white"/>
<path d="M293.191 349.778C304.569 356.009 317.878 357.723 330.464 354.576C331.71 354.264 332.13 356.215 330.885 356.527C317.782 359.777 303.935 357.966 292.109 351.455C290.982 350.834 292.07 349.16 293.191 349.778Z" fill="white"/>
<path d="M392.674 304.138C392.894 306.637 393.731 309.042 395.11 311.137C396.49 313.232 398.368 314.952 400.576 316.141C401.71 316.748 400.621 318.422 399.494 317.819C397.061 316.493 394.989 314.591 393.46 312.28C391.931 309.968 390.991 307.318 390.723 304.559C390.676 304.301 390.729 304.035 390.871 303.815C391.013 303.595 391.233 303.437 391.488 303.373C391.746 303.319 392.016 303.368 392.238 303.512C392.46 303.655 392.617 303.88 392.674 304.138Z" fill="white"/>
<path d="M304.492 353.95C294.942 307.769 283.004 292.372 283.004 292.372L278.444 288.835L272.959 284.575L272.986 284.027L271.685 283.585L271.38 283.347L270.879 282.963L270.798 283.049L270.628 283.225L245.811 274.789L214.325 264.093L199.745 245.141C197.371 242.054 194.314 239.559 190.814 237.852C187.314 236.145 183.466 235.271 179.572 235.3L133.009 235.645C126.713 235.691 120.662 238.091 116.046 242.373L85.4412 270.764L37.7524 293.542L37.6719 293.462L37.1712 293.819L29.8028 297.343L30.1069 298.926L25.5463 302.217C25.5463 302.217 13.6085 316.543 4.05823 359.514C1.62874 370.448 0.432862 393.902 0.00121302 422.804C-0.0204687 424.266 0.2487 425.718 0.79306 427.075C1.33742 428.432 2.14612 429.668 3.17212 430.709C4.19813 431.751 5.42098 432.579 6.76958 433.143C8.11817 433.708 9.56559 433.999 11.0277 434H265.743L297.535 434C298.996 433.999 300.442 433.708 301.79 433.144C303.137 432.58 304.36 431.753 305.385 430.713C306.411 429.673 307.22 428.439 307.765 427.083C308.311 425.727 308.581 424.277 308.561 422.816C308.14 391.366 306.944 365.807 304.492 353.95Z" fill="#4B9625"/>
<path d="M337.174 40.2734C327.264 40.2734 317.76 44.2105 310.752 51.2184C303.745 58.2264 299.808 67.7312 299.808 77.6419C299.808 87.5526 303.745 97.0575 310.752 104.065C317.76 111.073 327.264 115.01 337.174 115.01H615.635C625.545 115.01 635.049 111.073 642.056 104.065C649.063 97.0575 653 87.5526 653 77.6419C653 67.7312 649.063 58.2264 642.056 51.2184C635.049 44.2105 625.545 40.2734 615.635 40.2734H337.174Z" fill="#D8DCD6"/>
<path d="M337.174 47.8362C329.269 47.8362 321.689 50.9764 316.1 56.5661C310.51 62.1558 307.37 69.737 307.37 77.642C307.37 85.547 310.51 93.1282 316.1 98.7179C321.689 104.308 329.269 107.448 337.174 107.448H615.635C623.539 107.448 631.12 104.308 636.709 98.7179C642.298 93.1282 645.438 85.547 645.438 77.642C645.438 69.737 642.298 62.1558 636.709 56.5661C631.12 50.9764 623.539 47.8362 615.635 47.8362H337.174Z" fill="white"/>
<path d="M163.603 234.806C197.293 234.806 224.605 207.492 224.605 173.798C224.605 140.105 197.293 112.791 163.603 112.791C129.912 112.791 102.601 140.105 102.601 173.798C102.601 207.492 129.912 234.806 163.603 234.806Z" fill="#9E616A"/>
<path d="M147.997 214.819C147.737 214.245 147.477 213.669 147.218 213.091C147.318 213.094 147.417 213.109 147.516 213.111L147.997 214.819Z" fill="#171A21"/>
<path d="M100.904 115.566C103.99 113.104 107.596 110.839 111.54 110.967C115.485 111.094 119.485 114.657 118.668 118.518C125.913 105.689 137.446 95.8208 151.242 90.6474C165.037 85.474 180.214 85.3255 194.108 90.228C203.912 93.6872 213.527 100.608 215.779 110.758C216.357 113.364 216.481 116.221 218.108 118.337C220.159 121.004 224.084 121.608 227.315 120.669C227.347 120.66 227.38 120.65 227.412 120.641C227.958 120.454 228.547 120.436 229.103 120.588C229.66 120.74 230.158 121.056 230.533 121.494C230.908 121.933 231.143 122.473 231.207 123.047C231.272 123.62 231.163 124.199 230.894 124.71L228.12 129.884C231.617 130.663 235.251 130.586 238.711 129.659C239.286 129.508 239.894 129.539 240.45 129.747C241.007 129.955 241.486 130.33 241.821 130.821C242.156 131.312 242.331 131.895 242.321 132.489C242.312 133.083 242.119 133.66 241.769 134.141C232.622 146.7 217.34 154.81 201.746 154.715C190.662 154.647 179.464 150.827 168.677 153.376C164.504 154.362 160.604 156.27 157.265 158.96C153.925 161.65 151.23 165.053 149.377 168.921C147.525 172.788 146.561 177.021 146.557 181.31C146.554 185.598 147.51 189.833 149.357 193.703C146.043 190.078 139.637 190.937 136.247 194.491C132.857 198.045 131.98 203.35 132.322 208.249C132.844 215.743 135.78 222.805 138.875 229.678C112.925 228.861 88.3811 210.656 80.1195 186.033C71.8233 161.308 80.518 131.83 100.904 115.566Z" fill="#171A21"/>
<path opacity="0.2" d="M60.042 340.007L77.1517 433.106L87.418 434L60.042 340.007Z" fill="#171A21"/>
<path opacity="0.2" d="M248.509 332.986L231.399 433.039L221.133 434L248.509 332.986Z" fill="#171A21"/>
<path d="M115.497 84.2336C112.217 85.6035 108.794 84.1022 107.358 80.6639C105.901 77.173 107.262 73.6293 110.595 72.2374C113.929 70.8454 117.291 72.3504 118.772 75.8976C120.231 79.3915 118.884 82.8193 115.497 84.2336ZM109.213 65.3663L106.605 66.4556C105.953 66.7245 105.224 66.739 104.563 66.4962C103.901 66.2535 103.354 65.7711 103.031 65.1447L102.902 64.8923C100.095 59.8302 99.7741 53.678 101.952 46.6161C103.97 40.2813 104.808 35.826 103.122 31.7898C101.174 27.1231 97.0131 25.6613 91.7073 27.7789C89.6494 28.6383 88.9946 28.6246 87.3752 30.2312C87.0229 30.5849 86.603 30.8641 86.1405 31.0521C85.6781 31.24 85.1825 31.3329 84.6833 31.3252C84.2008 31.3195 83.7244 31.2167 83.2824 31.0229C82.8405 30.8291 82.4421 30.5483 82.111 30.1972C81.4732 29.5206 81.1158 28.6271 81.1111 27.6973C81.1064 26.7674 81.4548 25.8703 82.0857 25.1873C84.8077 22.3377 88.0908 20.0833 91.7278 18.5663C103.128 13.8057 108.867 20.8341 111.493 27.1238C114.061 33.2759 112.616 38.984 110.295 46.3765C108.349 52.5193 108.463 57.071 110.673 61.5968C110.832 61.9389 110.921 62.3098 110.934 62.6871C110.946 63.0645 110.882 63.4405 110.746 63.7925C110.61 64.1446 110.404 64.4655 110.14 64.7359C109.877 65.0064 109.562 65.2208 109.213 65.3663Z" fill="#8F8CE7"/>
<path d="M398.682 95.4641H343.279C343.103 95.4653 342.928 95.4317 342.765 95.3652C342.602 95.2986 342.454 95.2005 342.329 95.0765C342.204 94.9524 342.105 94.8049 342.038 94.6424C341.97 94.4799 341.935 94.3056 341.935 94.1295C341.935 93.9535 341.97 93.7792 342.038 93.6167C342.105 93.4542 342.204 93.3067 342.329 93.1826C342.454 93.0586 342.602 92.9605 342.765 92.8939C342.928 92.8274 343.103 92.7938 343.279 92.795H398.682C399.034 92.7974 399.371 92.939 399.62 93.189C399.868 93.439 400.007 93.7771 400.007 94.1295C400.007 94.4819 399.868 94.82 399.62 95.07C399.371 95.3201 399.034 95.4617 398.682 95.4641Z" fill="#8F8CE7"/>
<path d="M468.965 95.909H413.561C413.385 95.9102 413.211 95.8765 413.048 95.81C412.885 95.7435 412.737 95.6453 412.612 95.5213C412.487 95.3972 412.388 95.2497 412.32 95.0872C412.252 94.9247 412.218 94.7504 412.218 94.5744C412.218 94.3983 412.252 94.224 412.32 94.0615C412.388 93.899 412.487 93.7515 412.612 93.6274C412.737 93.5034 412.885 93.4053 413.048 93.3388C413.211 93.2722 413.385 93.2386 413.561 93.2398H468.965C469.141 93.2386 469.315 93.2722 469.478 93.3388C469.641 93.4053 469.789 93.5034 469.914 93.6274C470.039 93.7515 470.138 93.899 470.206 94.0615C470.273 94.224 470.308 94.3983 470.308 94.5744C470.308 94.7504 470.273 94.9247 470.206 95.0872C470.138 95.2497 470.039 95.3972 469.914 95.5213C469.789 95.6453 469.641 95.7435 469.478 95.81C469.315 95.8765 469.141 95.9102 468.965 95.909Z" fill="#8F8CE7"/>
<path d="M539.247 96.354H483.844C483.491 96.3516 483.154 96.21 482.906 95.9599C482.658 95.7099 482.518 95.3718 482.518 95.0194C482.518 94.667 482.658 94.3289 482.906 94.0789C483.154 93.8289 483.491 93.6872 483.844 93.6848H539.247C539.423 93.6836 539.598 93.7173 539.761 93.7838C539.924 93.8504 540.072 93.9485 540.197 94.0725C540.322 94.1966 540.421 94.3441 540.488 94.5066C540.556 94.6691 540.591 94.8434 540.591 95.0194C540.591 95.1955 540.556 95.3698 540.488 95.5323C540.421 95.6948 540.322 95.8423 540.197 95.9664C540.072 96.0904 539.924 96.1885 539.761 96.255C539.598 96.3216 539.423 96.3552 539.247 96.354Z" fill="#8F8CE7"/>
<path d="M609.53 96.7988H554.126C553.774 96.7964 553.437 96.6547 553.188 96.4047C552.94 96.1547 552.801 95.8166 552.801 95.4642C552.801 95.1118 552.94 94.7737 553.188 94.5237C553.437 94.2737 553.774 94.132 554.126 94.1296H609.53C609.882 94.132 610.219 94.2737 610.467 94.5237C610.716 94.7737 610.855 95.1118 610.855 95.4642C610.855 95.8166 610.716 96.1547 610.467 96.4047C610.219 96.6547 609.882 96.7964 609.53 96.7988Z" fill="#8F8CE7"/>
<path d="M370.858 83.1819C376.545 83.1819 381.156 78.5713 381.156 72.8839C381.156 67.1965 376.545 62.5859 370.858 62.5859C365.171 62.5859 360.561 67.1965 360.561 72.8839C360.561 78.5713 365.171 83.1819 370.858 83.1819Z" fill="#8F8CE7"/>
<path d="M441.565 83.1819C447.252 83.1819 451.863 78.5713 451.863 72.8839C451.863 67.1965 447.252 62.5859 441.565 62.5859C435.878 62.5859 431.268 67.1965 431.268 72.8839C431.268 78.5713 435.878 83.1819 441.565 83.1819Z" fill="#8F8CE7"/>
<path d="M512.272 83.1819C517.959 83.1819 522.57 78.5713 522.57 72.8839C522.57 67.1965 517.959 62.5859 512.272 62.5859C506.586 62.5859 501.975 67.1965 501.975 72.8839C501.975 78.5713 506.586 83.1819 512.272 83.1819Z" fill="#8F8CE7"/>
<path d="M582.98 83.1819C588.666 83.1819 593.277 78.5713 593.277 72.8839C593.277 67.1965 588.666 62.5859 582.98 62.5859C577.293 62.5859 572.682 67.1965 572.682 72.8839C572.682 78.5713 577.293 83.1819 582.98 83.1819Z" fill="#8F8CE7"/>
</svg>
