<svg width="438" height="364" viewBox="0 0 438 364" fill="none" xmlns="http://www.w3.org/2000/svg">
<g clip-path="url(#clip0_565_5005)">
<path d="M397.694 354.839C395.516 357.774 392.816 360.284 389.73 362.242C389.073 362.658 388.399 363.05 387.713 363.414H371.578C371.772 363.027 371.959 362.634 372.141 362.242C377.144 351.684 378.713 339.824 376.627 328.329C374.541 316.834 368.906 306.282 360.513 298.155C370.265 301.168 379.279 307.041 385.176 315.37C388.041 319.426 390.078 324.006 391.171 328.85C392.146 319.163 390.597 309.388 386.676 300.476C394.594 306.918 400.76 315.739 403.11 325.668C405.46 335.602 403.755 346.627 397.694 354.839Z" fill="#5FBE2F"/>
<path d="M66.0388 9.65503C65.5525 9.6559 65.0865 9.84967 64.743 10.1938C64.3995 10.538 64.2065 11.0044 64.2065 11.4906C64.2065 11.9769 64.3995 12.4433 64.743 12.7874C65.0865 13.1316 65.5525 13.3253 66.0388 13.3262H200.053C200.539 13.3253 201.005 13.1316 201.349 12.7874C201.692 12.4433 201.885 11.9769 201.885 11.4906C201.885 11.0044 201.692 10.538 201.349 10.1938C201.005 9.84967 200.539 9.6559 200.053 9.65503H66.0388Z" fill="#4B9625"/>
<path d="M66.0386 20.6685C65.5518 20.6674 65.0845 20.8598 64.7396 21.2034C64.3946 21.5469 64.2002 22.0134 64.1992 22.5002C64.1982 22.987 64.3906 23.4543 64.7341 23.7993C65.0776 24.1442 65.544 24.3386 66.0309 24.3396H150.756C150.997 24.3401 151.236 24.2929 151.459 24.2009C151.682 24.1088 151.885 23.9737 152.056 23.8032C152.227 23.6327 152.362 23.4302 152.455 23.2073C152.547 22.9844 152.595 22.7454 152.595 22.5041C152.595 22.2627 152.547 22.0238 152.455 21.8008C152.362 21.5779 152.227 21.3754 152.056 21.2049C151.885 21.0344 151.682 20.8993 151.459 20.8072C151.236 20.7152 150.997 20.668 150.756 20.6685H66.0386Z" fill="#4B9625"/>
<path d="M66.0388 75.8865C65.5525 75.8873 65.0865 76.0811 64.743 76.4253C64.3995 76.7694 64.2065 77.2358 64.2065 77.7221C64.2065 78.2083 64.3995 78.6747 64.743 79.0189C65.0865 79.363 65.5525 79.5568 66.0388 79.5577H200.053C200.539 79.5568 201.005 79.363 201.349 79.0189C201.692 78.6747 201.885 78.2083 201.885 77.7221C201.885 77.2358 201.692 76.7694 201.349 76.4253C201.005 76.0811 200.539 75.8873 200.053 75.8865H66.0388Z" fill="#8F8CE7"/>
<path d="M66.0386 86.8999C65.5518 86.8989 65.0845 87.0913 64.7396 87.4348C64.3946 87.7783 64.2002 88.2448 64.1992 88.7316C64.1982 89.2185 64.3906 89.6858 64.7341 90.0307C65.0776 90.3757 65.544 90.5701 66.0309 90.5711H150.756C150.997 90.5715 151.236 90.5244 151.459 90.4323C151.682 90.3403 151.885 90.2051 152.056 90.0346C152.227 89.8641 152.362 89.6616 152.455 89.4387C152.547 89.2158 152.595 88.9768 152.595 88.7355C152.595 88.4942 152.547 88.2552 152.455 88.0323C152.362 87.8094 152.227 87.6069 152.056 87.4364C151.885 87.2659 151.682 87.1307 151.459 87.0387C151.236 86.9466 150.997 86.8995 150.756 86.8999H66.0386Z" fill="#8F8CE7"/>
<path d="M66.0388 142.118C65.5525 142.119 65.0865 142.313 64.743 142.657C64.3995 143.001 64.2065 143.467 64.2065 143.954C64.2065 144.44 64.3995 144.906 64.743 145.25C65.0865 145.594 65.5525 145.788 66.0388 145.789H200.053C200.539 145.788 201.005 145.594 201.349 145.25C201.692 144.906 201.885 144.44 201.885 143.954C201.885 143.467 201.692 143.001 201.349 142.657C201.005 142.313 200.539 142.119 200.053 142.118H66.0388Z" fill="#8F8CE7"/>
<path d="M66.0386 153.131C65.5518 153.13 65.0845 153.323 64.7396 153.666C64.3946 154.01 64.2002 154.476 64.1992 154.963C64.1982 155.45 64.3906 155.917 64.7341 156.262C65.0776 156.607 65.544 156.802 66.0309 156.803H150.756C150.997 156.803 151.236 156.756 151.459 156.664C151.682 156.572 151.885 156.437 152.056 156.266C152.227 156.096 152.362 155.893 152.455 155.67C152.547 155.447 152.595 155.208 152.595 154.967C152.595 154.726 152.547 154.487 152.455 154.264C152.362 154.041 152.227 153.838 152.056 153.668C151.885 153.497 151.682 153.362 151.459 153.27C151.236 153.178 150.997 153.131 150.756 153.131H66.0386Z" fill="#8F8CE7"/>
<path d="M16.8669 22.5757H16.8606C16.7091 22.5748 16.5595 22.5417 16.4218 22.4785C16.2841 22.4152 16.1615 22.3234 16.062 22.2091L10.3771 15.6814C10.2847 15.5757 10.2141 15.4529 10.1692 15.3199C10.1244 15.1869 10.1062 15.0464 10.1157 14.9064C10.1253 14.7664 10.1623 14.6296 10.2247 14.5039C10.2872 14.3783 10.3738 14.2661 10.4796 14.174C10.5854 14.0818 10.7084 14.0114 10.8414 13.9668C10.9745 13.9222 11.115 13.9043 11.255 13.9141C11.395 13.9239 11.5317 13.9612 11.6573 14.0238C11.7828 14.0865 11.8948 14.1733 11.9868 14.2793L16.8763 19.8938L31.5547 3.42553C31.6479 3.32062 31.7608 3.2351 31.887 3.17387C32.0132 3.11265 32.1503 3.07691 32.2903 3.06872C32.4304 3.06052 32.5707 3.08003 32.7032 3.12612C32.8357 3.1722 32.9578 3.24397 33.0625 3.33731C33.1673 3.43064 33.2526 3.54371 33.3136 3.67006C33.3746 3.7964 33.41 3.93353 33.418 4.0736C33.4259 4.21366 33.4061 4.35393 33.3598 4.48635C33.3135 4.61878 33.2415 4.74076 33.148 4.84533L17.6635 22.2185C17.5634 22.3309 17.4406 22.4208 17.3034 22.4823C17.1661 22.5439 17.0173 22.5757 16.8669 22.5757Z" fill="#4B9625"/>
<path d="M16.9967 33.9949C12.4889 33.9949 8.16574 32.2041 4.97823 29.0165C1.79073 25.8288 0 21.5055 0 16.9974C0 12.4894 1.79073 8.16608 4.97823 4.97844C8.16574 1.7908 12.4889 0 16.9967 0C17.1522 0 17.3013 0.0617512 17.4112 0.17167C17.5211 0.281588 17.5828 0.430671 17.5828 0.586119C17.5828 0.741567 17.5211 0.890649 17.4112 1.00057C17.3013 1.11049 17.1522 1.17224 16.9967 1.17224C13.8669 1.17229 10.8075 2.10047 8.20517 3.8394C5.60287 5.57833 3.57464 8.04991 2.37697 10.9416C1.17929 13.8333 0.865941 17.0152 1.47657 20.085C2.08719 23.1547 3.59436 25.9745 5.80747 28.1877C8.02059 30.4008 10.8402 31.908 13.9099 32.5186C16.9796 33.1292 20.1613 32.8158 23.0529 31.618C25.9444 30.4202 28.4158 28.3919 30.1547 25.7894C31.8935 23.187 32.8216 20.1274 32.8216 16.9974C32.8216 16.842 32.8833 16.6929 32.9932 16.583C33.1031 16.4731 33.2522 16.4113 33.4077 16.4113C33.5631 16.4113 33.7122 16.4731 33.8221 16.583C33.932 16.6929 33.9938 16.842 33.9938 16.9974C33.9886 21.5039 32.1962 25.8243 29.0097 29.0109C25.8233 32.1974 21.503 33.9898 16.9967 33.9949Z" fill="#3B719F"/>
<path d="M263.612 236.226H263.606C263.455 236.225 263.305 236.192 263.167 236.129C263.03 236.066 262.907 235.974 262.808 235.859L257.123 229.332C257.03 229.226 256.96 229.103 256.915 228.97C256.87 228.837 256.852 228.697 256.861 228.557C256.871 228.417 256.908 228.28 256.97 228.154C257.033 228.029 257.119 227.916 257.225 227.824C257.331 227.732 257.454 227.662 257.587 227.617C257.72 227.573 257.861 227.555 258.001 227.564C258.141 227.574 258.277 227.612 258.403 227.674C258.528 227.737 258.64 227.824 258.732 227.93L263.622 233.544L278.3 217.076C278.394 216.971 278.506 216.886 278.633 216.825C278.759 216.764 278.896 216.729 279.036 216.721C279.175 216.712 279.316 216.732 279.448 216.778C279.58 216.824 279.702 216.896 279.807 216.989C279.911 217.082 279.997 217.195 280.058 217.321C280.119 217.448 280.154 217.585 280.162 217.724C280.17 217.864 280.151 218.004 280.105 218.137C280.058 218.269 279.987 218.391 279.894 218.496L264.409 235.869C264.309 235.981 264.186 236.071 264.049 236.133C263.912 236.194 263.763 236.226 263.612 236.226Z" fill="#4B9625"/>
<path d="M263.742 247.645C259.235 247.645 254.911 245.854 251.724 242.667C248.536 239.479 246.746 235.156 246.746 230.648C246.746 226.14 248.536 221.816 251.724 218.629C254.911 215.441 259.235 213.65 263.742 213.65C263.898 213.65 264.047 213.712 264.157 213.822C264.267 213.932 264.328 214.081 264.328 214.237C264.328 214.392 264.267 214.541 264.157 214.651C264.047 214.761 263.898 214.823 263.742 214.823C260.613 214.823 257.553 215.751 254.951 217.49C252.348 219.229 250.32 221.7 249.122 224.592C247.925 227.483 247.611 230.665 248.222 233.735C248.832 236.805 250.34 239.625 252.553 241.838C254.766 244.051 257.585 245.558 260.655 246.169C263.725 246.78 266.907 246.466 269.798 245.268C272.69 244.071 275.161 242.042 276.9 239.44C278.639 236.837 279.567 233.778 279.567 230.648C279.567 230.492 279.629 230.343 279.739 230.233C279.848 230.123 279.998 230.062 280.153 230.062C280.308 230.062 280.457 230.123 280.567 230.233C280.677 230.343 280.739 230.492 280.739 230.648C280.734 235.154 278.942 239.475 275.755 242.661C272.569 245.848 268.249 247.64 263.742 247.645Z" fill="#3B719F"/>
<path d="M377.035 221.613C376.484 220.951 376.085 220.176 375.866 219.342C375.647 218.509 375.613 217.638 375.766 216.79C375.92 215.942 376.258 215.139 376.756 214.436C377.254 213.732 377.901 213.147 378.649 212.721L374.826 192.128L384.853 196.36L386.946 215.267C387.579 216.572 387.711 218.064 387.317 219.461C386.924 220.857 386.031 222.06 384.81 222.842C383.588 223.624 382.122 223.931 380.689 223.705C379.256 223.478 377.956 222.734 377.035 221.613Z" fill="#9E616A"/>
<path d="M284.079 221.613C284.63 220.951 285.03 220.176 285.249 219.342C285.468 218.509 285.502 217.638 285.348 216.79C285.194 215.942 284.856 215.139 284.358 214.436C283.86 213.732 283.214 213.147 282.465 212.721L286.289 192.128L276.262 196.36L274.168 215.267C273.535 216.572 273.403 218.064 273.797 219.461C274.191 220.857 275.083 222.06 276.305 222.842C277.527 223.624 278.993 223.931 280.426 223.705C281.858 223.478 283.158 222.734 284.079 221.613Z" fill="#9E616A"/>
<path d="M321.388 356.261H314.202L310.784 328.545H321.389L321.388 356.261Z" fill="#9E616A"/>
<path d="M323.221 363.227L300.052 363.226V362.933C300.052 360.541 301.002 358.247 302.693 356.556C304.384 354.865 306.678 353.915 309.07 353.915L323.221 353.915L323.221 363.227Z" fill="#171A21"/>
<path d="M351.278 356.261H344.093L340.675 328.545H351.28L351.278 356.261Z" fill="#9E616A"/>
<path d="M353.111 363.227L329.942 363.226V362.933C329.943 360.541 330.893 358.247 332.584 356.556C334.275 354.865 336.569 353.915 338.96 353.915L353.112 353.915L353.111 363.227Z" fill="#171A21"/>
<path d="M308.531 188.75L299.201 199.027L303.304 275.978L310.337 349.64H323.15L334.953 218.1L340.207 349.64H353.941L370.058 195.034L308.531 188.75Z" fill="#171A21"/>
<path d="M367.774 99.3674L342.865 83.8352L339.349 75.0435H316.062L313.561 83.2491L287.772 99.0743L298.029 143.912L299.201 199.008C299.201 199.008 339.056 223.038 370.119 196.077L357.518 131.897L367.774 99.3674Z" fill="#8F8CE7"/>
<path d="M295.685 99.9534L287.772 99.0742C287.772 99.0742 279.86 105.228 278.688 118.709C277.516 132.19 278.688 157.825 278.688 157.825L273.999 207.799L283.963 208.385L296.857 158.565L298.029 135.46L295.685 99.9534Z" fill="#8F8CE7"/>
<path d="M359.569 99.9534L367.481 99.0742C367.481 99.0742 375.394 105.228 376.566 118.709C377.738 132.19 382.427 157.825 382.427 157.825L387.115 207.799L377.152 208.385L364.258 158.565L357.225 135.46L359.569 99.9534Z" fill="#8F8CE7"/>
<path d="M342.622 58.8266C347.715 49.5098 344.291 37.8283 334.975 32.7353C325.658 27.6422 313.977 31.0663 308.884 40.3831C303.792 49.6999 307.216 61.3814 316.532 66.4744C325.848 71.5675 337.529 68.1434 342.622 58.8266Z" fill="#9E616A"/>
<path d="M347.714 49.9755C347.924 48.7873 347.678 47.5637 347.026 46.5487C347.654 45.5399 348.092 44.4242 348.317 43.257C348.84 39.76 346.162 38.4789 344.436 35.8379C343.687 34.692 344.026 34.2393 343.984 33.0216C343.912 31.3774 343.383 29.7859 342.456 28.4265C341.389 26.6588 340.251 24.8158 338.462 23.667C334.703 21.2528 329.889 22.8576 325.581 21.8277C323.683 21.3737 321.911 20.4073 320.018 19.9231C318.125 19.439 315.896 19.5646 314.799 20.9492C314.292 21.5884 314.089 22.4211 313.581 23.0593C312.572 24.3275 310.655 24.5392 309.096 25.1747C305.648 26.58 303.874 30.2972 303.949 33.9671C303.972 34.7362 304.057 35.5021 304.203 36.2574C303.604 37.6553 303.312 39.1653 303.346 40.6856C303.422 44.3555 305.057 47.9807 307.011 51.3263C307.284 50.2801 307.662 49.2643 308.14 48.2944C308.275 47.957 308.5 47.663 308.79 47.4442C309.454 47.0189 310.401 47.3373 311.241 47.3707C312.98 47.4399 314.364 46.2137 315.182 44.8428C316 43.4719 316.451 41.8922 317.389 40.5979C317.583 40.277 317.846 40.0035 318.159 39.7978C318.473 39.592 318.828 39.459 319.2 39.4086C319.853 39.4364 320.487 39.6326 321.042 39.9783C323.873 41.4292 326.798 43.0055 329.902 43.201C330.964 43.1746 332.026 43.2652 333.069 43.4713C335.421 44.1498 336.817 46.643 337.123 48.9095C337.429 51.176 336.964 53.4095 337.148 55.6769C337.332 57.9443 338.42 60.4834 340.668 61.4843C340.904 61.6202 341.185 61.6573 341.448 61.5876C341.621 61.4938 341.758 61.3459 341.838 61.1667L346.048 53.9222C346.848 52.7239 347.413 51.3846 347.714 49.9755Z" fill="#171A21"/>
<path d="M438 363.414C438 363.569 437.938 363.718 437.828 363.828C437.718 363.938 437.569 363.999 437.414 364H214.112C213.957 364 213.807 363.938 213.698 363.828C213.588 363.718 213.526 363.569 213.526 363.414C213.526 363.258 213.588 363.109 213.698 362.999C213.807 362.889 213.957 362.828 214.112 362.828H437.414C437.569 362.828 437.718 362.89 437.828 363C437.938 363.11 438 363.258 438 363.414Z" fill="#8F8CE7"/>
<path d="M202.882 49.1265H0.679688V50.2987H202.882V49.1265Z" fill="#8F8CE7"/>
<path d="M202.882 114.772H0.679688V115.944H202.882V114.772Z" fill="#8F8CE7"/>
<path d="M202.882 180.417H0.679688V181.589H202.882V180.417Z" fill="#8F8CE7"/>
</g>
<defs>
<clipPath id="clip0_565_5005">
<rect width="438" height="364" fill="white"/>
</clipPath>
</defs>
</svg>
