<svg width="36" height="48" viewBox="0 0 36 48" fill="none" xmlns="http://www.w3.org/2000/svg">
<mask id="mask0_1178_5906" style="mask-type:alpha" maskUnits="userSpaceOnUse" x="6" y="0" width="24" height="24">
<rect x="6" width="24" height="24" fill="#D9D9D9"/>
</mask>
<g mask="url(#mask0_1178_5906)">
<path d="M12 19H15V13H21V19H24V10L18 5.5L12 10V19ZM10 21V9L18 3L26 9V21H19V15H17V21H10Z" fill="#F6F7F8"/>
</g>
<path d="M3.34375 33.0469V43H1.62793V33.0469H3.34375ZM7.04629 37.1826V43H5.39883V35.6035H6.95059L7.04629 37.1826ZM6.75234 39.0283L6.21914 39.0215C6.2237 38.4974 6.29661 38.0166 6.43789 37.5791C6.58372 37.1416 6.78424 36.7656 7.03945 36.4512C7.29922 36.1367 7.60911 35.8952 7.96914 35.7266C8.32917 35.5534 8.73021 35.4668 9.17227 35.4668C9.52773 35.4668 9.84902 35.5169 10.1361 35.6172C10.4278 35.7129 10.6762 35.8701 10.8812 36.0889C11.0909 36.3076 11.2504 36.5924 11.3598 36.9434C11.4691 37.2897 11.5238 37.7158 11.5238 38.2217V43H9.86953V38.2148C9.86953 37.8594 9.81712 37.5791 9.7123 37.374C9.61204 37.1644 9.46393 37.0163 9.26797 36.9297C9.07656 36.8385 8.8373 36.793 8.5502 36.793C8.26764 36.793 8.01471 36.8522 7.79141 36.9707C7.5681 37.0892 7.37897 37.251 7.22402 37.4561C7.07363 37.6611 6.95742 37.8981 6.87539 38.167C6.79336 38.4359 6.75234 38.723 6.75234 39.0283ZM15.0896 35.6035V43H13.4422V35.6035H15.0896ZM13.4559 34.6191L14.7889 32.5615H16.6482L14.7889 34.6191H13.4559ZM20.091 41.8242C20.3599 41.8242 20.6014 41.7718 20.8156 41.667C21.0344 41.5576 21.2098 41.4072 21.342 41.2158C21.4787 41.0244 21.5539 40.8034 21.5676 40.5527H23.1193C23.1102 41.0312 22.9689 41.4665 22.6955 41.8584C22.4221 42.2503 22.0598 42.5625 21.6086 42.7949C21.1574 43.0228 20.6584 43.1367 20.1115 43.1367C19.5464 43.1367 19.0542 43.041 18.635 42.8496C18.2157 42.6536 17.8671 42.3848 17.5891 42.043C17.3111 41.7012 17.1014 41.307 16.9602 40.8604C16.8234 40.4137 16.7551 39.9352 16.7551 39.4248V39.1855C16.7551 38.6751 16.8234 38.1966 16.9602 37.75C17.1014 37.2988 17.3111 36.9023 17.5891 36.5605C17.8671 36.2188 18.2157 35.9521 18.635 35.7607C19.0542 35.5648 19.5441 35.4668 20.1047 35.4668C20.6971 35.4668 21.2167 35.5853 21.6633 35.8223C22.1099 36.0547 22.4608 36.3805 22.716 36.7998C22.9758 37.2145 23.1102 37.6976 23.1193 38.249H21.5676C21.5539 37.9756 21.4855 37.7295 21.3625 37.5107C21.244 37.2874 21.0754 37.1097 20.8566 36.9775C20.6424 36.8454 20.385 36.7793 20.0842 36.7793C19.7515 36.7793 19.4758 36.8477 19.257 36.9844C19.0383 37.1165 18.8674 37.2988 18.7443 37.5312C18.6213 37.7591 18.5324 38.0166 18.4777 38.3037C18.4276 38.5863 18.4025 38.8802 18.4025 39.1855V39.4248C18.4025 39.7301 18.4276 40.0264 18.4777 40.3135C18.5279 40.6006 18.6145 40.8581 18.7375 41.0859C18.8651 41.3092 19.0383 41.4893 19.257 41.626C19.4758 41.7581 19.7538 41.8242 20.091 41.8242ZM26.2477 35.6035V43H24.5934V35.6035H26.2477ZM24.484 33.6621C24.484 33.4115 24.566 33.2041 24.7301 33.04C24.8987 32.8714 25.1311 32.7871 25.4273 32.7871C25.719 32.7871 25.9492 32.8714 26.1178 33.04C26.2864 33.2041 26.3707 33.4115 26.3707 33.6621C26.3707 33.9082 26.2864 34.1133 26.1178 34.2773C25.9492 34.4414 25.719 34.5234 25.4273 34.5234C25.1311 34.5234 24.8987 34.4414 24.7301 34.2773C24.566 34.1133 24.484 33.9082 24.484 33.6621ZM27.8379 39.3838V39.2266C27.8379 38.6934 27.9154 38.1989 28.0703 37.7432C28.2253 37.2829 28.4486 36.8841 28.7402 36.5469C29.0365 36.2051 29.3965 35.9408 29.8203 35.7539C30.2487 35.5625 30.7318 35.4668 31.2695 35.4668C31.8118 35.4668 32.2949 35.5625 32.7188 35.7539C33.1471 35.9408 33.5094 36.2051 33.8057 36.5469C34.1019 36.8841 34.3275 37.2829 34.4824 37.7432C34.6374 38.1989 34.7148 38.6934 34.7148 39.2266V39.3838C34.7148 39.917 34.6374 40.4115 34.4824 40.8672C34.3275 41.3229 34.1019 41.7217 33.8057 42.0635C33.5094 42.4007 33.1494 42.665 32.7256 42.8564C32.3018 43.0433 31.821 43.1367 31.2832 43.1367C30.7409 43.1367 30.2555 43.0433 29.8271 42.8564C29.4033 42.665 29.0433 42.4007 28.7471 42.0635C28.4508 41.7217 28.2253 41.3229 28.0703 40.8672C27.9154 40.4115 27.8379 39.917 27.8379 39.3838ZM29.4854 39.2266V39.3838C29.4854 39.7165 29.5195 40.0309 29.5879 40.3271C29.6562 40.6234 29.7633 40.8831 29.9092 41.1064C30.055 41.3298 30.2419 41.5052 30.4697 41.6328C30.6976 41.7604 30.9688 41.8242 31.2832 41.8242C31.5885 41.8242 31.8529 41.7604 32.0762 41.6328C32.304 41.5052 32.4909 41.3298 32.6367 41.1064C32.7826 40.8831 32.8896 40.6234 32.958 40.3271C33.0309 40.0309 33.0674 39.7165 33.0674 39.3838V39.2266C33.0674 38.8984 33.0309 38.5885 32.958 38.2969C32.8896 38.0007 32.7803 37.7386 32.6299 37.5107C32.484 37.2829 32.2972 37.1051 32.0693 36.9775C31.846 36.8454 31.5794 36.7793 31.2695 36.7793C30.9596 36.7793 30.6908 36.8454 30.4629 36.9775C30.2396 37.1051 30.055 37.2829 29.9092 37.5107C29.7633 37.7386 29.6562 38.0007 29.5879 38.2969C29.5195 38.5885 29.4854 38.8984 29.4854 39.2266Z" fill="#F6F7F8"/>
</svg>
