<svg width="520" height="507" viewBox="0 0 520 507" fill="none" xmlns="http://www.w3.org/2000/svg">
<g clip-path="url(#clip0_245_3570)">
<path d="M331.664 113.651H303.996V349.672C303.996 353.375 303.267 357.042 301.851 360.463C300.435 363.884 298.359 366.993 295.742 369.611C293.125 372.23 290.018 374.307 286.599 375.724C283.179 377.141 279.515 377.87 275.814 377.87H64.2808V378.14C64.2808 381.843 65.0097 385.51 66.426 388.931C67.8423 392.353 69.9182 395.461 72.5352 398.08C75.1521 400.698 78.259 402.775 81.6782 404.192C85.0975 405.609 88.7622 406.339 92.4632 406.339H331.664C335.365 406.339 339.03 405.609 342.449 404.192C345.868 402.775 348.975 400.698 351.592 398.08C354.209 395.461 356.285 392.353 357.701 388.931C359.118 385.51 359.847 381.843 359.847 378.14V141.85C359.847 134.371 356.877 127.199 351.592 121.91C346.307 116.622 339.139 113.651 331.664 113.651Z" fill="#F6F7F8"/>
<path d="M462.823 488.724C463.313 488.747 463.798 488.618 464.212 488.356C464.626 488.093 464.95 487.71 465.139 487.257C465.328 486.805 465.374 486.305 465.269 485.825C465.165 485.346 464.916 484.91 464.556 484.577L464.392 483.925C464.414 483.873 464.436 483.821 464.457 483.769C464.951 482.603 465.778 481.608 466.834 480.911C467.89 480.213 469.129 479.844 470.395 479.848C471.661 479.853 472.897 480.232 473.948 480.937C474.999 481.643 475.819 482.643 476.303 483.813C478.241 488.482 480.708 493.159 481.315 498.095C481.582 500.278 481.47 502.49 480.981 504.633C485.532 494.701 487.895 483.906 487.91 472.98C487.911 470.238 487.759 467.498 487.454 464.773C487.202 462.54 486.853 460.322 486.406 458.12C483.967 446.172 478.73 434.974 471.126 425.445C467.446 423.436 464.469 420.346 462.598 416.592C461.92 415.242 461.441 413.802 461.175 412.315C461.59 412.369 462.741 406.043 462.428 405.655C463.006 404.776 464.042 404.339 464.674 403.482C467.816 399.219 472.146 399.963 474.407 405.757C479.235 408.195 479.282 412.239 476.319 416.129C474.434 418.603 474.175 421.951 472.521 424.6C472.691 424.818 472.868 425.029 473.039 425.247C476.149 429.249 478.86 433.547 481.133 438.078C480.58 433.002 481.24 427.867 483.057 423.095C484.899 418.649 488.352 414.904 491.393 411.06C492.197 410.027 493.29 409.256 494.532 408.844C495.774 408.433 497.11 408.399 498.371 408.747C499.632 409.094 500.762 409.809 501.618 410.799C502.474 411.789 503.017 413.011 503.179 414.311C503.185 414.367 503.191 414.424 503.197 414.481C502.745 414.736 502.303 415.006 501.871 415.292C501.327 415.656 500.906 416.175 500.662 416.782C500.419 417.388 500.364 418.055 500.506 418.693C500.647 419.332 500.978 419.912 501.455 420.36C501.932 420.807 502.532 421.099 503.178 421.199L503.245 421.209C503.084 422.838 502.799 424.452 502.394 426.037C506.295 441.132 497.873 446.629 485.848 446.876C485.582 447.013 485.324 447.149 485.058 447.278C487.342 453.753 488.774 460.497 489.319 467.341C489.628 471.379 489.609 475.435 489.265 479.47L489.285 479.327C490.156 474.84 492.548 470.792 496.057 467.865C501.269 463.582 508.632 462.004 514.254 458.561C514.852 458.177 515.546 457.972 516.257 457.971C516.967 457.969 517.662 458.17 518.262 458.551C518.861 458.932 519.339 459.477 519.639 460.121C519.94 460.764 520.05 461.481 519.956 462.185L519.933 462.335C519.095 462.677 518.279 463.07 517.49 463.514C517.038 463.769 516.596 464.039 516.164 464.325C515.62 464.689 515.199 465.208 514.956 465.815C514.712 466.421 514.657 467.088 514.799 467.726C514.94 468.365 515.271 468.945 515.748 469.392C516.225 469.84 516.826 470.132 517.471 470.232L517.538 470.242C517.585 470.249 517.626 470.256 517.674 470.262C516.242 473.684 514.232 476.833 511.732 479.572C509.293 492.749 498.817 493.999 487.611 490.162H487.604C486.374 495.508 484.593 500.711 482.288 505.689H463.299C463.231 505.478 463.17 505.26 463.108 505.049C464.866 505.159 466.631 505.054 468.363 504.735C466.954 503.006 465.545 501.262 464.136 499.532C464.105 499.5 464.075 499.466 464.047 499.43C463.333 498.545 462.611 497.666 461.897 496.781L461.896 496.78C461.858 494.066 462.17 491.359 462.823 488.724Z" fill="#FFFF7E"/>
<path d="M253.671 81.5457C254.364 82.5967 255.277 83.4844 256.347 84.1476C257.417 84.8107 258.618 85.2334 259.868 85.3864C261.117 85.5394 262.384 85.419 263.582 85.0336C264.781 84.6483 265.881 84.0071 266.807 83.1544L306.287 100.976L313.898 91.2621L266.853 70.4376C265.303 68.9845 263.273 68.1509 261.15 68.0948C259.026 68.0387 256.956 68.764 255.331 70.1332C253.706 71.5024 252.64 73.4204 252.334 75.5238C252.028 77.6272 252.503 79.7698 253.671 81.5457Z" fill="#A0616A"/>
<path d="M423.102 92.6587L427.017 114.86C427.2 115.896 427.164 116.959 426.912 117.98C426.66 119.001 426.197 119.958 425.554 120.789C424.91 121.621 424.1 122.309 423.175 122.809C422.25 123.309 421.231 123.609 420.183 123.692L353.649 128.927L275.441 93.905L284.782 76.1626L352.674 97.6744L423.102 92.6587Z" fill="#8F8CE7"/>
<path d="M267.383 76.7476H28.1824C12.6177 76.7476 0 89.3725 0 104.946V341.237C0 356.81 12.6177 369.435 28.1824 369.435H267.383C282.948 369.435 295.566 356.81 295.566 341.237V104.946C295.566 89.3725 282.948 76.7476 267.383 76.7476Z" fill="#F6F7F8"/>
<path d="M28.1826 82.5466C25.2427 82.5466 22.3316 83.126 19.6156 84.2517C16.8995 85.3774 14.4316 87.0273 12.3528 89.1073C10.274 91.1873 8.625 93.6566 7.49996 96.3742C6.37493 99.0919 5.7959 102.005 5.7959 104.946V341.237C5.7959 347.178 8.15448 352.875 12.3528 357.076C16.5511 361.277 22.2453 363.636 28.1826 363.636H180.846C195.15 363.636 209.314 360.817 222.53 355.34C235.745 349.863 247.752 341.836 257.867 331.715C267.981 321.595 276.005 309.58 281.479 296.358C286.952 283.135 289.77 268.963 289.77 254.65V104.946C289.77 102.005 289.191 99.0919 288.066 96.3742C286.941 93.6566 285.292 91.1873 283.213 89.1073C281.134 87.0273 278.666 85.3774 275.95 84.2517C273.234 83.126 270.323 82.5466 267.383 82.5466H28.1826Z" fill="white"/>
<path d="M214.651 154.257H80.3922C79.1602 154.257 77.9787 153.767 77.1076 152.895C76.2365 152.024 75.7471 150.842 75.7471 149.609C75.7471 148.376 76.2365 147.194 77.1076 146.322C77.9787 145.451 79.1602 144.961 80.3922 144.961H214.651C215.883 144.961 217.064 145.451 217.935 146.322C218.806 147.194 219.296 148.376 219.296 149.609C219.296 150.842 218.806 152.024 217.935 152.895C217.064 153.767 215.883 154.257 214.651 154.257Z" fill="#F6F7F8"/>
<path d="M214.651 253.369H80.3922C79.1602 253.369 77.9787 252.88 77.1076 252.008C76.2365 251.136 75.7471 249.954 75.7471 248.721C75.7471 247.489 76.2365 246.307 77.1076 245.435C77.9787 244.563 79.1602 244.074 80.3922 244.074H214.651C215.883 244.074 217.064 244.563 217.935 245.435C218.806 246.307 219.296 247.489 219.296 248.721C219.296 249.954 218.806 251.136 217.935 252.008C217.064 252.88 215.883 253.369 214.651 253.369Z" fill="#F6F7F8"/>
<path d="M269.17 203.845H25.8726C24.6407 203.845 23.4592 203.356 22.5881 202.484C21.7169 201.612 21.2275 200.43 21.2275 199.198C21.2275 197.965 21.7169 196.783 22.5881 195.911C23.4592 195.039 24.6407 194.55 25.8726 194.55H269.17C270.402 194.55 271.584 195.039 272.455 195.911C273.326 196.783 273.815 197.965 273.815 199.198C273.815 200.43 273.326 201.612 272.455 202.484C271.584 203.356 270.402 203.845 269.17 203.845Z" fill="#F6F7F8"/>
<path d="M414.695 190.514L390.458 242.179L483.694 232.731L464.232 183.133L414.695 190.514Z" fill="#A0616A"/>
<path d="M436.372 487.464L427.532 487.389L423.619 452.478L436.665 452.588L436.372 487.464Z" fill="#A0616A"/>
<path d="M408.056 501.529C408.048 502.577 408.457 503.586 409.191 504.334C409.926 505.082 410.927 505.507 411.975 505.518L429.55 505.664L432.627 499.424L433.757 505.696L440.389 505.756L438.714 483.386L436.407 483.232L426.996 482.583L423.96 482.38L423.907 488.709L409.788 498.291C409.259 498.65 408.825 499.132 408.524 499.696C408.222 500.26 408.062 500.889 408.056 501.529Z" fill="#171A21"/>
<path d="M338.544 487.504L330.116 484.833L336.627 450.313L349.066 454.253L338.544 487.504Z" fill="#A0616A"/>
<path d="M307.349 492.624C307.033 493.624 307.127 494.708 307.61 495.639C308.092 496.569 308.924 497.271 309.923 497.589L326.679 502.896L331.453 497.835L330.691 504.163L337.013 506.17L341.981 484.295L339.821 483.47L331.016 480.082L328.173 478.995L326.264 485.03L309.955 490.038C309.344 490.226 308.787 490.559 308.333 491.01C307.879 491.46 307.541 492.014 307.349 492.624Z" fill="#171A21"/>
<path d="M479.448 218.202L394.674 233.744C394.674 233.744 381.077 243.921 384.714 247.566C388.351 251.21 388.916 250.646 386.526 253.037C384.136 255.428 378.969 258.624 378.918 260.716C378.867 262.809 340.931 356.649 340.931 356.649C340.931 356.649 345.146 354.54 341.985 357.703C338.824 360.867 338.824 363.48 338.824 363.48L324.071 463.142L348.03 464.554L371.491 373.694L423.821 288.811C423.821 288.811 429.013 364.505 429.231 369.539C429.449 374.574 432.61 368.247 429.449 374.574C426.288 380.9 424.18 376.682 426.288 380.9C428.395 385.117 418.695 470.981 418.695 470.981H440.564L487.468 293.01C487.468 293.01 504.156 242.13 479.448 218.202Z" fill="#171A21"/>
<path d="M454.474 75.8468L420.517 72.3164L411.719 83.7452L401.469 89.2072C397.132 91.5186 393.552 95.0311 391.157 99.3247C388.762 103.618 387.654 108.511 387.965 113.418L399.943 183.133C399.943 183.133 389.826 205.928 396.782 211.602C403.738 217.275 391.404 231.326 406.266 224.254C421.128 217.183 485.299 225.309 485.299 225.309L471.6 186.297L481.834 147.962L482.96 115.818C483.171 109.812 481.389 103.904 477.894 99.0169C474.398 94.1294 469.384 90.5363 463.635 88.7977L462.204 88.3651L454.474 75.8468Z" fill="#8F8CE7"/>
<path d="M501.225 49.7989C501.447 59.3759 497.87 68.6493 492.731 76.7944C491.204 72.0394 488.46 67.7117 485.597 63.5862C487.04 72.5108 485.503 81.6625 481.224 89.6249C481.073 89.7328 480.917 89.8331 480.756 89.9253C476.567 92.4463 471.257 93.4675 466.726 91.6466C476.088 81.5491 477.279 64.8189 469.43 53.4929C467.208 50.2792 464.334 47.4368 462.957 43.7795C460.784 37.9439 462.873 31.5189 464.191 25.4347C465.423 19.7722 465.639 13.0338 461.842 8.88393C462.248 8.30399 462.8 7.84236 463.443 7.54633C464.085 7.25031 464.795 7.13055 465.499 7.1993C467.84 7.53016 469.544 9.56603 470.629 11.6629C471.714 13.7596 472.43 16.0836 473.943 17.8946C476.743 21.2845 481.513 22.0859 485.533 23.8725C495.267 28.2109 500.991 39.1424 501.225 49.7989Z" fill="#171A21"/>
<path d="M250.432 505.745C250.432 505.91 250.464 506.074 250.527 506.226C250.589 506.379 250.682 506.517 250.798 506.634C250.915 506.75 251.053 506.843 251.206 506.906C251.358 506.969 251.521 507.001 251.686 507H518.598C518.931 507 519.25 506.868 519.485 506.633C519.72 506.397 519.852 506.078 519.852 505.745C519.852 505.413 519.72 505.093 519.485 504.858C519.25 504.623 518.931 504.491 518.598 504.491H251.686C251.521 504.49 251.358 504.522 251.206 504.585C251.053 504.648 250.915 504.74 250.798 504.857C250.682 504.974 250.589 505.112 250.527 505.265C250.464 505.417 250.432 505.581 250.432 505.745Z" fill="#D8D6DC"/>
<path d="M503.326 271.766C508.564 271.766 512.81 267.517 512.81 262.276C512.81 257.035 508.564 252.787 503.326 252.787C498.088 252.787 493.842 257.035 493.842 262.276C493.842 267.517 498.088 271.766 503.326 271.766Z" fill="#8F8CE7"/>
<path d="M419.285 44.3231C419.841 42.375 416.007 54.2832 417.857 54.4982C426.284 55.4655 437.852 60.501 443.721 62.8502C443.985 62.8194 444.25 62.7887 444.506 62.7504C445.136 62.6812 445.75 62.5815 446.356 62.4663C460.022 59.8791 465.278 38.8743 465.278 38.6824C465.278 37.7381 463.013 11.8029 459.444 11.4191C458.507 11.3174 457.565 11.2661 456.623 11.2656H447.768C445.936 10.8705 444.079 10.6012 442.21 10.4595H442.195C424.37 9.10061 410.315 19.9713 411.629 33.199C411.636 33.2144 411.652 33.2297 411.66 33.2451C412.041 33.8132 412.375 34.3506 412.67 34.865C412.958 35.3486 413.199 35.8092 413.409 36.2468C415.033 39.6248 410.857 43.8753 413.626 44.6686C417.309 45.7238 403.94 80.4055 418.518 80.4055C411.427 82.4228 417.751 49.6971 419.285 44.3231Z" fill="#171A21"/>
<path d="M435.197 64.6729C446.775 64.6729 456.161 55.2819 456.161 43.6974C456.161 32.113 446.775 22.7219 435.197 22.7219C423.62 22.7219 414.234 32.113 414.234 43.6974C414.234 55.2819 423.62 64.6729 435.197 64.6729Z" fill="#A0616A"/>
<path d="M411.628 34.3429C411.978 34.5272 412.32 34.696 412.67 34.865C413.035 35.0415 413.401 35.2181 413.766 35.3793C420.786 38.5653 426.499 38.9185 429.967 34.3429C430.059 31.9354 430.6 29.5662 431.56 27.3567C431.39 29.8258 432.041 32.2818 433.41 34.3429H440.391C447.582 39.1181 451.274 39.6171 446.283 55.2937C444.892 59.662 439.359 85.0809 441.536 88.8503C442.165 88.7812 448.864 60.9397 449.471 60.8246C463.137 58.2374 471.82 35.7094 470.708 34.4351C470.714 30.811 469.881 27.2349 468.275 23.9865C466.244 19.871 463.077 16.4238 459.149 14.0524C456.808 12.9165 454.367 11.999 451.857 11.3116C451.795 11.2963 451.741 11.2809 451.678 11.2656C450.909 11.0583 450.124 10.8663 449.338 10.7051C447.717 10.3624 446.076 10.1138 444.425 9.96045C444.309 9.95276 444.192 9.94507 444.084 9.94507C443.424 9.94661 442.778 10.1242 442.21 10.4595C442.202 10.4595 442.202 10.4671 442.195 10.4671C441.789 10.7043 441.435 11.0201 441.153 11.396C440.656 12.0286 440.388 12.8104 440.391 13.6147H432.617C432.33 13.6147 432.042 13.6224 431.754 13.6377C426.566 13.8151 421.631 15.9233 417.914 19.5498C414.198 23.1763 411.967 28.06 411.659 33.2451C411.636 33.6136 411.628 33.9744 411.628 34.3429Z" fill="#171A21"/>
<path d="M457.464 27.6376C465.092 27.6376 471.275 21.4507 471.275 13.8188C471.275 6.18688 465.092 0 457.464 0C449.837 0 443.653 6.18688 443.653 13.8188C443.653 21.4507 449.837 27.6376 457.464 27.6376Z" fill="#171A21"/>
<path d="M503.433 266.189C504.107 265.126 504.542 263.929 504.708 262.68C504.874 261.432 504.767 260.163 504.395 258.96C504.022 257.757 503.393 256.649 502.551 255.714C501.709 254.778 500.673 254.037 499.516 253.541L499.585 210.204L487.609 207.238L487.904 258.71C487.215 260.721 487.286 262.915 488.106 264.876C488.925 266.837 490.434 268.429 492.348 269.351C494.263 270.273 496.448 270.46 498.491 269.878C500.534 269.295 502.292 267.983 503.433 266.189Z" fill="#A0616A"/>
<path d="M444.13 106.996L462.766 94.324C463.635 93.7328 464.618 93.3301 465.653 93.1416C466.687 92.9532 467.749 92.9832 468.771 93.2297C469.793 93.4762 470.752 93.9338 471.586 94.5731C472.421 95.2124 473.113 96.0193 473.618 96.9419L505.656 155.522L505.779 241.255L485.776 240L477.565 169.22L444.13 106.996Z" fill="#8F8CE7"/>
<path d="M301.008 301.426H101.843C97.5114 301.426 93.3569 303.147 90.2937 306.212C87.2306 309.277 85.5098 313.434 85.5098 317.769C85.5098 322.103 87.2306 326.26 90.2937 329.325C93.3569 332.39 97.5114 334.111 101.843 334.111H301.008C305.34 334.111 309.494 332.39 312.558 329.325C315.621 326.26 317.342 322.103 317.342 317.769C317.342 313.434 315.621 309.277 312.558 306.212C309.494 303.147 305.34 301.426 301.008 301.426Z" fill="white"/>
<path d="M301.008 335.166H101.843C97.232 335.166 92.8095 333.333 89.5487 330.07C86.2879 326.808 84.4561 322.383 84.4561 317.768C84.4561 313.154 86.2879 308.729 89.5487 305.467C92.8095 302.204 97.232 300.371 101.843 300.371H301.008C305.619 300.371 310.042 302.204 313.303 305.467C316.564 308.729 318.395 313.154 318.395 317.768C318.395 322.383 316.564 326.808 313.303 330.07C310.042 333.333 305.619 335.166 301.008 335.166ZM101.843 302.48C97.791 302.48 93.9045 304.091 91.039 306.958C88.1734 309.825 86.5636 313.714 86.5636 317.768C86.5636 321.823 88.1734 325.712 91.039 328.579C93.9045 331.446 97.791 333.057 101.843 333.057H301.008C305.061 333.057 308.947 331.446 311.813 328.579C314.678 325.712 316.288 321.823 316.288 317.768C316.288 313.714 314.678 309.825 311.813 306.958C308.947 304.091 305.061 302.48 301.008 302.48H101.843Z" fill="#8F8CE7"/>
<path d="M312.752 372.747H224.86C223.628 372.747 222.446 372.258 221.575 371.386C220.704 370.514 220.215 369.332 220.215 368.099C220.215 366.867 220.704 365.685 221.575 364.813C222.446 363.941 223.628 363.452 224.86 363.452H312.752C313.984 363.452 315.165 363.941 316.037 364.813C316.908 365.685 317.397 366.867 317.397 368.099C317.397 369.332 316.908 370.514 316.037 371.386C315.165 372.258 313.984 372.747 312.752 372.747Z" fill="#8F8CE7"/>
</g>
<defs>
<clipPath id="clip0_245_3570">
<rect width="520" height="507" fill="white"/>
</clipPath>
</defs>
</svg>
