<svg width="74" height="48" viewBox="0 0 74 48" fill="none" xmlns="http://www.w3.org/2000/svg">
<mask id="mask0_1172_5376" style="mask-type:alpha" maskUnits="userSpaceOnUse" x="25" y="0" width="24" height="24">
<rect x="25" width="24" height="24" fill="#D9D9D9"/>
</mask>
<g mask="url(#mask0_1172_5376)">
<path d="M37 22C35.6167 22 34.3167 21.7375 33.1 21.2125C31.8833 20.6875 30.825 19.975 29.925 19.075C29.025 18.175 28.3125 17.1167 27.7875 15.9C27.2625 14.6833 27 13.3833 27 12C27 10.6167 27.2625 9.31667 27.7875 8.1C28.3125 6.88333 29.025 5.825 29.925 4.925C30.825 4.025 31.8833 3.3125 33.1 2.7875C34.3167 2.2625 35.6167 2 37 2C38.0833 2 39.1083 2.15833 40.075 2.475C41.0417 2.79167 41.9333 3.23333 42.75 3.8L41.3 5.275C40.6667 4.875 39.9917 4.5625 39.275 4.3375C38.5583 4.1125 37.8 4 37 4C34.7833 4 32.8958 4.77917 31.3375 6.3375C29.7792 7.89583 29 9.78333 29 12C29 14.2167 29.7792 16.1042 31.3375 17.6625C32.8958 19.2208 34.7833 20 37 20C37.5333 20 38.05 19.95 38.55 19.85C39.05 19.75 39.5333 19.6083 40 19.425L41.5 20.95C40.8167 21.2833 40.1 21.5417 39.35 21.725C38.6 21.9083 37.8167 22 37 22ZM44 20V17H41V15H44V12H46V15H49V17H46V20H44ZM35.6 16.6L31.35 12.35L32.75 10.95L35.6 13.8L45.6 3.775L47 5.175L35.6 16.6Z" fill="#F6F7F8"/>
</g>
<path d="M8.90723 33.0469V43H7.19141L2.72754 35.8701V43H1.01172V33.0469H2.72754L7.20508 40.1904V33.0469H8.90723ZM10.5727 39.3838V39.2266C10.5727 38.6934 10.6501 38.1989 10.8051 37.7432C10.96 37.2829 11.1833 36.8841 11.475 36.5469C11.7712 36.2051 12.1313 35.9408 12.5551 35.7539C12.9835 35.5625 13.4665 35.4668 14.0043 35.4668C14.5466 35.4668 15.0297 35.5625 15.4535 35.7539C15.8819 35.9408 16.2442 36.2051 16.5404 36.5469C16.8367 36.8841 17.0622 37.2829 17.2172 37.7432C17.3721 38.1989 17.4496 38.6934 17.4496 39.2266V39.3838C17.4496 39.917 17.3721 40.4115 17.2172 40.8672C17.0622 41.3229 16.8367 41.7217 16.5404 42.0635C16.2442 42.4007 15.8842 42.665 15.4604 42.8564C15.0365 43.0433 14.5557 43.1367 14.018 43.1367C13.4757 43.1367 12.9903 43.0433 12.5619 42.8564C12.1381 42.665 11.7781 42.4007 11.4818 42.0635C11.1856 41.7217 10.96 41.3229 10.8051 40.8672C10.6501 40.4115 10.5727 39.917 10.5727 39.3838ZM12.2201 39.2266V39.3838C12.2201 39.7165 12.2543 40.0309 12.3227 40.3271C12.391 40.6234 12.4981 40.8831 12.6439 41.1064C12.7898 41.3298 12.9766 41.5052 13.2045 41.6328C13.4324 41.7604 13.7035 41.8242 14.018 41.8242C14.3233 41.8242 14.5876 41.7604 14.8109 41.6328C15.0388 41.5052 15.2257 41.3298 15.3715 41.1064C15.5173 40.8831 15.6244 40.6234 15.6928 40.3271C15.7657 40.0309 15.8021 39.7165 15.8021 39.3838V39.2266C15.8021 38.8984 15.7657 38.5885 15.6928 38.2969C15.6244 38.0007 15.515 37.7386 15.3646 37.5107C15.2188 37.2829 15.032 37.1051 14.8041 36.9775C14.5808 36.8454 14.3142 36.7793 14.0043 36.7793C13.6944 36.7793 13.4255 36.8454 13.1977 36.9775C12.9743 37.1051 12.7898 37.2829 12.6439 37.5107C12.4981 37.7386 12.391 38.0007 12.3227 38.2969C12.2543 38.5885 12.2201 38.8984 12.2201 39.2266ZM21.2273 41.6943L23.0389 35.6035H24.7479L22.1775 43H21.1111L21.2273 41.6943ZM19.8396 35.6035L21.6854 41.7217L21.7742 43H20.7078L18.1238 35.6035H19.8396ZM29.927 41.5166V37.9893C29.927 37.7249 29.8791 37.4971 29.7834 37.3057C29.6877 37.1143 29.5419 36.9661 29.3459 36.8613C29.1545 36.7565 28.913 36.7041 28.6213 36.7041C28.3524 36.7041 28.12 36.7497 27.924 36.8408C27.7281 36.932 27.5754 37.055 27.466 37.21C27.3566 37.3649 27.302 37.5404 27.302 37.7363H25.6613C25.6613 37.4447 25.732 37.1621 25.8732 36.8887C26.0145 36.6152 26.2196 36.3714 26.4885 36.1572C26.7574 35.943 27.0786 35.7744 27.4523 35.6514C27.826 35.5283 28.2453 35.4668 28.7102 35.4668C29.2661 35.4668 29.7583 35.5602 30.1867 35.7471C30.6197 35.9339 30.9592 36.2165 31.2053 36.5947C31.4559 36.9684 31.5812 37.4378 31.5812 38.0029V41.291C31.5812 41.6283 31.604 41.9313 31.6496 42.2002C31.6997 42.4645 31.7704 42.6947 31.8615 42.8906V43H30.173C30.0956 42.8223 30.034 42.5967 29.9885 42.3232C29.9475 42.0452 29.927 41.7764 29.927 41.5166ZM30.1662 38.502L30.1799 39.5205H28.9973C28.6919 39.5205 28.423 39.5501 28.1906 39.6094C27.9582 39.6641 27.7645 39.7461 27.6096 39.8555C27.4546 39.9648 27.3384 40.097 27.2609 40.252C27.1835 40.4069 27.1447 40.5824 27.1447 40.7783C27.1447 40.9743 27.1903 41.1543 27.2814 41.3184C27.3726 41.4779 27.5048 41.6032 27.6779 41.6943C27.8557 41.7855 28.0699 41.8311 28.3205 41.8311C28.6577 41.8311 28.9517 41.7627 29.2023 41.626C29.4576 41.4847 29.6581 41.3138 29.8039 41.1133C29.9497 40.9082 30.0272 40.7145 30.0363 40.5322L30.5695 41.2637C30.5148 41.4505 30.4214 41.651 30.2893 41.8652C30.1571 42.0794 29.9839 42.2845 29.7697 42.4805C29.5601 42.6719 29.3072 42.8291 29.0109 42.9521C28.7193 43.0752 28.382 43.1367 27.9992 43.1367C27.5161 43.1367 27.0855 43.041 26.7072 42.8496C26.329 42.6536 26.0327 42.3916 25.8186 42.0635C25.6044 41.7308 25.4973 41.3548 25.4973 40.9355C25.4973 40.5436 25.5702 40.1973 25.716 39.8965C25.8664 39.5911 26.0852 39.3359 26.3723 39.1309C26.6639 38.9258 27.0194 38.7708 27.4387 38.666C27.8579 38.5566 28.3365 38.502 28.8742 38.502H30.1662ZM40.3809 35.6035V36.8066H36.2109V35.6035H40.3809ZM37.4141 33.792H39.0615V40.9561C39.0615 41.1839 39.0934 41.3594 39.1572 41.4824C39.2256 41.6009 39.319 41.6807 39.4375 41.7217C39.556 41.7627 39.695 41.7832 39.8545 41.7832C39.9684 41.7832 40.0778 41.7764 40.1826 41.7627C40.2874 41.749 40.3717 41.7354 40.4355 41.7217L40.4424 42.9795C40.3057 43.0205 40.1462 43.057 39.9639 43.0889C39.7861 43.1208 39.5811 43.1367 39.3486 43.1367C38.9704 43.1367 38.6354 43.0706 38.3438 42.9385C38.0521 42.8018 37.8242 42.5807 37.6602 42.2754C37.4961 41.9701 37.4141 41.5645 37.4141 41.0586V33.792ZM45.9223 41.5166V37.9893C45.9223 37.7249 45.8744 37.4971 45.7787 37.3057C45.683 37.1143 45.5372 36.9661 45.3412 36.8613C45.1498 36.7565 44.9083 36.7041 44.6166 36.7041C44.3477 36.7041 44.1153 36.7497 43.9193 36.8408C43.7234 36.932 43.5707 37.055 43.4613 37.21C43.352 37.3649 43.2973 37.5404 43.2973 37.7363H41.6566C41.6566 37.4447 41.7273 37.1621 41.8686 36.8887C42.0098 36.6152 42.2149 36.3714 42.4838 36.1572C42.7527 35.943 43.074 35.7744 43.4477 35.6514C43.8214 35.5283 44.2406 35.4668 44.7055 35.4668C45.2615 35.4668 45.7536 35.5602 46.182 35.7471C46.615 35.9339 46.9545 36.2165 47.2006 36.5947C47.4512 36.9684 47.5766 37.4378 47.5766 38.0029V41.291C47.5766 41.6283 47.5993 41.9313 47.6449 42.2002C47.6951 42.4645 47.7657 42.6947 47.8568 42.8906V43H46.1684C46.0909 42.8223 46.0294 42.5967 45.9838 42.3232C45.9428 42.0452 45.9223 41.7764 45.9223 41.5166ZM46.1615 38.502L46.1752 39.5205H44.9926C44.6872 39.5205 44.4184 39.5501 44.1859 39.6094C43.9535 39.6641 43.7598 39.7461 43.6049 39.8555C43.4499 39.9648 43.3337 40.097 43.2562 40.252C43.1788 40.4069 43.14 40.5824 43.14 40.7783C43.14 40.9743 43.1856 41.1543 43.2768 41.3184C43.3679 41.4779 43.5001 41.6032 43.6732 41.6943C43.851 41.7855 44.0652 41.8311 44.3158 41.8311C44.6531 41.8311 44.947 41.7627 45.1977 41.626C45.4529 41.4847 45.6534 41.3138 45.7992 41.1133C45.9451 40.9082 46.0225 40.7145 46.0316 40.5322L46.5648 41.2637C46.5102 41.4505 46.4167 41.651 46.2846 41.8652C46.1524 42.0794 45.9792 42.2845 45.765 42.4805C45.5554 42.6719 45.3025 42.8291 45.0062 42.9521C44.7146 43.0752 44.3773 43.1367 43.9945 43.1367C43.5115 43.1367 43.0808 43.041 42.7025 42.8496C42.3243 42.6536 42.0281 42.3916 41.8139 42.0635C41.5997 41.7308 41.4926 41.3548 41.4926 40.9355C41.4926 40.5436 41.5655 40.1973 41.7113 39.8965C41.8617 39.5911 42.0805 39.3359 42.3676 39.1309C42.6592 38.9258 43.0147 38.7708 43.434 38.666C43.8533 38.5566 44.3318 38.502 44.8695 38.502H46.1615ZM51.0535 37.0117V43H49.4061V35.6035H50.9783L51.0535 37.0117ZM53.3162 35.5557L53.3025 37.0869C53.2023 37.0687 53.0929 37.055 52.9744 37.0459C52.8605 37.0368 52.7466 37.0322 52.6326 37.0322C52.3501 37.0322 52.1017 37.0732 51.8875 37.1553C51.6733 37.2327 51.4933 37.3467 51.3475 37.4971C51.2062 37.6429 51.0968 37.8206 51.0193 38.0303C50.9419 38.2399 50.8963 38.4746 50.8826 38.7344L50.5066 38.7617C50.5066 38.2969 50.5522 37.8662 50.6434 37.4697C50.7345 37.0732 50.8712 36.7246 51.0535 36.4238C51.2404 36.123 51.4728 35.8883 51.7508 35.7197C52.0333 35.5511 52.3592 35.4668 52.7283 35.4668C52.8286 35.4668 52.9357 35.4759 53.0496 35.4941C53.1681 35.5124 53.257 35.5329 53.3162 35.5557ZM57.5725 43.1367C57.0256 43.1367 56.5311 43.0479 56.0891 42.8701C55.6516 42.6878 55.2779 42.4349 54.968 42.1113C54.6626 41.7878 54.4279 41.4072 54.2639 40.9697C54.0998 40.5322 54.0178 40.0605 54.0178 39.5547V39.2812C54.0178 38.7025 54.1021 38.1784 54.2707 37.709C54.4393 37.2396 54.674 36.8385 54.9748 36.5059C55.2756 36.1686 55.6311 35.9111 56.0412 35.7334C56.4514 35.5557 56.8957 35.4668 57.3742 35.4668C57.9029 35.4668 58.3654 35.5557 58.7619 35.7334C59.1584 35.9111 59.4865 36.1618 59.7463 36.4854C60.0106 36.8044 60.2066 37.1849 60.3342 37.627C60.4663 38.069 60.5324 38.5566 60.5324 39.0898V39.7939H54.8176V38.6113H58.9055V38.4814C58.8964 38.1852 58.8371 37.9072 58.7277 37.6475C58.6229 37.3877 58.4611 37.1781 58.2424 37.0186C58.0236 36.859 57.732 36.7793 57.3674 36.7793C57.0939 36.7793 56.8501 36.8385 56.6359 36.957C56.4263 37.071 56.2508 37.2373 56.1096 37.4561C55.9683 37.6748 55.8589 37.9391 55.7814 38.249C55.7085 38.5544 55.6721 38.8984 55.6721 39.2812V39.5547C55.6721 39.8783 55.7154 40.179 55.802 40.457C55.8931 40.7305 56.0253 40.9697 56.1984 41.1748C56.3716 41.3799 56.5812 41.5417 56.8273 41.6602C57.0734 41.7741 57.3537 41.8311 57.6682 41.8311C58.0646 41.8311 58.4178 41.7513 58.7277 41.5918C59.0376 41.4323 59.3065 41.2067 59.5344 40.915L60.4025 41.7559C60.243 41.9883 60.0357 42.2116 59.7805 42.4258C59.5253 42.6354 59.2131 42.8063 58.8439 42.9385C58.4794 43.0706 58.0555 43.1367 57.5725 43.1367ZM64.1461 43H62.4986V34.8926C62.4986 34.3411 62.6012 33.8786 62.8063 33.5049C63.0159 33.1266 63.3144 32.8418 63.7018 32.6504C64.0891 32.4544 64.5471 32.3564 65.0758 32.3564C65.2398 32.3564 65.4016 32.3678 65.5611 32.3906C65.7206 32.4089 65.8756 32.4385 66.026 32.4795L65.985 33.751C65.8938 33.7282 65.7936 33.7122 65.6842 33.7031C65.5794 33.694 65.4654 33.6895 65.3424 33.6895C65.0917 33.6895 64.8753 33.7373 64.693 33.833C64.5152 33.9242 64.3785 34.0586 64.2828 34.2363C64.1917 34.4141 64.1461 34.6328 64.1461 34.8926V43ZM65.6705 35.6035V36.8066H61.3639V35.6035H65.6705ZM71.1367 41.5166V37.9893C71.1367 37.7249 71.0889 37.4971 70.9932 37.3057C70.8975 37.1143 70.7516 36.9661 70.5557 36.8613C70.3643 36.7565 70.1227 36.7041 69.8311 36.7041C69.5622 36.7041 69.3298 36.7497 69.1338 36.8408C68.9378 36.932 68.7852 37.055 68.6758 37.21C68.5664 37.3649 68.5117 37.5404 68.5117 37.7363H66.8711C66.8711 37.4447 66.9417 37.1621 67.083 36.8887C67.2243 36.6152 67.4294 36.3714 67.6982 36.1572C67.9671 35.943 68.2884 35.7744 68.6621 35.6514C69.0358 35.5283 69.4551 35.4668 69.9199 35.4668C70.4759 35.4668 70.9681 35.5602 71.3965 35.7471C71.8294 35.9339 72.1689 36.2165 72.415 36.5947C72.6657 36.9684 72.791 37.4378 72.791 38.0029V41.291C72.791 41.6283 72.8138 41.9313 72.8594 42.2002C72.9095 42.4645 72.9801 42.6947 73.0713 42.8906V43H71.3828C71.3053 42.8223 71.2438 42.5967 71.1982 42.3232C71.1572 42.0452 71.1367 41.7764 71.1367 41.5166ZM71.376 38.502L71.3896 39.5205H70.207C69.9017 39.5205 69.6328 39.5501 69.4004 39.6094C69.168 39.6641 68.9743 39.7461 68.8193 39.8555C68.6644 39.9648 68.5482 40.097 68.4707 40.252C68.3932 40.4069 68.3545 40.5824 68.3545 40.7783C68.3545 40.9743 68.4001 41.1543 68.4912 41.3184C68.5824 41.4779 68.7145 41.6032 68.8877 41.6943C69.0654 41.7855 69.2796 41.8311 69.5303 41.8311C69.8675 41.8311 70.1615 41.7627 70.4121 41.626C70.6673 41.4847 70.8678 41.3138 71.0137 41.1133C71.1595 40.9082 71.237 40.7145 71.2461 40.5322L71.7793 41.2637C71.7246 41.4505 71.6312 41.651 71.499 41.8652C71.3669 42.0794 71.1937 42.2845 70.9795 42.4805C70.7699 42.6719 70.5169 42.8291 70.2207 42.9521C69.929 43.0752 69.5918 43.1367 69.209 43.1367C68.7259 43.1367 68.2952 43.041 67.917 42.8496C67.5387 42.6536 67.2425 42.3916 67.0283 42.0635C66.8141 41.7308 66.707 41.3548 66.707 40.9355C66.707 40.5436 66.7799 40.1973 66.9258 39.8965C67.0762 39.5911 67.2949 39.3359 67.582 39.1309C67.8737 38.9258 68.2292 38.7708 68.6484 38.666C69.0677 38.5566 69.5462 38.502 70.084 38.502H71.376Z" fill="#F6F7F8"/>
</svg>
