<svg width="694" height="415" viewBox="0 0 694 415" fill="none" xmlns="http://www.w3.org/2000/svg">
<g clip-path="url(#clip0_245_3543)">
<path d="M531.343 410.307C522.458 402.798 517.061 390.935 518.476 379.387C519.891 367.839 528.658 357.222 540.029 354.77C551.4 352.318 564.362 359.106 567.816 370.216C569.716 348.796 571.907 326.479 583.292 308.238C593.602 291.722 611.458 279.903 630.81 277.789C650.163 275.675 670.538 283.66 682.607 298.938C694.677 314.215 697.632 336.426 689.179 353.966C682.952 366.887 671.479 376.503 659.459 384.326C620.618 409.392 574.032 419.586 528.274 413.031L531.343 410.307Z" fill="#D8D6DC"/>
<path d="M663.47 284.102C647.502 297.111 632.853 311.661 619.735 327.54C599.206 352.306 582.593 380.074 570.476 409.875C569.589 412.049 573.118 412.995 573.995 410.845C593.821 362.412 625.472 319.724 666.051 286.684C667.874 285.2 665.278 282.631 663.47 284.102Z" fill="#D8D6DC"/>
<path d="M223.41 408.267C235.613 397.953 243.026 381.66 241.082 365.798C239.138 349.936 227.098 335.355 211.48 331.986C195.862 328.618 178.058 337.942 173.314 353.202C170.704 323.782 167.695 293.129 152.057 268.075C137.897 245.389 113.371 229.157 86.7908 226.253C60.2105 223.349 32.2249 234.317 15.6478 255.301C-0.929399 276.285 -4.98824 306.791 6.62196 330.882C15.1748 348.629 30.9321 361.836 47.4419 372.581C100.114 406.862 165.453 421.159 227.624 412.008" fill="#D8D6DC"/>
<path d="M41.9325 234.925C63.8646 252.792 83.9849 272.776 102.002 294.586C120.023 316.374 135.888 339.859 149.375 364.711C156.913 378.652 163.685 392.994 169.661 407.673C170.879 410.659 166.031 411.959 164.826 409.006C154.243 383.127 141.149 358.347 125.732 335.023C110.39 311.783 92.8305 290.086 73.2999 270.237C62.2534 259.016 50.5983 248.411 38.3875 238.471C35.8847 236.432 39.4503 232.903 41.9325 234.925Z" fill="#D8D6DC"/>
<path d="M498.164 414.092H207.003V115.291C207.003 51.7194 258.712 0 322.271 0H382.897C446.456 0 498.164 51.7194 498.164 115.291V414.092Z" fill="#D8D6DC"/>
<path d="M437.539 414.092H207.003V115.291C206.94 90.9321 214.652 67.1884 229.017 47.5174C229.546 46.7955 230.074 46.083 230.619 45.3782C237.567 36.2634 245.836 28.2362 255.152 21.5615C255.678 21.1785 256.206 20.8022 256.742 20.4259C264.538 15.0302 272.97 10.6194 281.848 7.29382C282.375 7.09396 282.912 6.89371 283.448 6.70164C291.477 3.83577 299.8 1.87266 308.264 0.848568C308.788 0.77688 309.327 0.720783 309.866 0.664685C318.113 -0.21733 326.431 -0.21733 334.678 0.664685C335.216 0.720783 335.754 0.776873 336.285 0.849335C344.746 1.8735 353.067 3.83636 361.094 6.70167C361.631 6.89374 362.168 7.09398 362.696 7.29423C371.464 10.5779 379.798 14.9229 387.51 20.2323C388.046 20.6004 388.582 20.9768 389.11 21.3531C394.332 25.0813 399.237 29.2347 403.775 33.771C407.414 37.4096 410.805 41.2882 413.925 45.3806C414.468 46.083 414.996 46.7956 415.525 47.5163C429.89 67.1875 437.603 90.9316 437.539 115.291V414.092Z" fill="#3B719F"/>
<path d="M418.793 280.449C425.842 280.449 431.556 274.734 431.556 267.684C431.556 260.633 425.842 254.918 418.793 254.918C411.744 254.918 406.03 260.633 406.03 267.684C406.03 274.734 411.744 280.449 418.793 280.449Z" fill="#5C59BB"/>
<path d="M474.312 405.142H464.533L459.88 367.413L474.314 367.413L474.312 405.142Z" fill="#FFB8B8"/>
<path d="M457.547 402.347H476.407V414.225H445.671C445.671 412.665 445.979 411.12 446.575 409.679C447.172 408.238 448.047 406.929 449.15 405.826C450.252 404.723 451.562 403.848 453.002 403.251C454.443 402.654 455.987 402.347 457.547 402.347Z" fill="#171A21"/>
<path d="M522.972 405.142H513.192L508.539 367.413L522.974 367.413L522.972 405.142Z" fill="#FFB8B8"/>
<path d="M506.207 402.347H525.067V414.225H494.331C494.331 412.665 494.638 411.12 495.235 409.679C495.832 408.238 496.707 406.929 497.809 405.826C498.912 404.723 500.221 403.848 501.662 403.251C503.103 402.654 504.647 402.347 506.207 402.347Z" fill="#171A21"/>
<path d="M425.253 270.212C424.549 269.176 424.081 267.997 423.882 266.76C423.683 265.523 423.758 264.257 424.101 263.052C424.444 261.847 425.047 260.732 425.868 259.785C426.688 258.838 427.707 258.083 428.851 257.572L462.095 165.924L478.454 174.853L440.496 262.435C441.226 264.414 441.205 266.593 440.437 268.558C439.669 270.522 438.207 272.137 436.328 273.096C434.449 274.054 432.284 274.29 430.242 273.759C428.201 273.228 426.426 271.966 425.253 270.212Z" fill="#FFB8B8"/>
<path d="M517.976 287.434C516.89 286.81 515.953 285.956 515.231 284.932C514.51 283.907 514.023 282.737 513.803 281.503C513.583 280.27 513.636 279.003 513.958 277.792C514.28 276.581 514.864 275.456 515.669 274.495L505.37 177.547L523.986 178.398L528.267 273.759C529.791 275.217 530.727 277.184 530.898 279.287C531.069 281.39 530.463 283.482 529.194 285.168C527.926 286.853 526.083 288.015 524.016 288.432C521.948 288.85 519.799 288.495 517.976 287.434Z" fill="#FFB8B8"/>
<path d="M488.278 148.948C499.098 148.948 507.87 140.175 507.87 129.352C507.87 118.529 499.098 109.755 488.278 109.755C477.457 109.755 468.685 118.529 468.685 129.352C468.685 140.175 477.457 148.948 488.278 148.948Z" fill="#FFB8B8"/>
<path d="M517.851 265.385H458.784L458.855 264.925C458.961 264.238 469.382 195.958 461.696 173.621C460.925 171.425 460.993 169.022 461.887 166.874C462.781 164.726 464.437 162.985 466.538 161.985C477.524 156.81 498.612 150.439 516.41 165.902C519.029 168.215 521.075 171.105 522.384 174.345C523.694 177.585 524.232 181.085 523.956 184.569L517.851 265.385Z" fill="#5C59BB"/>
<path d="M470.129 206.049L443.536 200.653L456.001 171.108C456.747 168.247 458.597 165.798 461.146 164.299C463.695 162.8 466.734 162.373 469.596 163.112C472.459 163.852 474.912 165.696 476.417 168.242C477.922 170.787 478.355 173.826 477.623 176.691L470.129 206.049Z" fill="#5C59BB"/>
<path d="M504.187 216.068L502.589 179.413C501.376 172.523 505.32 166.009 511.385 164.944C517.452 163.883 523.376 168.662 524.594 175.603L530.603 209.854L504.187 216.068Z" fill="#5C59BB"/>
<path d="M515.886 260.996C525.39 297.201 526.427 343.232 523.863 393.442L511.1 391.846L487.967 296.102L475.203 393.442L460.845 392.644C456.555 339.961 452.379 294.734 459.249 264.986L515.886 260.996Z" fill="#171A21"/>
<path d="M501.187 144.496C497.532 148.391 490.744 146.3 490.268 140.98C490.23 140.567 490.233 140.151 490.276 139.739C490.522 137.382 491.883 135.243 491.557 132.755C491.483 132.135 491.252 131.545 490.887 131.04C487.974 127.139 481.137 132.785 478.388 129.253C476.703 127.088 478.684 123.679 477.391 121.258C475.683 118.064 470.627 119.64 467.456 117.891C463.928 115.944 464.139 110.53 466.461 107.237C469.294 103.221 474.26 101.078 479.163 100.769C484.067 100.46 488.938 101.786 493.516 103.571C498.718 105.598 503.876 108.4 507.077 112.975C510.97 118.539 511.345 126.019 509.398 132.525C508.214 136.482 504.172 141.316 501.187 144.496Z" fill="#171A21"/>
<path d="M670.054 414.605H81.1163C80.8649 414.604 80.624 414.504 80.4465 414.326C80.2689 414.148 80.1693 413.907 80.1693 413.655C80.1693 413.404 80.2689 413.162 80.4465 412.984C80.624 412.806 80.8649 412.706 81.1163 412.705H670.054C670.306 412.706 670.547 412.806 670.724 412.984C670.902 413.162 671.001 413.404 671.001 413.655C671.001 413.907 670.902 414.148 670.724 414.326C670.547 414.504 670.306 414.604 670.054 414.605Z" fill="#D8D6DC"/>
<path d="M374.122 327.523H270.421C269.055 327.531 267.742 326.996 266.77 326.036C265.798 325.077 265.246 323.771 265.236 322.405V90.8889C265.246 89.5229 265.798 88.2169 266.77 87.2573C267.742 86.2977 269.055 85.763 270.421 85.7703H374.122C375.488 85.763 376.8 86.2977 377.773 87.2573C378.745 88.2169 379.296 89.5229 379.307 90.8889V322.405C379.296 323.771 378.745 325.077 377.773 326.036C376.8 326.996 375.488 327.531 374.122 327.523Z" fill="#D8D6DC"/>
<path d="M379.307 160.682H265.236V162.277H379.307V160.682Z" fill="#3B719F"/>
<path d="M379.706 251.726H265.634V253.322H379.706V251.726Z" fill="#3B719F"/>
<path d="M302.728 85.7705H301.132V328.321H302.728V85.7705Z" fill="#3B719F"/>
<path d="M342.613 85.7705H341.017V328.321H342.613V85.7705Z" fill="#3B719F"/>
</g>
<defs>
<clipPath id="clip0_245_3543">
<rect width="694" height="415" fill="white"/>
</clipPath>
</defs>
</svg>
