<svg width="650" height="467" viewBox="0 0 650 467" fill="none" xmlns="http://www.w3.org/2000/svg">
<g clipPath="url(#clip0_245_3425)">
    <path
    d="M17.2107 465.97C17.2107 466.541 17.6691 467 18.2399 467H648.971C649.542 467 650 466.541 650 465.97C650 465.398 649.542 464.939 648.971 464.939H18.2399C17.6691 464.939 17.2107 465.398 17.2107 465.97Z"
    fill="#3B719F"
    />
    <path
    d="M219.18 82.3756H16.8906C9.17607 82.3756 2.89722 76.0903 2.89722 68.3679C2.89722 60.6454 9.17607 54.3601 16.8906 54.3601H219.18C226.895 54.3601 233.174 60.6454 233.174 68.3679C233.174 76.0903 226.895 82.3756 219.18 82.3756ZM16.8906 56.0916C10.1274 56.0916 4.62693 61.5977 4.62693 68.3679C4.62693 75.138 10.1274 80.6441 16.8906 80.6441H219.18C225.944 80.6441 231.444 75.138 231.444 68.3679C231.444 61.5977 225.944 56.0916 219.18 56.0916H16.8906Z"
    fill="#D8DCD6"
    />
    <path
    d="M219.181 246.304H16.8907C9.40965 246.304 3.32971 240.218 3.32971 232.729C3.32971 225.241 9.40965 219.155 16.8907 219.155H219.181C226.662 219.155 232.741 225.241 232.741 232.729C232.741 240.218 226.662 246.304 219.181 246.304Z"
    fill="#3B719F"
    />
    <path
    d="M152.889 27.1498H13.5609C6.07994 27.1498 0 21.0636 0 13.5749C0 6.08619 6.07994 0 13.5609 0H152.889C160.37 0 166.45 6.08619 166.45 13.5749C166.45 21.0636 160.37 27.1498 152.889 27.1498Z"
    fill="#D8DCD6"
    />
    <path
    d="M219.18 137.16H16.8906C9.17607 137.16 2.89722 130.875 2.89722 123.152C2.89722 115.43 9.17607 109.145 16.8906 109.145H219.18C226.895 109.145 233.174 115.43 233.174 123.152C233.174 130.875 226.895 137.16 219.18 137.16ZM16.8906 110.876C10.1274 110.876 4.62693 116.382 4.62693 123.152C4.62693 129.922 10.1274 135.429 16.8906 135.429H219.18C225.944 135.429 231.444 129.922 231.444 123.152C231.444 116.382 225.944 110.876 219.18 110.876H16.8906Z"
    fill="#D8DCD6"
    />
    <path
    d="M219.18 191.953H16.8906C9.17607 191.953 2.89722 185.668 2.89722 177.945C2.89722 170.223 9.17607 163.938 16.8906 163.938H219.18C226.895 163.938 233.174 170.223 233.174 177.945C233.174 185.668 226.895 191.953 219.18 191.953ZM16.8906 165.669C10.1274 165.669 4.62693 171.175 4.62693 177.945C4.62693 184.715 10.1274 190.222 16.8906 190.222H219.18C225.944 190.222 231.444 184.715 231.444 177.945C231.444 171.175 225.944 165.669 219.18 165.669H16.8906Z"
    fill="#D8DCD6"
    />
    <path
    d="M9.93725 44.3H62.9529C64.2156 44.3 65.2448 45.3216 65.2448 46.5943C65.2448 47.8583 64.2156 48.8885 62.9529 48.8885H9.93725C8.67456 48.8885 7.64539 47.8669 7.64539 46.5943C7.64539 45.3303 8.67456 44.3 9.93725 44.3Z"
    fill="#D8DCD6"
    />
    <path
    d="M9.93725 100.383H62.9529C64.2156 100.383 65.2448 101.405 65.2448 102.669C65.2448 103.933 64.2156 104.963 62.9529 104.963H9.93725C8.67456 104.963 7.64539 103.941 7.64539 102.677C7.64539 101.413 8.67456 100.383 9.93725 100.383Z"
    fill="#D8DCD6"
    />
    <path
    d="M9.93725 156.475H62.9529C64.2156 156.475 65.2448 157.496 65.2448 158.769C65.2448 160.033 64.2156 161.054 62.9529 161.054H9.93725C8.67456 161.054 7.64539 160.033 7.64539 158.76C7.64539 157.496 8.67456 156.475 9.93725 156.475Z"
    fill="#D8DCD6"
    />
    <path d="M386.66 114.504L367.322 120.875V93.0071H384.87L386.66 114.504Z" fill="#9F616A" />
    <path
    d="M369.717 100.721C380.359 100.721 388.986 92.085 388.986 81.4321C388.986 70.7792 380.359 62.1433 369.717 62.1433C359.075 62.1433 350.448 70.7792 350.448 81.4321C350.448 92.085 359.075 100.721 369.717 100.721Z"
    fill="#9F616A"
    />
    <path
    d="M375.01 79.5187C371.784 79.4235 369.666 76.1596 368.411 73.1815C367.157 70.2033 365.869 66.7836 362.876 65.5542C360.429 64.55 356.113 71.3461 354.185 69.5367C352.169 67.6493 354.133 57.9617 356.269 56.2215C358.405 54.4814 361.328 54.1437 364.079 54.0139C370.79 53.7022 377.544 54.2476 384.126 55.6242C388.199 56.4726 392.385 57.7539 395.326 60.6974C399.045 64.4374 399.996 70.0734 400.264 75.3458C400.541 80.7394 400.23 86.3841 397.609 91.1024C394.988 95.8207 389.505 99.301 384.247 98.0976C383.719 95.2406 384.256 92.3058 384.463 89.3969C384.662 86.4966 384.455 83.3626 382.682 81.0511C380.917 78.7395 377.129 77.8218 375.071 79.8737"
    fill="#171A21"
    />
    <path
    d="M398.716 86.2023C400.645 84.7912 402.954 83.6051 405.323 83.8995C407.883 84.2111 410.054 86.3235 410.712 88.8255C411.369 91.3275 410.634 94.0806 409.042 96.1238C407.46 98.1669 405.099 99.5175 402.608 100.193C401.164 100.582 399.581 100.747 398.206 100.158C396.182 99.2837 395.084 96.6952 395.879 94.6347"
    fill="#171A21"
    />
    <path
    d="M324.978 267.688C323.69 274.026 326.051 279.817 330.237 280.623C334.423 281.428 338.859 276.935 340.139 270.597C340.684 268.069 340.598 265.455 339.888 262.961L355.828 163.617L335.893 159.86L328.196 260.719C326.561 262.762 325.463 265.152 324.978 267.697V267.688Z"
    fill="#9F616A"
    />
    <path
    d="M367.114 108.088H353.51C343.893 109.551 341.281 114.685 339.093 124.174C335.754 138.649 331.491 157.921 332.338 158.206C333.696 158.657 356.857 169.565 368.662 167.072L367.114 108.088Z"
    fill="#FFFF7E"
    />
    <path d="M380.269 424.527H362.159V450.248H380.269V424.527Z" fill="#9F616A" />
    <path
    d="M344.524 465.814C342.621 465.814 340.926 465.771 339.646 465.65C334.838 465.208 330.245 461.65 327.936 459.572C326.898 458.637 326.57 457.148 327.106 455.867C327.495 454.949 328.265 454.256 329.225 453.988L341.938 450.352L362.522 436.448L362.755 436.864C362.842 437.019 364.865 440.664 365.54 443.123C365.8 444.058 365.73 444.837 365.341 445.443C365.073 445.859 364.693 446.101 364.39 446.24C364.762 446.629 365.929 447.426 369.527 447.997C374.777 448.828 375.884 443.383 375.927 443.158L375.962 442.976L376.117 442.872C378.617 441.262 380.156 440.526 380.684 440.681C381.012 440.777 381.566 440.95 383.062 455.78C383.209 456.248 384.256 459.659 383.546 462.922C382.777 466.472 367.278 465.251 364.174 464.974C364.087 464.983 352.481 465.814 344.533 465.814H344.524Z"
    fill="#171A21"
    />
    <path
    d="M431.837 404.318L416.47 413.912L430.067 435.736L445.434 426.143L431.837 404.318Z"
    fill="#9F616A"
    />
    <path
    d="M411.429 462.29C409.302 462.29 407.347 462.031 405.955 461.788C404.588 461.546 403.516 460.455 403.291 459.087C403.135 458.1 403.421 457.105 404.095 456.369L412.96 446.551L423.079 423.851L423.494 424.076C423.65 424.163 427.291 426.18 429.168 427.912C429.885 428.57 430.24 429.271 430.223 429.989C430.214 430.492 430.024 430.89 429.834 431.176C430.352 431.314 431.762 431.366 435.118 429.946C440.013 427.877 438.076 422.665 437.989 422.449L437.92 422.276L437.998 422.111C439.269 419.419 440.177 417.982 440.713 417.834C441.051 417.739 441.604 417.592 450.711 429.392C451.083 429.704 453.773 432.05 454.897 435.193C456.117 438.612 442.322 445.789 439.546 447.192C439.459 447.261 425.025 457.763 419.092 460.749C416.74 461.935 413.955 462.299 411.421 462.299L411.429 462.29Z"
    fill="#171A21"
    />
    <path
    d="M393.605 209.432H342.898L338.297 256.65L358.431 431.115H384.316L373.964 330.351L415.953 421.323L438.958 405.203L406.171 320.274C406.171 320.274 417.881 246.287 408.679 227.855C399.477 209.432 393.605 209.432 393.605 209.432Z"
    fill="#171A21"
    />
    <path d="M418.833 212.307H338.297L362.461 108.088H397.548L418.833 212.307Z" fill="#FFFF7E" />
    <path
    d="M426.08 267.688C427.369 274.026 425.008 279.817 420.822 280.623C416.636 281.428 412.199 276.935 410.919 270.597C410.374 268.069 410.461 265.455 411.17 262.961L395.231 163.617L415.166 159.86L422.863 260.719C424.497 262.762 425.596 265.152 426.08 267.697V267.688Z"
    fill="#9F616A"
    />
    <path
    d="M383.944 108.088H397.548C407.166 109.551 409.777 114.685 411.966 124.174C415.304 138.649 419.568 157.921 418.72 158.206C417.362 158.657 394.201 169.565 382.396 167.072L383.944 108.088Z"
    fill="#FFFF7E"
    />
</g>
<defs>
    <clipPath id="clip0_245_3425">
    <rect width="650" height="467" fill="white" />
    </clipPath>
</defs>
</svg>