<svg width="614" height="701" viewBox="0 0 614 701" fill="none" xmlns="http://www.w3.org/2000/svg">
<g clip-path="url(#clip0_245_3542)">
<path d="M294.343 657.212L293.562 639.636C293.48 639.593 293.399 639.55 293.318 639.507C284.942 635.112 275.342 643.068 278.017 652.141C280.534 660.678 282.226 669.881 286.833 677.353C289.556 681.693 293.22 685.364 297.554 688.096C301.889 690.827 306.782 692.548 311.872 693.131L322.514 699.647C323.974 691.506 323.652 683.146 321.57 675.142C319.488 667.138 315.696 659.68 310.454 653.283C307.478 649.723 304.065 646.553 300.297 643.846C297.748 650.566 294.343 657.212 294.343 657.212Z" fill="#F6F7F8"/>
<path d="M199.067 478.844C178.579 457.715 148.89 445.597 117.611 445.597L116.404 445.601C95.8015 445.608 75.5665 440.144 57.7687 429.766L55.9166 428.687L57.4083 427.15C65.4839 418.795 72.227 409.248 77.4015 398.843C73.7265 402.27 69.3433 404.846 64.5622 406.391C59.7811 407.935 54.7189 408.41 49.7339 407.781C44.4711 407.154 39.4186 405.343 34.9555 402.484C30.4924 399.626 26.7345 395.793 23.9638 391.275C13.0315 373.537 0 348.368 0 329.195C0.0170178 312.988 3.41039 296.963 9.96384 282.14C16.5173 267.318 26.087 254.023 38.0631 243.104C45.645 236.267 51.701 227.91 55.8362 218.576C59.9715 209.242 62.0931 199.141 62.0629 188.932L62.0568 187.48C62.0548 174.039 63.6973 160.649 66.9476 147.607L67.2777 146.29L68.6327 146.337C77.3705 146.635 86.113 145.902 94.6795 144.155C86.6441 143.17 78.7833 141.079 71.3199 137.942L69.8623 137.352L70.357 135.859C104.458 114.745 181.434 125.679 226.114 23.4552C262.342 -59.434 390.17 97.0361 390.17 187.48C390.17 196.708 381.037 208.904 387.874 215.004C461.784 280.942 410.787 323.283 394.708 365.889C390.894 375.998 399.165 387.095 399.165 398.031C399.165 399.887 399.118 401.803 399.024 403.725L398.882 406.68L396.418 405.04C391.543 401.846 387.024 398.14 382.938 393.983C387.177 403.737 389.174 414.318 388.784 424.945C388.393 435.573 385.625 445.978 380.682 455.395C372.936 470.014 365.443 480.48 358.41 486.5C335.881 505.78 306.837 515.725 277.219 514.302C247.601 512.879 219.645 500.195 199.067 478.844Z" fill="#FFFF7E"/>
<path d="M322.808 698.78C323.312 698.779 323.798 698.597 324.178 698.267C324.558 697.936 324.807 697.48 324.878 696.981C324.967 696.356 333.678 633.527 325.854 550.025C318.629 472.909 295.425 361.834 225.915 270.61C225.749 270.391 225.541 270.207 225.303 270.069C225.065 269.93 224.802 269.84 224.53 269.803C224.257 269.766 223.98 269.783 223.714 269.853C223.448 269.923 223.198 270.045 222.979 270.212C222.761 270.379 222.577 270.587 222.438 270.825C222.3 271.063 222.21 271.326 222.173 271.598C222.137 271.871 222.154 272.148 222.225 272.414C222.295 272.68 222.418 272.93 222.585 273.148C291.494 363.584 314.511 473.844 321.686 550.416C329.464 633.432 320.821 695.771 320.733 696.391C320.691 696.688 320.713 696.991 320.798 697.278C320.883 697.566 321.029 697.832 321.226 698.059C321.422 698.285 321.665 698.467 321.938 698.591C322.211 698.715 322.508 698.78 322.808 698.78Z" fill="#171A21"/>
<path d="M266.084 399.286C266.526 399.286 266.957 399.147 267.315 398.887C267.673 398.627 267.939 398.261 268.076 397.84C268.213 397.42 268.213 396.967 268.077 396.546C267.94 396.126 267.674 395.759 267.316 395.499C267.064 395.316 241.635 376.993 203.62 363.074C168.477 350.208 115.038 338.544 60.0226 356.054C59.7602 356.137 59.5168 356.271 59.3063 356.448C59.0958 356.625 58.9222 356.842 58.7956 357.086C58.669 357.331 58.5918 357.597 58.5685 357.872C58.5451 358.146 58.576 358.422 58.6595 358.684C58.7429 358.946 58.8772 359.19 59.0548 359.4C59.2323 359.61 59.4495 359.783 59.6941 359.909C59.9386 360.036 60.2056 360.112 60.4798 360.135C60.754 360.158 61.0301 360.127 61.2921 360.043C115.18 342.893 167.651 354.364 202.18 367.006C239.653 380.726 264.607 398.706 264.855 398.886C265.212 399.146 265.642 399.286 266.084 399.286Z" fill="#171A21"/>
<path d="M361.896 160.653C361.928 160.212 361.82 159.772 361.587 159.397C361.353 159.021 361.007 158.729 360.598 158.562C360.188 158.395 359.736 158.362 359.307 158.468C358.878 158.574 358.493 158.813 358.208 159.151C358.007 159.39 337.901 183.433 321.28 220.347C305.917 254.472 290.435 306.933 303.937 363.066C304.066 363.606 304.405 364.072 304.879 364.362C305.352 364.652 305.921 364.741 306.461 364.612C307.001 364.482 307.467 364.143 307.757 363.669C308.047 363.196 308.137 362.627 308.007 362.087C294.783 307.104 310.002 255.596 325.098 222.066C341.481 185.679 361.211 162.084 361.409 161.85C361.694 161.513 361.864 161.094 361.896 160.653Z" fill="#171A21"/>
<path d="M359.063 268.597C360.829 282.848 370.703 294.597 385.063 294.597C391.959 294.597 398.572 291.858 403.448 286.982C408.324 282.106 411.063 275.493 411.063 268.597C411.063 254.238 399.361 243.925 385.063 242.597C369.892 241.189 356.795 250.302 359.063 268.597Z" fill="#171A21"/>
<path d="M397.105 687.328L407.006 687.327L411.716 649.137L397.103 649.138L397.105 687.328Z" fill="#FFB6B6"/>
<path d="M396.757 697.656L427.204 697.655V697.27C427.204 694.127 425.955 691.113 423.733 688.891C421.51 686.668 418.496 685.42 415.353 685.42L409.791 681.2L399.414 685.42L396.756 685.42L396.757 697.656Z" fill="#171A21"/>
<path d="M358.105 687.328L368.006 687.327L372.716 649.137L358.103 649.138L358.105 687.328Z" fill="#FFB6B6"/>
<path d="M357.757 697.656L388.204 697.655V697.27C388.204 694.127 386.955 691.113 384.733 688.891C382.51 686.668 379.496 685.42 376.353 685.42L370.791 681.2L360.414 685.42L357.756 685.42L357.757 697.656Z" fill="#171A21"/>
<path d="M431.177 448.137L438.177 472.137L429.931 573.782C429.931 573.782 434.177 580.137 431.177 580.137C428.177 580.137 424.33 581.546 426.754 585.341C429.177 589.137 420.894 602.762 420.894 602.762L409.177 675.137L394.248 674.916C394.248 674.916 386.658 670.688 390.917 666.412C395.177 662.137 398.177 662.137 394.177 658.137C390.177 654.137 390.177 655.341 390.177 652.239C390.177 649.137 386.17 611.223 395.673 596.68L392.81 537.385L386.065 595.546L372.177 673.137L357.795 673.018C357.795 673.018 351.153 666.616 351.165 661.876C351.177 657.137 355.269 656.743 352.223 653.94C349.177 651.137 349.177 608.074 358.177 584.137C358.177 584.137 363.268 570.763 358.166 566.18C353.063 561.597 358.159 556.354 358.159 556.354C358.159 556.354 366.241 553.432 358.152 545.015C350.063 536.597 358.108 477.066 358.108 477.066C358.108 477.066 349.266 453.035 358.221 443.586C367.177 434.137 431.177 448.137 431.177 448.137Z" fill="#171A21"/>
<path d="M306.502 489.486L318.992 459.304L328.832 464.771L322.889 495.474C323.484 497.419 323.525 499.491 323.007 501.458C322.489 503.426 321.432 505.209 319.956 506.609C318.48 508.008 316.642 508.968 314.65 509.38C312.658 509.793 310.591 509.642 308.68 508.943C306.77 508.245 305.092 507.028 303.835 505.429C302.578 503.829 301.793 501.911 301.566 499.889C301.34 497.868 301.682 495.823 302.554 493.985C303.426 492.148 304.794 490.59 306.502 489.486Z" fill="#FFB6B6"/>
<path d="M516.077 250.816L497.073 277.383L488.728 269.829L501.473 241.271C501.334 239.242 501.764 237.214 502.714 235.415C503.664 233.617 505.098 232.119 506.853 231.091C508.608 230.062 510.615 229.543 512.648 229.593C514.682 229.642 516.661 230.258 518.364 231.371C520.067 232.484 521.425 234.05 522.287 235.892C523.149 237.735 523.479 239.782 523.242 241.802C523.004 243.822 522.207 245.736 520.942 247.328C519.676 248.921 517.991 250.128 516.077 250.816Z" fill="#FFB6B6"/>
<path d="M433.063 450.597C445.389 469.716 383.431 493.978 359.658 484.237C355.496 482.532 341.176 476.898 350.964 469.088C360.752 461.277 349.829 460.178 349.571 455.094C349.398 451.695 352.03 444.238 349.284 444.558C346.538 444.877 343.324 440.176 349.305 438.154C355.285 436.131 349.369 434.286 349.421 432.366C349.993 411.41 366.071 378.079 366.071 378.079L337.1 452.136C337.1 452.136 337.314 464.948 333.62 461.033C329.925 457.117 330.194 469.789 330.194 469.789C330.194 469.789 324.7 473.623 327.859 475.757C331.018 477.891 324.458 484.451 324.458 484.451L309.152 483.357C309.152 483.357 309.391 471.987 312.005 469.472C314.618 466.957 313.335 463.001 313.335 463.001C313.335 463.001 320.139 456.977 315.577 452.086C309.71 445.796 331.102 339.556 338.484 340.608C339.527 335.529 341.955 330.837 345.499 327.051C349.043 323.266 353.564 320.533 358.564 319.157L375.096 314.605L378.032 302.957H401.31L405.365 310.611L423.063 318.597C426.396 313.894 428.888 308.937 442.538 307.331C442.538 307.331 479.321 273.864 477.525 271.251C475.729 268.638 481.431 262.52 481.431 262.52C481.431 262.52 486.301 260.926 483.553 260.075C480.805 259.224 485.999 257.257 485.999 257.257C485.999 257.257 490.809 255.993 488.54 254.328C486.272 252.664 496.112 251.571 496.112 251.571L508.879 261.988L506.298 266.363C506.298 266.363 507.872 272.321 505.818 270.146C503.765 267.971 503.378 274.283 503.378 274.283C503.378 274.283 502.33 281.195 496.112 283.277C489.893 285.36 485.178 305.144 485.178 305.144C470.514 324.211 453.207 339.086 432.698 348.877C440.691 358.052 433.063 450.597 433.063 450.597Z" fill="#5C59BB"/>
<path d="M387.937 296.141C400.67 296.141 410.993 285.819 410.993 273.085C410.993 260.352 400.67 250.03 387.937 250.03C375.204 250.03 364.881 260.352 364.881 273.085C364.881 285.819 375.204 296.141 387.937 296.141Z" fill="#FFB6B6"/>
<path d="M364.063 275.597C364.793 280.607 369.063 287.597 368.063 287.597C367.063 287.597 359.953 266.944 367.063 265.597C372.22 264.621 373.373 265.477 378.193 263.387L377.513 264.027C380.703 266.347 385.143 264.917 388.783 263.407C392.433 261.907 396.863 260.477 400.063 262.787C402.073 264.237 402.923 266.757 404.173 268.897C405.423 271.047 407.733 273.077 410.113 272.417C412.023 271.887 413.123 269.747 413.113 267.767C413.103 265.787 410.525 263.904 411.393 262.127C413.966 256.863 411.652 253.275 406.043 250.797C404.003 250.487 401.963 250.171 399.923 249.847C400.992 248.367 402.288 247.064 403.763 245.987C403.14 244.39 402.062 243.009 400.663 242.017C399.033 241.047 397.013 241.117 395.123 241.217C390.903 241.437 386.686 241.657 382.473 241.877C379.353 242.037 376.123 242.227 373.333 243.657C369.853 245.447 367.573 248.937 365.913 252.487C362.193 260.467 362.783 266.887 364.063 275.597Z" fill="#171A21"/>
<path d="M268.152 700.254L494.902 700.561C495.218 700.561 495.521 700.436 495.744 700.213C495.968 699.989 496.093 699.686 496.093 699.371C496.093 699.055 495.968 698.752 495.744 698.529C495.521 698.305 495.218 698.18 494.902 698.18L268.152 697.873C267.837 697.873 267.534 697.998 267.31 698.221C267.087 698.445 266.962 698.747 266.962 699.063C266.962 699.379 267.087 699.682 267.31 699.905C267.534 700.128 267.837 700.254 268.152 700.254Z" fill="#D8D6DC"/>
<path d="M186.143 596.463C186.561 593.59 183.551 590.774 179.422 590.173C175.292 589.572 171.605 591.414 171.187 594.287C170.769 597.16 173.778 599.976 177.908 600.577C182.038 601.178 185.725 599.336 186.143 596.463Z" fill="#5FBE2F"/>
<path d="M235.314 591.665C235.732 588.792 232.723 585.976 228.593 585.375C224.463 584.774 220.776 586.616 220.358 589.489C219.94 592.362 222.949 595.178 227.079 595.779C231.209 596.38 234.896 594.538 235.314 591.665Z" fill="#171A21"/>
<path d="M172.678 556.655C173.096 553.782 170.087 550.966 165.957 550.365C161.827 549.764 158.14 551.606 157.722 554.479C157.304 557.352 160.313 560.168 164.443 560.769C168.573 561.37 172.26 559.528 172.678 556.655Z" fill="#3B719F"/>
<path d="M151.312 540.349C151.332 537.711 149.86 535.562 148.026 535.548C146.191 535.534 144.687 537.661 144.667 540.299C144.647 542.936 146.119 545.085 147.953 545.099C149.788 545.113 151.292 542.986 151.312 540.349Z" fill="#5FBE2F"/>
<path d="M144.066 509.977C144.086 507.34 142.615 505.19 140.78 505.176C138.945 505.163 137.442 507.289 137.422 509.927C137.402 512.564 138.873 514.714 140.708 514.728C142.543 514.742 144.046 512.615 144.066 509.977Z" fill="#171A21"/>
<path d="M200.411 563.429C200.431 560.791 198.96 558.642 197.125 558.628C195.29 558.614 193.787 560.741 193.767 563.379C193.747 566.016 195.218 568.166 197.053 568.179C198.888 568.193 200.391 566.066 200.411 563.429Z" fill="#5FBE2F"/>
<path d="M176.649 575.293C176.669 572.656 175.198 570.506 173.363 570.492C171.528 570.478 170.025 572.605 170.005 575.243C169.985 577.88 171.456 580.03 173.291 580.044C175.126 580.058 176.629 577.931 176.649 575.293Z" fill="#3B719F"/>
<path d="M209.727 597.221C209.746 594.583 208.275 592.434 206.44 592.42C204.606 592.406 203.102 594.533 203.082 597.171C203.062 599.808 204.533 601.958 206.368 601.971C208.203 601.985 209.707 599.858 209.727 597.221Z" fill="#171A21"/>
<path d="M564.143 442.463C564.561 439.59 561.552 436.774 557.422 436.173C553.292 435.572 549.605 437.414 549.187 440.287C548.769 443.16 551.778 445.976 555.908 446.577C560.038 447.178 563.725 445.336 564.143 442.463Z" fill="#5FBE2F"/>
<path d="M613.314 437.665C613.732 434.792 610.723 431.976 606.593 431.375C602.463 430.774 598.776 432.616 598.358 435.489C597.94 438.362 600.949 441.178 605.079 441.779C609.209 442.38 612.896 440.538 613.314 437.665Z" fill="#171A21"/>
<path d="M550.677 402.655C551.095 399.782 548.086 396.966 543.956 396.365C539.826 395.764 536.139 397.606 535.721 400.479C535.303 403.352 538.312 406.168 542.442 406.769C546.572 407.37 550.259 405.528 550.677 402.655Z" fill="#3B719F"/>
<path d="M529.312 386.349C529.332 383.711 527.86 381.562 526.026 381.548C524.191 381.534 522.687 383.661 522.667 386.299C522.647 388.936 524.119 391.085 525.953 391.099C527.788 391.113 529.292 388.986 529.312 386.349Z" fill="#5FBE2F"/>
<path d="M522.066 355.977C522.086 353.339 520.615 351.19 518.78 351.176C516.945 351.162 515.442 353.289 515.422 355.927C515.402 358.564 516.873 360.714 518.708 360.728C520.543 360.741 522.046 358.614 522.066 355.977Z" fill="#171A21"/>
<path d="M578.411 409.429C578.431 406.791 576.96 404.642 575.125 404.628C573.29 404.614 571.787 406.741 571.767 409.379C571.747 412.016 573.218 414.166 575.053 414.179C576.888 414.193 578.391 412.066 578.411 409.429Z" fill="#5FBE2F"/>
<path d="M554.649 421.293C554.669 418.655 553.198 416.506 551.363 416.492C549.528 416.478 548.025 418.605 548.005 421.243C547.985 423.88 549.456 426.03 551.291 426.043C553.126 426.057 554.629 423.93 554.649 421.293Z" fill="#3B719F"/>
<path d="M587.727 443.221C587.747 440.583 586.275 438.434 584.441 438.42C582.606 438.406 581.102 440.533 581.082 443.17C581.062 445.808 582.534 447.957 584.368 447.971C586.203 447.985 587.707 445.858 587.727 443.221Z" fill="#171A21"/>
<path d="M381.143 157.463C381.561 154.59 378.552 151.774 374.422 151.173C370.292 150.572 366.605 152.414 366.187 155.287C365.769 158.16 368.778 160.976 372.908 161.577C377.038 162.178 380.725 160.336 381.143 157.463Z" fill="#F6F7F8"/>
<path d="M430.314 152.665C430.732 149.792 427.723 146.976 423.593 146.375C419.463 145.774 415.776 147.616 415.358 150.489C414.94 153.362 417.949 156.178 422.079 156.779C426.209 157.38 429.896 155.538 430.314 152.665Z" fill="#171A21"/>
<path d="M367.678 117.655C368.096 114.782 365.087 111.966 360.957 111.365C356.827 110.764 353.14 112.606 352.722 115.479C352.304 118.352 355.313 121.168 359.443 121.769C363.573 122.37 367.26 120.528 367.678 117.655Z" fill="#3B719F"/>
<path d="M346.312 101.349C346.332 98.711 344.86 96.5616 343.026 96.5477C341.191 96.5339 339.687 98.6608 339.667 101.298C339.647 103.936 341.119 106.085 342.953 106.099C344.788 106.113 346.292 103.986 346.312 101.349Z" fill="#5FBE2F"/>
<path d="M339.066 70.977C339.086 68.3394 337.615 66.19 335.78 66.1762C333.945 66.1623 332.442 68.2892 332.422 70.9267C332.402 73.5642 333.873 75.7136 335.708 75.7275C337.543 75.7414 339.046 73.6145 339.066 70.977Z" fill="#171A21"/>
<path d="M395.411 124.429C395.431 121.791 393.96 119.642 392.125 119.628C390.29 119.614 388.787 121.741 388.767 124.379C388.747 127.016 390.218 129.166 392.053 129.179C393.888 129.193 395.391 127.066 395.411 124.429Z" fill="#5FBE2F"/>
<path d="M371.649 136.293C371.669 133.655 370.198 131.506 368.363 131.492C366.528 131.478 365.025 133.605 365.005 136.243C364.985 138.88 366.456 141.03 368.291 141.043C370.126 141.057 371.629 138.93 371.649 136.293Z" fill="#3B719F"/>
<path d="M404.727 158.221C404.747 155.583 403.275 153.434 401.441 153.42C399.606 153.406 398.102 155.533 398.082 158.17C398.062 160.808 399.534 162.957 401.368 162.971C403.203 162.985 404.707 160.858 404.727 158.221Z" fill="#171A21"/>
</g>
<defs>
<clipPath id="clip0_245_3542">
<rect width="613.353" height="700.561" fill="white"/>
</clipPath>
</defs>
</svg>
