<svg width="376" height="498" viewBox="0 0 376 498" fill="none" xmlns="http://www.w3.org/2000/svg">
<path d="M341.879 284.572H144.634C137.946 284.564 131.533 281.892 126.803 277.142C122.074 272.393 119.413 265.953 119.406 259.236V26.6064C119.413 19.8892 122.074 13.4493 126.803 8.69959C131.533 3.94984 137.946 1.2781 144.634 1.27051H328.139L367.108 32.4635V259.236C367.101 265.953 364.44 272.393 359.71 277.142C354.981 281.892 348.568 284.564 341.879 284.572Z" fill="#D8D6DC"/>
<path d="M145.036 8.89258C140.261 8.89796 135.684 10.7959 132.308 14.17C128.932 17.5442 127.032 22.1189 127.027 26.8906V258.951C127.032 263.722 128.932 268.297 132.308 271.671C135.684 275.045 140.261 276.943 145.036 276.949H342.748C347.523 276.943 352.1 275.045 355.476 271.671C358.852 268.297 360.751 263.722 360.757 258.951V36.2386L326.428 8.89258H145.036Z" fill="#F6F7F8"/>
<path d="M304.437 76.2249H213.833C213.277 76.2249 212.725 76.1099 212.211 75.8864C211.697 75.663 211.23 75.3354 210.836 74.9226C210.442 74.5097 210.13 74.0195 209.917 73.48C209.704 72.9406 209.594 72.3624 209.594 71.7785C209.594 71.1945 209.704 70.6164 209.917 70.0769C210.13 69.5374 210.442 69.0472 210.836 68.6344C211.23 68.2215 211.697 67.8939 212.211 67.6705C212.725 67.447 213.277 67.332 213.833 67.332H304.437C304.993 67.332 305.545 67.447 306.059 67.6705C306.573 67.8939 307.04 68.2215 307.434 68.6344C307.828 69.0472 308.14 69.5374 308.353 70.0769C308.566 70.6164 308.676 71.1945 308.676 71.7785C308.676 72.3624 308.566 72.9406 308.353 73.48C308.14 74.0195 307.828 74.5097 307.434 74.9226C307.04 75.3354 306.573 75.663 306.059 75.8864C305.545 76.1099 304.993 76.2249 304.437 76.2249Z" fill="#D8D6DC"/>
<path d="M320.986 90.1985H213.798C212.683 90.1985 211.614 89.7301 210.826 88.8962C210.037 88.0623 209.594 86.9314 209.594 85.7521C209.594 84.5728 210.037 83.4419 210.826 82.608C211.614 81.7741 212.683 81.3057 213.798 81.3057H320.986C322.1 81.3057 323.17 81.7741 323.958 82.608C324.746 83.4419 325.189 84.5728 325.189 85.7521C325.189 86.9314 324.746 88.0623 323.958 88.8962C323.17 89.7301 322.1 90.1985 320.986 90.1985Z" fill="#D8D6DC"/>
<path d="M304.437 139.744H213.833C212.709 139.744 211.631 139.276 210.836 138.442C210.041 137.608 209.594 136.477 209.594 135.298C209.594 134.119 210.041 132.988 210.836 132.154C211.631 131.32 212.709 130.852 213.833 130.852H304.437C305.561 130.852 306.639 131.32 307.434 132.154C308.229 132.988 308.676 134.119 308.676 135.298C308.676 136.477 308.229 137.608 307.434 138.442C306.639 139.276 305.561 139.744 304.437 139.744Z" fill="#D8D6DC"/>
<path d="M320.986 153.719H213.798C212.683 153.719 211.614 153.318 210.826 152.603C210.037 151.888 209.594 150.919 209.594 149.908C209.594 148.897 210.037 147.928 210.826 147.213C211.614 146.498 212.683 146.097 213.798 146.097H320.986C322.1 146.097 323.17 146.498 323.958 147.213C324.746 147.928 325.189 148.897 325.189 149.908C325.189 150.919 324.746 151.888 323.958 152.603C323.17 153.318 322.1 153.719 320.986 153.719Z" fill="#D8D6DC"/>
<path d="M304.437 203.265H213.833C212.709 203.265 211.631 202.863 210.836 202.149C210.041 201.434 209.594 200.465 209.594 199.454C209.594 198.443 210.041 197.474 210.836 196.759C211.631 196.044 212.709 195.643 213.833 195.643H304.437C305.561 195.643 306.639 196.044 307.434 196.759C308.229 197.474 308.676 198.443 308.676 199.454C308.676 200.465 308.229 201.434 307.434 202.149C306.639 202.863 305.561 203.265 304.437 203.265Z" fill="#D8D6DC"/>
<path d="M320.986 217.24H213.798C212.683 217.24 211.614 216.838 210.826 216.123C210.037 215.409 209.594 214.439 209.594 213.428C209.594 212.418 210.037 211.448 210.826 210.733C211.614 210.019 212.683 209.617 213.798 209.617H320.986C322.1 209.617 323.17 210.019 323.958 210.733C324.746 211.448 325.189 212.418 325.189 213.428C325.189 214.439 324.746 215.409 323.958 216.123C323.17 216.838 322.1 217.24 320.986 217.24Z" fill="#D8D6DC"/>
<path d="M176.567 94.0103C184.986 94.0103 191.811 87.1849 191.811 78.7654C191.811 70.3459 184.986 63.5205 176.567 63.5205C168.149 63.5205 161.324 70.3459 161.324 78.7654C161.324 87.1849 168.149 94.0103 176.567 94.0103Z" fill="#3B719F"/>
<path d="M175.187 85.1173C174.858 85.1178 174.537 85.0084 174.273 84.8055L174.257 84.7929L170.814 82.0903C170.493 81.8368 170.282 81.4626 170.229 81.05C170.176 80.6374 170.285 80.2201 170.532 79.8898C170.779 79.5595 171.143 79.3433 171.545 79.2886C171.947 79.2339 172.354 79.3453 172.676 79.5982L174.906 81.3531L180.175 74.2981C180.298 74.1346 180.45 73.9973 180.624 73.8942C180.798 73.7911 180.99 73.7241 181.189 73.6971C181.388 73.6701 181.59 73.6836 181.784 73.7369C181.978 73.7902 182.16 73.8821 182.32 74.0075L182.287 74.0545L182.321 74.0078C182.642 74.2615 182.853 74.6356 182.906 75.0482C182.959 75.4608 182.85 75.8782 182.604 76.2087L176.406 84.5031C176.262 84.6942 176.078 84.8489 175.867 84.9551C175.656 85.0612 175.424 85.1161 175.189 85.1154L175.187 85.1173Z" fill="#F6F7F8"/>
<path d="M178.473 157.531C186.541 157.531 193.081 150.99 193.081 142.921C193.081 134.853 186.541 128.312 178.473 128.312C170.405 128.312 163.865 134.853 163.865 142.921C163.865 150.99 170.405 157.531 178.473 157.531Z" fill="#D8D6DC"/>
<path d="M176.567 221.051C184.986 221.051 191.811 214.51 191.811 206.442C191.811 198.373 184.986 191.832 176.567 191.832C168.149 191.832 161.324 198.373 161.324 206.442C161.324 214.51 168.149 221.051 176.567 221.051Z" fill="#D8D6DC"/>
<path d="M366.584 33.0307H336.116C333.892 33.0307 331.759 32.1374 330.186 30.5473C328.613 28.9572 327.73 26.8005 327.73 24.5517V1.80045C327.73 1.70085 327.757 1.60325 327.81 1.51887C327.862 1.43448 327.937 1.36673 328.026 1.32336C328.114 1.28 328.213 1.26279 328.311 1.2737C328.409 1.28461 328.502 1.32321 328.579 1.38506L366.909 32.0854C366.995 32.1537 367.057 32.2472 367.087 32.3528C367.118 32.4585 367.115 32.5711 367.079 32.675C367.043 32.7789 366.976 32.869 366.888 32.9327C366.799 32.9965 366.693 33.0307 366.584 33.0307Z" fill="#D8D6DC"/>
<path d="M159.91 327.158L43.2957 351.627C39.9257 352.331 36.4131 351.674 33.5285 349.803C30.6439 347.931 28.623 344.997 27.909 341.643L7.89817 247.137C7.19179 243.783 7.85103 240.286 9.73125 237.414C11.6115 234.543 14.5591 232.531 17.9275 231.82L134.542 207.352C137.912 206.648 141.425 207.305 144.309 209.176C147.194 211.048 149.215 213.982 149.929 217.335L169.94 311.842C170.646 315.196 169.987 318.693 168.106 321.564C166.226 324.436 163.279 326.448 159.91 327.158Z" fill="#F6F7F8"/>
<path d="M159.91 327.158L43.2957 351.627C39.9257 352.331 36.4131 351.674 33.5285 349.803C30.6439 347.931 28.623 344.997 27.909 341.643L7.89817 247.137C7.19179 243.783 7.85103 240.286 9.73125 237.414C11.6115 234.543 14.5591 232.531 17.9275 231.82L134.542 207.352C137.912 206.648 141.425 207.305 144.309 209.176C147.194 211.048 149.215 213.982 149.929 217.335L169.94 311.842C170.646 315.196 169.987 318.693 168.106 321.564C166.226 324.436 163.279 326.448 159.91 327.158ZM18.2427 233.309C15.2706 233.936 12.6697 235.711 11.0107 238.245C9.35166 240.778 8.76997 243.864 9.39322 246.824L29.4041 341.33C30.0341 344.288 31.8173 346.877 34.3625 348.529C36.9077 350.18 40.007 350.76 42.9805 350.139L159.595 325.67C162.567 325.043 165.168 323.268 166.827 320.734C168.486 318.201 169.068 315.115 168.445 312.155L148.434 217.649C147.804 214.691 146.02 212.101 143.475 210.45C140.93 208.798 137.831 208.219 134.857 208.84L18.2427 233.309Z" fill="#D8D6DC"/>
<path d="M127.959 237.868L68.6106 250.216C68.0913 250.335 67.5455 250.255 67.0837 249.992C66.6219 249.729 66.2785 249.303 66.1228 248.8C66.0517 248.537 66.0354 248.263 66.0751 247.994C66.1148 247.725 66.2096 247.467 66.3536 247.236C66.4977 247.004 66.6881 246.804 66.9131 246.647C67.1381 246.491 67.3931 246.381 67.6625 246.325L128.076 233.755C130.435 235.067 129.69 237.508 127.959 237.868Z" fill="#D8D6DC"/>
<path d="M129.262 248.031L71.1 260.38C70.5911 260.498 70.0562 260.418 69.6037 260.155C69.1511 259.892 68.8145 259.466 68.662 258.963C68.5923 258.7 68.5763 258.426 68.6152 258.157C68.6541 257.888 68.747 257.63 68.8882 257.399C69.0294 257.167 69.2159 256.967 69.4365 256.81C69.657 256.654 69.9069 256.544 70.1709 256.488L129.376 243.918C131.688 245.23 130.958 247.671 129.262 248.031Z" fill="#D8D6DC"/>
<path d="M59.1974 269.34L41.4184 273.09C40.8378 273.211 40.2325 273.098 39.7355 272.774C39.2385 272.45 38.8904 271.941 38.7674 271.361L34.3451 250.368C34.2233 249.787 34.3368 249.181 34.6608 248.684C34.9847 248.187 35.4927 247.838 36.073 247.715L53.852 243.966C54.4326 243.844 55.0378 243.958 55.5347 244.282C56.0317 244.606 56.3799 245.114 56.503 245.695L60.9253 266.687C61.0471 267.268 60.9336 267.874 60.6096 268.371C60.2856 268.869 59.7778 269.217 59.1974 269.34Z" fill="#D8D6DC"/>
<path d="M134.323 269.603L44.4556 288.33C43.9403 288.448 43.3988 288.368 42.9406 288.107C42.4825 287.845 42.1417 287.422 41.9873 286.922C41.9167 286.661 41.9006 286.389 41.9399 286.121C41.9793 285.854 42.0733 285.598 42.2163 285.368C42.3592 285.137 42.5481 284.939 42.7714 284.783C42.9946 284.627 43.2476 284.518 43.5149 284.463L134.439 265.516C136.779 266.82 136.04 269.245 134.323 269.603Z" fill="#D8D6DC"/>
<path d="M135.593 279.993L45.7258 299.76C45.2106 299.885 44.6691 299.801 44.2109 299.525C43.7527 299.249 43.412 298.802 43.2576 298.274C43.1869 297.999 43.1708 297.711 43.2102 297.429C43.2496 297.147 43.3436 296.876 43.4865 296.633C43.6295 296.391 43.8184 296.181 44.0416 296.016C44.2649 295.852 44.5179 295.737 44.7852 295.678L135.709 275.679C138.05 277.055 137.31 279.615 135.593 279.993Z" fill="#D8D6DC"/>
<path d="M138.133 290.156L48.2664 309.923C47.7511 310.048 47.2096 309.964 46.7514 309.688C46.2932 309.412 45.9525 308.965 45.7981 308.437C45.7275 308.162 45.7114 307.874 45.7507 307.592C45.7901 307.31 45.8841 307.039 46.0271 306.797C46.17 306.554 46.3589 306.344 46.5822 306.18C46.8054 306.015 47.0584 305.9 47.3257 305.842L138.25 285.842C140.59 287.218 139.85 289.778 138.133 290.156Z" fill="#D8D6DC"/>
<path d="M140.674 301.362L50.8069 320.089C50.2916 320.208 49.7501 320.128 49.2919 319.867C48.8337 319.605 48.493 319.182 48.3386 318.681C48.268 318.421 48.2519 318.148 48.2913 317.881C48.3306 317.614 48.4247 317.357 48.5676 317.127C48.7105 316.897 48.8994 316.698 49.1227 316.543C49.346 316.387 49.599 316.278 49.8662 316.223L140.79 297.275C143.131 298.579 142.391 301.005 140.674 301.362Z" fill="#D8D6DC"/>
<path d="M141.944 311.526L52.0771 330.252C51.5619 330.371 51.0204 330.291 50.5622 330.03C50.104 329.768 49.7633 329.345 49.6089 328.845C49.5383 328.584 49.5222 328.311 49.5615 328.044C49.6009 327.777 49.6949 327.52 49.8379 327.29C49.9808 327.06 50.1697 326.861 50.393 326.706C50.6162 326.55 50.8692 326.441 51.1365 326.386L142.061 307.438C144.401 308.742 143.661 311.168 141.944 311.526Z" fill="#D8D6DC"/>
<path d="M158.757 263.334C158.55 263.71 158.372 264.102 158.227 264.507L120.835 273.785L114.331 267.056L102.892 275.545L113.249 288.576C114.086 289.628 115.242 290.381 116.543 290.721C117.844 291.061 119.22 290.97 120.465 290.462L161.039 273.884C162.372 274.865 163.973 275.417 165.628 275.467C167.283 275.517 168.914 275.061 170.304 274.161C171.694 273.261 172.777 271.96 173.41 270.429C174.042 268.899 174.193 267.212 173.843 265.594C173.493 263.975 172.659 262.502 171.451 261.369C170.243 260.237 168.719 259.499 167.081 259.253C165.443 259.008 163.77 259.267 162.283 259.996C160.796 260.725 159.566 261.889 158.757 263.334Z" fill="#A0616A"/>
<path d="M32.595 345.169C33.7695 344.816 34.8502 344.218 35.761 343.415C36.6717 342.612 37.3904 341.625 37.8663 340.523C38.3423 339.421 38.564 338.23 38.5157 337.036C38.4675 335.842 38.1506 334.672 37.5872 333.61L63.5134 263.536L45.5085 260.434L25.6855 330.289C23.9129 331.327 22.5935 332.962 21.9776 334.884C21.3616 336.805 21.4918 338.879 22.3435 340.713C23.1952 342.547 24.7092 344.014 26.5986 344.835C28.488 345.657 30.6216 345.775 32.595 345.169Z" fill="#A0616A"/>
<path d="M60.2938 275.438L43.0019 268.872C42.5099 268.685 42.0644 268.396 41.6957 268.023C41.327 267.651 41.0438 267.204 40.8653 266.713C40.6869 266.223 40.6174 265.7 40.6616 265.18C40.7058 264.661 40.8627 264.157 41.1216 263.703L50.1929 247.79C51.1735 245.305 53.1099 243.306 55.5777 242.232C58.0454 241.157 60.843 241.095 63.3573 242.058C65.8715 243.021 67.8973 244.931 68.9903 247.369C70.0834 249.808 70.1546 252.575 69.1884 255.066L65.1871 272.84C65.0724 273.349 64.8482 273.828 64.5297 274.243C64.2113 274.659 63.806 275.001 63.3417 275.248C62.8773 275.494 62.3647 275.639 61.8387 275.672C61.3128 275.705 60.7858 275.625 60.2938 275.438Z" fill="#3B719F"/>
<path d="M99.0826 477.674L108.55 477.673L113.054 440.832L99.0811 440.833L99.0826 477.674Z" fill="#A0616A"/>
<path d="M96.5405 475.134L115.16 475.133H115.161C116.719 475.133 118.262 475.419 119.702 475.976C121.142 476.532 122.45 477.348 123.552 478.376C124.653 479.404 125.527 480.625 126.124 481.968C126.72 483.312 127.027 484.751 127.027 486.206V486.565L96.5411 486.566L96.5405 475.134Z" fill="#171A21"/>
<path d="M45.7313 477.674L55.199 477.673L59.7027 440.832L45.7297 440.833L45.7313 477.674Z" fill="#A0616A"/>
<path d="M43.1892 475.134L61.8089 475.133H61.8097C63.3679 475.133 64.9109 475.419 66.3506 475.976C67.7903 476.532 69.0984 477.348 70.2002 478.376C71.3021 479.404 72.1761 480.625 72.7725 481.968C73.3688 483.312 73.6757 484.751 73.6757 486.206V486.565L43.1898 486.566L43.1892 475.134Z" fill="#171A21"/>
<path d="M56.0431 463.699H44.1099C43.6415 463.699 43.178 463.604 42.7475 463.419C42.3169 463.235 41.9283 462.965 41.605 462.625C41.2818 462.286 41.0308 461.885 40.867 461.445C40.7033 461.006 40.6304 460.538 40.6526 460.07L46.3208 338.172L46.678 338.162L104.303 336.658L115.579 458.626C115.623 459.084 115.575 459.545 115.438 459.983C115.302 460.422 115.08 460.829 114.785 461.181C114.49 461.533 114.128 461.822 113.72 462.033C113.312 462.243 112.867 462.371 112.41 462.407L99.0059 463.48C98.1639 463.547 97.3264 463.304 96.6511 462.796C95.9758 462.288 95.5093 461.551 95.3393 460.722L78.1944 373.897C78.1477 373.633 78.0079 373.395 77.8006 373.226C77.5933 373.056 77.3321 372.967 77.0645 372.974H77.0598C76.7914 372.968 76.5297 373.059 76.3226 373.23C76.1156 373.401 75.9769 373.641 75.932 373.906L59.4392 460.904C59.283 461.691 58.8593 462.399 58.2402 462.909C57.6211 463.418 56.8447 463.698 56.0431 463.699Z" fill="#171A21"/>
<path d="M77.4864 229.944C88.0097 229.944 96.5405 221.413 96.5405 210.888C96.5405 200.364 88.0097 191.832 77.4864 191.832C66.9632 191.832 58.4324 200.364 58.4324 210.888C58.4324 221.413 66.9632 229.944 77.4864 229.944Z" fill="#A0616A"/>
<path d="M71.3613 351.903C62.4128 351.903 53.2215 349.562 45.602 342.64C45.1965 342.275 44.8834 341.819 44.6883 341.31C44.4931 340.801 44.4213 340.253 44.4787 339.712C45.2942 332.419 49.2503 294.762 47.0224 269.608C46.5876 264.91 47.2559 260.175 48.9746 255.777C50.6933 251.38 53.4153 247.441 56.9258 244.27C60.3749 241.106 64.5154 238.783 69.0208 237.485C73.5262 236.186 78.2732 235.948 82.8871 236.788C83.1209 236.829 83.3548 236.873 83.5888 236.918C98.6199 239.813 109.064 253.659 107.882 269.124C106.158 291.689 104.612 322.212 107.039 339.474C107.14 340.18 107.016 340.9 106.685 341.532C106.354 342.165 105.832 342.679 105.193 343.001C99.6702 345.779 85.8333 351.903 71.3613 351.903Z" fill="#3B719F"/>
<path d="M95.7391 276.336C95.298 276.045 94.9255 275.662 94.6469 275.215C94.3682 274.768 94.1901 274.267 94.1247 273.745L91.8346 255.53C91.1077 252.94 91.4457 250.169 92.7746 247.825C94.1035 245.482 96.3148 243.757 98.9237 243.028C101.533 242.3 104.326 242.627 106.692 243.939C109.058 245.251 110.803 247.44 111.544 250.027L119.087 266.854C119.303 267.334 119.411 267.854 119.405 268.38C119.399 268.905 119.279 269.424 119.054 269.899C118.828 270.374 118.501 270.796 118.096 271.135C117.691 271.474 117.218 271.722 116.707 271.863L98.7708 276.815C98.2604 276.956 97.7253 276.987 97.2021 276.904C96.6789 276.821 96.1799 276.627 95.7391 276.336Z" fill="#3B719F"/>
<path d="M71.2931 229.942C69.5407 229.975 67.7991 229.654 66.1692 229C65.452 228.719 64.7075 228.488 63.9917 228.207C57.6696 225.726 53.5051 218.885 53.3559 212.001C53.2067 205.117 56.7157 198.435 61.9262 194.032C67.1368 189.628 73.8857 187.368 80.6436 186.845C87.923 186.282 96.1198 188.157 100.187 194.316C101.27 195.956 102.027 197.945 101.386 199.924C101.194 200.522 100.85 201.057 100.391 201.478C98.574 203.12 96.763 201.885 94.9112 201.776C92.3659 201.626 90.0797 203.719 89.2581 206.171C88.4364 208.623 88.7981 211.323 89.4615 213.824C89.967 215.329 90.2856 216.892 90.4101 218.477C90.4636 219.272 90.3164 220.068 89.9826 220.789C89.6487 221.51 89.1391 222.132 88.5022 222.597C86.9117 223.574 84.8229 223.008 83.2315 222.033C81.64 221.058 80.2649 219.702 78.5459 218.984C76.8268 218.267 74.5173 218.426 73.5167 220.017C73.1987 220.596 72.9835 221.227 72.8809 221.882C71.9839 226.034 72.1901 225.79 71.2931 229.942Z" fill="#171A21"/>
<path d="M154.205 487.837H8.38904C8.1855 487.837 7.99029 487.77 7.84636 487.651C7.70244 487.532 7.62158 487.37 7.62158 487.202C7.62158 487.033 7.70244 486.872 7.84636 486.752C7.99029 486.633 8.1855 486.566 8.38904 486.566H154.205C154.409 486.566 154.604 486.633 154.748 486.752C154.892 486.872 154.973 487.033 154.973 487.202C154.973 487.37 154.892 487.532 154.748 487.651C154.604 487.77 154.409 487.837 154.205 487.837Z" fill="#D8D6DC"/>
</svg>
