<svg width="433" height="391" viewBox="0 0 433 391" fill="none" xmlns="http://www.w3.org/2000/svg">
<g clip-path="url(#clip0_245_3208)">
<path d="M269.03 227.211H110.427C105.049 227.205 99.8925 225.062 96.0893 221.253C92.2862 217.443 90.1469 212.279 90.1409 206.891V20.3197C90.1469 14.9324 92.2862 9.76758 96.0893 5.95822C99.8925 2.14886 105.049 0.00608543 110.427 0H257.982L289.317 25.0172V206.891C289.311 212.279 287.171 217.443 283.368 221.253C279.565 225.062 274.409 227.205 269.03 227.211Z" fill="#D8D6DC"/>
<path d="M110.427 5.84961C106.597 5.85393 102.925 7.37984 100.217 10.0926C97.5086 12.8053 95.9852 16.4833 95.9808 20.3197V206.891C95.9852 210.728 97.5086 214.406 100.217 217.118C102.925 219.831 106.597 221.357 110.427 221.361H269.03C272.86 221.357 276.532 219.831 279.241 217.118C281.949 214.406 283.472 210.728 283.477 206.891V27.8352L255.939 5.84961H110.427Z" fill="#F6F7F8"/>
<path d="M238.182 60.0996H165.972C165.529 60.0996 165.089 60.0121 164.68 59.8421C164.27 59.672 163.897 59.4228 163.584 59.1086C163.27 58.7943 163.021 58.4213 162.851 58.0108C162.682 57.6002 162.594 57.1602 162.594 56.7159C162.594 56.2715 162.682 55.8315 162.851 55.421C163.021 55.0104 163.27 54.6374 163.584 54.3232C163.897 54.009 164.27 53.7597 164.68 53.5897C165.089 53.4196 165.529 53.3321 165.972 53.3321H238.182C238.626 53.3321 239.065 53.4196 239.475 53.5897C239.885 53.7597 240.257 54.009 240.571 54.3232C240.885 54.6374 241.133 55.0104 241.303 55.421C241.473 55.8315 241.56 56.2715 241.56 56.7159C241.56 57.1602 241.473 57.6002 241.303 58.0108C241.133 58.4213 240.885 58.7943 240.571 59.1086C240.257 59.4228 239.885 59.672 239.475 59.8421C239.065 60.0121 238.626 60.0996 238.182 60.0996Z" fill="#D8D6DC"/>
<path d="M252.117 71.5199H165.972C165.076 71.5199 164.217 71.1634 163.584 70.5288C162.95 69.8942 162.594 69.0335 162.594 68.1361C162.594 67.2387 162.95 66.378 163.584 65.7434C164.217 65.1088 165.076 64.7523 165.972 64.7523H252.117C253.013 64.7523 253.873 65.1088 254.506 65.7434C255.14 66.378 255.496 67.2387 255.496 68.1361C255.496 69.0335 255.14 69.8942 254.506 70.5288C253.873 71.1634 253.013 71.5199 252.117 71.5199Z" fill="#D8D6DC"/>
<path d="M238.182 111.279H165.972C165.076 111.279 164.217 110.923 163.584 110.288C162.95 109.654 162.594 108.793 162.594 107.895C162.594 106.998 162.95 106.137 163.584 105.503C164.217 104.868 165.076 104.512 165.972 104.512H238.182C239.078 104.512 239.937 104.868 240.571 105.503C241.204 106.137 241.56 106.998 241.56 107.895C241.56 108.793 241.204 109.654 240.571 110.288C239.937 110.923 239.078 111.279 238.182 111.279Z" fill="#D8D6DC"/>
<path d="M252.117 122.699H165.972C165.076 122.699 164.217 122.343 163.584 121.708C162.95 121.074 162.594 120.213 162.594 119.316C162.594 118.418 162.95 117.558 163.584 116.923C164.217 116.288 165.076 115.932 165.972 115.932H252.117C253.013 115.932 253.873 116.288 254.506 116.923C255.14 117.558 255.496 118.418 255.496 119.316C255.496 120.213 255.14 121.074 254.506 121.708C253.873 122.343 253.013 122.699 252.117 122.699Z" fill="#D8D6DC"/>
<path d="M238.182 162.459H165.972C165.076 162.459 164.217 162.102 163.584 161.468C162.95 160.833 162.594 159.972 162.594 159.075C162.594 158.178 162.95 157.317 163.584 156.682C164.217 156.048 165.076 155.691 165.972 155.691H238.182C239.078 155.691 239.937 156.048 240.571 156.682C241.204 157.317 241.56 158.178 241.56 159.075C241.56 159.972 241.204 160.833 240.571 161.468C239.937 162.102 239.078 162.459 238.182 162.459Z" fill="#D8D6DC"/>
<path d="M252.117 173.879H165.972C165.076 173.879 164.217 173.522 163.584 172.888C162.95 172.253 162.594 171.393 162.594 170.495C162.594 169.598 162.95 168.737 163.584 168.102C164.217 167.468 165.076 167.111 165.972 167.111H252.117C253.013 167.111 253.873 167.468 254.506 168.102C255.14 168.737 255.496 169.598 255.496 170.495C255.496 171.393 255.14 172.253 254.506 172.888C253.873 173.522 253.013 173.879 252.117 173.879Z" fill="#D8D6DC"/>
<path d="M135.902 74.3857C142.497 74.3857 147.843 69.0312 147.843 62.426C147.843 55.8208 142.497 50.4662 135.902 50.4662C129.308 50.4662 123.962 55.8208 123.962 62.426C123.962 69.0312 129.308 74.3857 135.902 74.3857Z" fill="#3B719F"/>
<path d="M134.719 66.9883C134.451 66.9887 134.189 66.9017 133.974 66.7403L133.961 66.7303L131.155 64.5802C130.893 64.3785 130.721 64.0808 130.678 63.7526C130.635 63.4243 130.723 63.0924 130.925 62.8296C131.126 62.5669 131.423 62.3948 131.75 62.3513C132.078 62.3078 132.41 62.3964 132.672 62.5976L134.49 63.9937L138.785 58.3812C138.884 58.2511 139.008 58.1419 139.15 58.0598C139.292 57.9778 139.448 57.9245 139.611 57.903C139.773 57.8816 139.938 57.8923 140.096 57.9347C140.254 57.9771 140.402 58.0502 140.532 58.15L140.506 58.1873L140.533 58.1503C140.795 58.352 140.967 58.6497 141.01 58.9779C141.053 59.3062 140.965 59.6382 140.764 59.9011L135.712 66.4997C135.595 66.6517 135.445 66.7748 135.273 66.8592C135.101 66.9437 134.912 66.9874 134.72 66.9868L134.719 66.9883Z" fill="#F6F7F8"/>
<path d="M137.132 125.565C143.726 125.565 149.072 120.211 149.072 113.606C149.072 107 143.726 101.646 137.132 101.646C130.537 101.646 125.192 107 125.192 113.606C125.192 120.211 130.537 125.565 137.132 125.565Z" fill="#D8D6DC"/>
<path d="M135.902 176.745C142.497 176.745 147.843 171.39 147.843 164.785C147.843 158.18 142.497 152.825 135.902 152.825C129.308 152.825 123.962 158.18 123.962 164.785C123.962 171.39 129.308 176.745 135.902 176.745Z" fill="#D8D6DC"/>
<path d="M288.707 25.8223H264.161C262.369 25.8223 260.65 25.1093 259.383 23.8401C258.116 22.571 257.404 20.8496 257.404 19.0548V0.895727C257.404 0.816225 257.427 0.738326 257.469 0.670975C257.511 0.603625 257.571 0.549544 257.643 0.514934C257.714 0.480323 257.794 0.466584 257.873 0.475294C257.952 0.484004 258.027 0.514808 258.089 0.564176L288.969 25.0678C289.038 25.1223 289.088 25.1969 289.112 25.2812C289.137 25.3656 289.134 25.4554 289.106 25.5384C289.077 25.6213 289.023 25.6932 288.951 25.7441C288.88 25.795 288.795 25.8223 288.707 25.8223Z" fill="#D8D6DC"/>
<path d="M122.547 262.168L28.7096 281.98C25.9978 282.549 23.1713 282.018 20.8501 280.503C18.529 278.987 16.9028 276.611 16.3283 273.896L0.225865 197.378C-0.342547 194.662 0.187928 191.83 1.70091 189.505C3.21389 187.181 5.58582 185.552 8.29631 184.976L102.134 165.164C104.846 164.595 107.672 165.126 109.993 166.642C112.315 168.157 113.941 170.533 114.515 173.248L130.618 249.767C131.186 252.483 130.656 255.314 129.143 257.639C127.63 259.964 125.258 261.593 122.547 262.168Z" fill="#F6F7F8"/>
<path d="M122.547 262.168L28.7096 281.98C25.9978 282.549 23.1713 282.018 20.8501 280.503C18.529 278.987 16.9028 276.611 16.3283 273.896L0.225865 197.378C-0.342547 194.662 0.187928 191.83 1.70091 189.505C3.21389 187.181 5.58582 185.552 8.29631 184.976L102.134 165.164C104.846 164.595 107.672 165.126 109.993 166.642C112.315 168.157 113.941 170.533 114.515 173.248L130.618 249.767C131.186 252.483 130.656 255.314 129.143 257.639C127.63 259.964 125.258 261.593 122.547 262.168ZM8.5499 186.181C6.15829 186.689 4.06543 188.126 2.73044 190.178C1.39546 192.229 0.927382 194.727 1.4289 197.124L17.5313 273.642C18.0382 276.038 19.4731 278.134 21.5212 279.471C23.5693 280.809 26.0633 281.277 28.456 280.775L122.294 260.963C124.685 260.456 126.778 259.018 128.113 256.967C129.448 254.916 129.916 252.417 129.415 250.021L113.312 173.502C112.805 171.107 111.37 169.01 109.322 167.673C107.274 166.336 104.78 165.867 102.388 166.369L8.5499 186.181Z" fill="#D8D6DC"/>
<path d="M96.3036 190.395L48.9449 200.394C48.5305 200.49 48.095 200.425 47.7265 200.212C47.358 199.999 47.0839 199.654 46.9597 199.246C46.903 199.034 46.89 198.812 46.9217 198.594C46.9533 198.376 47.029 198.167 47.1439 197.98C47.2589 197.792 47.4108 197.63 47.5904 197.504C47.7699 197.377 47.9734 197.288 48.1884 197.243L96.3965 187.065C98.2788 188.127 97.6845 190.103 96.3036 190.395Z" fill="#D8D6DC"/>
<path d="M98.0545 198.715L50.6959 208.714C50.2815 208.81 49.846 208.746 49.4775 208.533C49.109 208.32 48.8349 207.975 48.7107 207.567C48.6539 207.354 48.641 207.133 48.6726 206.915C48.7043 206.697 48.7799 206.488 48.8949 206.301C49.0099 206.113 49.1618 205.951 49.3413 205.824C49.5209 205.697 49.7244 205.609 49.9394 205.563L98.1475 195.385C100.03 196.448 99.4355 198.424 98.0545 198.715Z" fill="#D8D6DC"/>
<path d="M41.455 215.613L27.0017 218.665C26.5296 218.764 26.0376 218.671 25.6336 218.408C25.2296 218.144 24.9465 217.73 24.8466 217.258L21.2514 200.174C21.1524 199.701 21.2447 199.208 21.5081 198.803C21.7714 198.399 22.1844 198.115 22.6562 198.015L37.1095 194.963C37.5816 194.864 38.0735 194.957 38.4775 195.221C38.8815 195.484 39.1646 195.898 39.2646 196.37L42.8598 213.455C42.9588 213.927 42.8665 214.42 42.6031 214.825C42.3397 215.23 41.9269 215.513 41.455 215.613Z" fill="#D8D6DC"/>
<path d="M101.502 215.781L29.224 231.041C28.8096 231.137 28.3741 231.072 28.0056 230.859C27.6371 230.647 27.363 230.301 27.2388 229.894C27.182 229.681 27.1691 229.459 27.2007 229.242C27.2324 229.024 27.308 228.815 27.423 228.627C27.5379 228.44 27.6899 228.278 27.8694 228.151C28.049 228.024 28.2525 227.935 28.4674 227.89L101.595 212.451C103.478 213.513 102.883 215.49 101.502 215.781Z" fill="#D8D6DC"/>
<path d="M103.253 224.104L30.9755 239.364C30.561 239.46 30.1255 239.396 29.757 239.183C29.3885 238.97 29.1145 238.624 28.9903 238.217C28.9335 238.004 28.9205 237.782 28.9522 237.565C28.9839 237.347 29.0595 237.138 29.1744 236.95C29.2894 236.763 29.4413 236.601 29.6209 236.474C29.8005 236.347 30.0039 236.259 30.2189 236.213L103.347 220.774C105.229 221.836 104.634 223.813 103.253 224.104Z" fill="#D8D6DC"/>
<path d="M105.004 232.422L32.7258 247.682C32.3114 247.778 31.8759 247.713 31.5074 247.5C31.1389 247.287 30.8648 246.942 30.7406 246.534C30.6838 246.322 30.6709 246.1 30.7026 245.882C30.7342 245.665 30.8098 245.456 30.9248 245.268C31.0398 245.081 31.1917 244.918 31.3713 244.792C31.5508 244.665 31.7543 244.576 31.9693 244.531L105.097 229.091C106.98 230.154 106.385 232.13 105.004 232.422Z" fill="#D8D6DC"/>
<path d="M106.755 240.744L34.4772 256.004C34.0627 256.1 33.6272 256.036 33.2587 255.823C32.8902 255.61 32.6162 255.265 32.492 254.857C32.4352 254.644 32.4222 254.422 32.4539 254.205C32.4856 253.987 32.5612 253.778 32.6762 253.59C32.7911 253.403 32.943 253.241 33.1226 253.114C33.3022 252.987 33.5056 252.899 33.7206 252.853L106.849 237.414C108.731 238.476 108.136 240.453 106.755 240.744Z" fill="#D8D6DC"/>
<path d="M108.506 249.062L36.2276 264.322C35.8132 264.419 35.3777 264.354 35.0092 264.141C34.6407 263.928 34.3667 263.583 34.2425 263.175C34.1857 262.963 34.1727 262.741 34.2044 262.523C34.2361 262.305 34.3117 262.096 34.4266 261.909C34.5416 261.721 34.6935 261.559 34.8731 261.432C35.0527 261.306 35.2561 261.217 35.4711 261.172L108.599 245.732C110.481 246.795 109.886 248.771 108.506 249.062Z" fill="#D8D6DC"/>
<path d="M121.264 210.968C121.1 211.266 120.96 211.577 120.844 211.898L91.2547 219.253L86.1072 213.919L77.0552 220.648L85.2516 230.978C85.9138 231.812 86.8284 232.409 87.858 232.678C88.8877 232.948 89.9768 232.876 90.962 232.473L123.069 219.331C124.125 220.109 125.392 220.547 126.701 220.586C128.011 220.626 129.302 220.265 130.402 219.551C131.502 218.838 132.359 217.806 132.859 216.593C133.359 215.38 133.479 214.043 133.202 212.76C132.925 211.477 132.265 210.309 131.309 209.411C130.353 208.513 129.147 207.928 127.851 207.734C126.555 207.539 125.231 207.744 124.054 208.322C122.878 208.9 121.904 209.823 121.264 210.968Z" fill="#A0616A"/>
<path d="M20.2644 276.417C21.1868 276.132 22.0356 275.648 22.751 274.998C23.4663 274.349 24.0307 273.55 24.4045 272.658C24.7784 271.767 24.9525 270.804 24.9146 269.838C24.8767 268.871 24.6278 267.925 24.1853 267.066L44.5481 210.375L30.4069 207.865L14.8376 264.379C13.4453 265.219 12.4091 266.542 11.9253 268.096C11.4415 269.651 11.5438 271.329 12.2127 272.813C12.8816 274.296 14.0707 275.483 15.5547 276.147C17.0387 276.812 18.7144 276.908 20.2644 276.417Z" fill="#A0616A"/>
<path d="M41.9621 220.438L27.9998 215.071C27.6025 214.918 27.2428 214.682 26.9451 214.377C26.6474 214.073 26.4187 213.707 26.2746 213.306C26.1306 212.905 26.0745 212.478 26.1102 212.053C26.1459 211.628 26.2725 211.216 26.4816 210.845L33.8062 197.837C34.598 195.806 36.1615 194.172 38.154 193.294C40.1466 192.415 42.4055 192.364 44.4357 193.151C46.4658 193.939 48.1015 195.5 48.984 197.493C49.8666 199.487 49.9241 201.749 49.144 203.785L45.9132 218.315C45.8205 218.731 45.6395 219.122 45.3823 219.462C45.1252 219.801 44.798 220.081 44.4231 220.283C44.0481 220.484 43.6342 220.603 43.2095 220.63C42.7848 220.656 42.3594 220.591 41.9621 220.438Z" fill="#3B719F"/>
<path d="M73.4768 382.851L81.0135 382.851L84.5987 353.733L73.4756 353.734L73.4768 382.851Z" fill="#A0616A"/>
<path d="M71.5543 380.387L86.3965 380.386H86.3971C87.6392 380.386 88.8692 380.631 90.0168 381.107C91.1644 381.583 92.2071 382.281 93.0854 383.161C93.9638 384.04 94.6605 385.085 95.1358 386.234C95.6112 387.384 95.8558 388.616 95.8558 389.86V390.168L71.5548 390.169L71.5543 380.387Z" fill="#171A21"/>
<path d="M31.0598 382.851L38.5965 382.851L42.1817 353.733L31.0586 353.734L31.0598 382.851Z" fill="#A0616A"/>
<path d="M29.1372 380.387L43.9794 380.386H43.98C45.2221 380.386 46.4521 380.631 47.5997 381.107C48.7473 381.583 49.79 382.281 50.6683 383.161C51.5466 384.04 52.2434 385.085 52.7187 386.234C53.194 387.384 53.4387 388.616 53.4387 389.86V390.168L29.1377 390.169L29.1372 380.387Z" fill="#171A21"/>
<path d="M38.9606 371.132H29.4232C29.0488 371.132 28.6784 371.055 28.3343 370.908C27.9902 370.76 27.6795 370.544 27.4212 370.273C27.1629 370.002 26.9622 369.68 26.8314 369.329C26.7005 368.978 26.6422 368.604 26.66 368.229L31.1902 270.736L31.4757 270.729L77.5316 269.526L86.5439 367.075C86.5786 367.44 86.5403 367.809 86.4313 368.16C86.3223 368.511 86.1448 368.836 85.9091 369.118C85.6734 369.399 85.3841 369.631 85.0582 369.799C84.7323 369.967 84.3762 370.069 84.0107 370.099L73.298 370.957C72.625 371.01 71.9557 370.816 71.416 370.409C70.8762 370.003 70.5034 369.413 70.3675 368.751L56.6647 299.309C56.6274 299.098 56.5157 298.908 56.35 298.772C56.1843 298.637 55.9755 298.565 55.7617 298.571H55.7579C55.5434 298.566 55.3342 298.639 55.1687 298.776C55.0032 298.913 54.8924 299.104 54.8565 299.316L41.6749 368.896C41.5501 369.525 41.2114 370.092 40.7166 370.5C40.2218 370.907 39.6013 371.131 38.9606 371.132Z" fill="#171A21"/>
<path d="M56.4313 183.785C64.7701 183.785 71.53 177.015 71.53 168.662C71.53 160.31 64.7701 153.539 56.4313 153.539C48.0925 153.539 41.3326 160.31 41.3326 168.662C41.3326 177.015 48.0925 183.785 56.4313 183.785Z" fill="#A0616A"/>
<path d="M51.3686 282.162C44.1722 282.162 36.7806 280.267 30.653 274.665C30.3269 274.369 30.0752 274 29.9182 273.588C29.7613 273.176 29.7035 272.733 29.7497 272.295C30.4055 266.392 33.587 235.915 31.7953 215.557C31.4457 211.755 31.9832 207.923 33.3653 204.364C34.7475 200.805 36.9365 197.616 39.7596 195.05C42.5333 192.489 45.8632 190.61 49.4864 189.559C53.1096 188.508 56.9271 188.315 60.6376 188.995C60.8256 189.028 61.0137 189.064 61.2019 189.1C73.2899 191.443 81.6887 202.649 80.7383 215.165C79.3516 233.428 78.1084 258.132 80.0604 272.102C80.1413 272.674 80.0416 273.256 79.7754 273.768C79.5092 274.28 79.0898 274.696 78.5759 274.957C74.1345 277.205 63.0069 282.162 51.3686 282.162Z" fill="#3B719F"/>
<path d="M71.0706 221.527C70.7163 221.291 70.417 220.981 70.1932 220.618C69.9694 220.256 69.8264 219.849 69.7738 219.426L67.9343 204.654C67.3504 202.554 67.6219 200.307 68.6893 198.406C69.7568 196.506 71.5331 195.107 73.6287 194.516C75.7244 193.925 77.9684 194.191 79.8687 195.255C81.7691 196.319 83.1708 198.094 83.7664 200.191L89.8254 213.837C89.9983 214.227 90.0854 214.649 90.0807 215.075C90.076 215.501 89.9797 215.921 89.7982 216.307C89.6168 216.692 89.3546 217.034 89.0294 217.309C88.7041 217.584 88.3236 217.785 87.9137 217.9L73.5058 221.916C73.0959 222.03 72.6661 222.055 72.2458 221.987C71.8255 221.92 71.4247 221.763 71.0706 221.527Z" fill="#3B719F"/>
<path d="M51.1605 183.572C49.7314 183.598 48.3112 183.341 46.982 182.815C46.3971 182.589 45.79 182.403 45.2062 182.177C40.0506 180.182 36.6544 174.683 36.5328 169.148C36.4111 163.613 39.2727 158.241 43.5219 154.701C47.771 151.161 53.2747 149.343 58.7858 148.923C64.7221 148.47 71.4066 149.978 74.7237 154.93C75.6067 156.248 76.2242 157.847 75.701 159.439C75.5443 159.919 75.2644 160.35 74.8894 160.687C73.408 162.008 71.9311 161.015 70.4209 160.927C68.3452 160.807 66.4809 162.49 65.8108 164.461C65.1408 166.433 65.4357 168.603 65.9768 170.614C66.3889 171.824 66.6488 173.081 66.7503 174.355C66.7939 174.994 66.6739 175.634 66.4017 176.213C66.1294 176.793 65.7138 177.293 65.1944 177.667C63.8974 178.452 62.194 177.998 60.8962 177.214C59.5984 176.43 58.4769 175.339 57.0751 174.762C55.6732 174.186 53.7898 174.313 52.9738 175.593C52.7145 176.058 52.539 176.566 52.4553 177.092C51.7239 180.43 51.892 180.234 51.1605 183.572Z" fill="#171A21"/>
<path d="M117.826 391H1.02526C0.862224 391 0.705862 390.935 0.590575 390.82C0.475289 390.704 0.410522 390.548 0.410522 390.384C0.410522 390.221 0.475289 390.064 0.590575 389.949C0.705862 389.833 0.862224 389.768 1.02526 389.768H117.826C117.989 389.768 118.145 389.833 118.261 389.949C118.376 390.064 118.441 390.221 118.441 390.384C118.441 390.548 118.376 390.704 118.261 390.82C118.145 390.935 117.989 391 117.826 391Z" fill="#D8D6DC"/>
<path d="M416.801 263.928L333.161 310.92C330.743 312.275 327.888 312.614 325.22 311.862C322.553 311.111 320.292 309.33 318.934 306.911L280.74 238.708C279.388 236.286 279.049 233.426 279.799 230.754C280.55 228.082 282.327 225.818 284.742 224.458L368.382 177.465C370.8 176.11 373.656 175.772 376.324 176.523C378.991 177.275 381.251 179.055 382.61 181.474L420.804 249.677C422.156 252.099 422.495 254.96 421.744 257.631C420.994 260.303 419.216 262.567 416.801 263.928Z" fill="#F6F7F8"/>
<path d="M416.801 263.928L333.161 310.92C330.743 312.275 327.888 312.614 325.22 311.862C322.553 311.111 320.292 309.33 318.934 306.911L280.74 238.708C279.388 236.286 279.049 233.426 279.799 230.754C280.55 228.082 282.327 225.818 284.742 224.458L368.382 177.465C370.8 176.11 373.656 175.772 376.324 176.523C378.991 177.275 381.251 179.055 382.61 181.474L420.804 249.677C422.156 252.099 422.495 254.96 421.744 257.631C420.994 260.303 419.216 262.567 416.801 263.928ZM285.344 225.532C283.213 226.732 281.645 228.73 280.983 231.087C280.32 233.445 280.619 235.969 281.813 238.106L320.007 306.309C321.205 308.443 323.2 310.014 325.553 310.677C327.907 311.341 330.426 311.041 332.56 309.846L416.2 262.854C418.331 261.653 419.899 259.655 420.561 257.298C421.223 254.941 420.925 252.417 419.731 250.28L381.537 182.076C380.339 179.942 378.344 178.371 375.991 177.708C373.637 177.045 371.118 177.344 368.984 178.539L285.344 225.532Z" fill="#D8D6DC"/>
<path d="M370.345 203.288L328.133 227.004C327.766 227.22 327.332 227.289 326.916 227.196C326.501 227.103 326.137 226.856 325.897 226.504C325.779 226.318 325.7 226.11 325.666 225.893C325.631 225.676 325.641 225.453 325.694 225.24C325.748 225.027 325.845 224.827 325.978 224.652C326.112 224.477 326.28 224.332 326.471 224.224L369.441 200.082C371.554 200.533 371.576 202.597 370.345 203.288Z" fill="#D8D6DC"/>
<path d="M374.498 210.704L332.286 234.421C331.92 234.637 331.485 234.705 331.069 234.612C330.654 234.519 330.29 234.272 330.05 233.92C329.932 233.734 329.853 233.527 329.819 233.309C329.784 233.092 329.794 232.87 329.848 232.657C329.901 232.443 329.998 232.243 330.131 232.068C330.265 231.894 330.433 231.748 330.624 231.64L373.594 207.499C375.707 207.949 375.729 210.013 374.498 210.704Z" fill="#D8D6DC"/>
<path d="M325.526 243.77L312.643 251.008C312.222 251.244 311.725 251.303 311.261 251.173C310.797 251.042 310.403 250.732 310.167 250.311L301.639 235.083C301.404 234.662 301.345 234.164 301.476 233.699C301.606 233.234 301.916 232.84 302.336 232.603L315.219 225.365C315.64 225.129 316.137 225.07 316.601 225.201C317.065 225.332 317.459 225.642 317.695 226.062L326.223 241.29C326.458 241.712 326.517 242.21 326.386 242.675C326.256 243.14 325.946 243.534 325.526 243.77Z" fill="#D8D6DC"/>
<path d="M382.879 225.959L318.456 262.154C318.089 262.37 317.654 262.439 317.239 262.346C316.824 262.253 316.459 262.005 316.219 261.654C316.102 261.468 316.023 261.26 315.988 261.043C315.954 260.825 315.963 260.603 316.017 260.39C316.071 260.177 316.168 259.976 316.301 259.802C316.435 259.627 316.602 259.481 316.794 259.374L381.975 222.752C384.088 223.203 384.11 225.267 382.879 225.959Z" fill="#D8D6DC"/>
<path d="M387.034 233.377L322.611 269.573C322.244 269.789 321.809 269.857 321.394 269.764C320.978 269.671 320.614 269.424 320.374 269.072C320.256 268.886 320.178 268.678 320.143 268.461C320.108 268.244 320.118 268.022 320.172 267.808C320.226 267.595 320.322 267.395 320.456 267.22C320.589 267.046 320.757 266.9 320.949 266.792L386.13 230.171C388.243 230.622 388.265 232.686 387.034 233.377Z" fill="#D8D6DC"/>
<path d="M391.185 240.791L326.762 276.986C326.395 277.202 325.96 277.271 325.545 277.178C325.13 277.085 324.766 276.838 324.525 276.486C324.408 276.3 324.329 276.092 324.295 275.875C324.26 275.658 324.27 275.435 324.323 275.222C324.377 275.009 324.474 274.809 324.607 274.634C324.741 274.459 324.909 274.314 325.1 274.206L390.281 237.585C392.395 238.035 392.416 240.099 391.185 240.791Z" fill="#D8D6DC"/>
<path d="M395.34 248.209L330.916 284.405C330.549 284.621 330.114 284.689 329.699 284.596C329.284 284.503 328.92 284.256 328.68 283.904C328.562 283.718 328.483 283.51 328.449 283.293C328.414 283.076 328.424 282.854 328.477 282.64C328.531 282.427 328.628 282.227 328.761 282.052C328.895 281.877 329.063 281.732 329.254 281.624L394.435 245.003C396.549 245.453 396.57 247.517 395.34 248.209Z" fill="#D8D6DC"/>
<path d="M399.492 255.623L335.068 291.819C334.702 292.035 334.267 292.103 333.851 292.01C333.436 291.917 333.072 291.67 332.832 291.318C332.714 291.132 332.635 290.924 332.601 290.707C332.566 290.49 332.576 290.268 332.63 290.055C332.683 289.841 332.78 289.641 332.913 289.466C333.047 289.292 333.215 289.146 333.406 289.038L398.587 252.417C400.701 252.868 400.723 254.932 399.492 255.623Z" fill="#D8D6DC"/>
<path d="M388.252 283.408C388.603 282.633 388.78 281.79 388.771 280.939C388.761 280.088 388.565 279.25 388.197 278.482C387.829 277.715 387.298 277.039 386.64 276.5C385.983 275.961 385.215 275.573 384.392 275.363L382.64 254.751L374.214 261.409L377.169 279.962C376.909 281.37 377.174 282.826 377.914 284.052C378.654 285.279 379.817 286.191 381.183 286.615C382.549 287.04 384.023 286.948 385.326 286.357C386.629 285.766 387.67 284.716 388.252 283.408Z" fill="#FFB8B8"/>
<path d="M382.799 273.204L375.801 274.04C375.446 274.082 375.085 274.051 374.743 273.947C374.4 273.844 374.082 273.67 373.809 273.438C373.536 273.206 373.314 272.92 373.157 272.598C373 272.275 372.911 271.924 372.895 271.566L371.875 247.92L358.61 211.624C358.079 210.498 357.836 209.256 357.905 208.013C357.974 206.769 358.352 205.562 359.004 204.501C359.33 203.989 359.702 203.508 360.116 203.065C360.932 202.184 361.949 201.514 363.08 201.112C364.21 200.71 365.421 200.588 366.609 200.755C367.833 200.919 369 201.372 370.014 202.078C371.028 202.783 371.859 203.721 372.439 204.813L381.089 222.969C384.707 230.564 386.415 238.929 386.065 247.336L385.089 270.727C385.064 271.339 384.824 271.923 384.411 272.375C383.998 272.827 383.44 273.119 382.833 273.2L382.799 273.204Z" fill="#3B719F"/>
<path d="M407.65 375.399L401.162 378.252L387.091 354.543L396.666 350.334L407.65 375.399Z" fill="#FFB8B8"/>
<path d="M412.066 380.971L391.146 390.169L391.03 389.904C390.561 388.833 390.306 387.68 390.282 386.51C390.258 385.341 390.463 384.178 390.887 383.088C391.312 381.998 391.946 381.003 392.754 380.159C393.562 379.314 394.529 378.638 395.598 378.168L408.376 372.55L412.066 380.971Z" fill="#171A21"/>
<path d="M320.548 383.289H313.463L310.092 355.915L320.55 355.915L320.548 383.289Z" fill="#FFB8B8"/>
<path d="M322.355 390.169L299.509 390.168V389.878C299.509 388.709 299.739 387.551 300.186 386.47C300.633 385.389 301.288 384.407 302.114 383.58C302.939 382.753 303.92 382.097 304.998 381.65C306.077 381.202 307.234 380.972 308.401 380.972L322.356 380.972L322.355 390.169Z" fill="#171A21"/>
<path d="M389.532 373.931L350.061 285.705C349.99 285.539 349.869 285.4 349.716 285.307C349.562 285.213 349.383 285.17 349.204 285.182C349.025 285.195 348.854 285.263 348.715 285.378C348.576 285.492 348.476 285.647 348.429 285.821L324.38 371.036C324.221 371.633 323.855 372.153 323.347 372.503C322.84 372.853 322.224 373.01 321.611 372.946L308.477 371.63C307.8 371.559 307.178 371.226 306.742 370.703C306.306 370.18 306.091 369.507 306.142 368.827C310.32 316.782 316.905 267.662 336.634 235.506L336.739 235.334L366.581 241.196L406.421 368.27C406.618 368.924 406.551 369.63 406.235 370.236C405.919 370.842 405.378 371.3 404.73 371.511L392.716 375.379C392.1 375.58 391.432 375.542 390.843 375.274C390.254 375.006 389.786 374.527 389.532 373.931Z" fill="#171A21"/>
<path d="M351.163 190.312C359.002 190.312 365.357 183.946 365.357 176.094C365.357 168.241 359.002 161.876 351.163 161.876C343.323 161.876 336.968 168.241 336.968 176.094C336.968 183.946 343.323 190.312 351.163 190.312Z" fill="#FFB8B8"/>
<path d="M334.8 237.967L334.619 237.93L334.576 237.75C332.664 229.662 332.618 220.835 334.441 211.516C335.365 206.753 337.938 202.469 341.706 199.419C345.474 196.37 350.196 194.75 355.039 194.845C360.295 194.951 365.311 197.066 369.061 200.755C372.811 204.444 375.012 209.429 375.214 214.691C375.822 230.72 369.283 244.616 369.216 244.755L369.119 244.958L334.8 237.967Z" fill="#3B719F"/>
<path d="M296.748 265.016C297.588 264.892 298.391 264.584 299.1 264.115C299.809 263.646 300.407 263.027 300.851 262.302C301.296 261.577 301.576 260.763 301.672 259.917C301.768 259.072 301.678 258.215 301.409 257.408L317.758 244.77L307.607 241.281L293.637 253.818C292.314 254.362 291.236 255.373 290.607 256.66C289.979 257.947 289.843 259.42 290.227 260.801C290.61 262.181 291.486 263.373 292.688 264.15C293.889 264.926 295.334 265.235 296.748 265.016Z" fill="#FFB8B8"/>
<path d="M305.678 255.484C305.145 255.8 304.518 255.914 303.909 255.806C303.3 255.699 302.75 255.376 302.357 254.898L297.866 249.459C297.638 249.182 297.469 248.862 297.37 248.517C297.271 248.172 297.245 247.811 297.292 247.455C297.339 247.1 297.459 246.758 297.644 246.451C297.83 246.144 298.076 245.879 298.368 245.672L317.661 232.006L340.938 201.178C341.596 200.121 342.506 199.244 343.587 198.629C344.669 198.013 345.886 197.678 347.13 197.653C347.736 197.649 348.341 197.702 348.937 197.811C350.118 198.021 351.231 198.514 352.181 199.249C353.131 199.983 353.889 200.936 354.392 202.027C354.918 203.146 355.169 204.374 355.126 205.61C355.083 206.846 354.746 208.054 354.144 209.133L336.908 237.092L336.87 237.153L305.678 255.484Z" fill="#3B719F"/>
<path d="M353.701 175.211C352.655 173.488 350.346 173.001 348.342 173.197C346.337 173.394 344.388 174.1 342.374 174.084C336.782 174.041 332.465 167.214 334.816 162.131C336.745 157.963 341.56 156.133 345.917 154.696C355.05 151.685 365.542 148.791 373.831 153.674C376.472 155.276 378.638 157.556 380.106 160.277C381.574 162.999 382.289 166.063 382.179 169.154C381.993 172.997 380.523 176.945 381.766 180.586C383.2 184.786 387.746 187.04 392.042 188.13C399.573 190.041 407.513 189.733 415.091 191.447C422.669 193.161 430.434 197.713 432.477 205.22C433.819 210.152 432.419 215.46 430.1 220.014C427.735 224.659 424.447 228.772 420.439 232.1C416.431 235.428 411.787 237.902 406.792 239.37C401.796 240.838 396.553 241.268 391.386 240.636C386.218 240.003 381.233 238.321 376.737 235.691C367.576 230.333 360.962 221.277 357.019 211.412C354.783 205.658 353.209 199.667 352.327 193.556C351.444 187.835 352.194 182.054 353.793 176.491C353.869 176.284 353.9 176.062 353.884 175.842C353.868 175.621 353.806 175.406 353.701 175.211Z" fill="#171A21"/>
<path d="M404.91 391H288.109C287.946 391 287.79 390.935 287.674 390.82C287.559 390.704 287.494 390.548 287.494 390.384C287.494 390.221 287.559 390.064 287.674 389.949C287.79 389.833 287.946 389.768 288.109 389.768H404.91C405.073 389.768 405.229 389.833 405.344 389.949C405.46 390.064 405.525 390.221 405.525 390.384C405.525 390.548 405.46 390.704 405.344 390.82C405.229 390.935 405.073 391 404.91 391Z" fill="#D8D6DC"/>
</g>
<defs>
<clipPath id="clip0_245_3208">
<rect width="433" height="391" fill="white"/>
</clipPath>
</defs>
</svg>
