<svg width="1198" height="391" viewBox="0 0 1198 391" fill="none" xmlns="http://www.w3.org/2000/svg">
<g clip-path="url(#clip0_245_3539)">
<path d="M748.37 337.926C764.856 337.926 778.221 324.553 778.221 308.057C778.221 291.561 764.856 278.189 748.37 278.189C731.883 278.189 718.519 291.561 718.519 308.057C718.519 324.553 731.883 337.926 748.37 337.926Z" fill="#F6F7F8"/>
<path d="M753.224 333.555C769.71 333.555 783.075 320.182 783.075 303.686C783.075 287.19 769.71 273.818 753.224 273.818C736.737 273.818 723.373 287.19 723.373 303.686C723.373 320.182 736.737 333.555 753.224 333.555Z" fill="#8F8CE7"/>
<path d="M1146.6 270.637H777.264V271.646H1146.6V270.637Z" fill="#171A21"/>
<path d="M968.546 54.404H837.453V51.7004H778.011V54.404H646.377C645.213 54.404 644.06 54.6334 642.984 55.0793C641.908 55.5252 640.93 56.1788 640.107 57.0027C639.284 57.8266 638.63 58.8047 638.185 59.8812C637.739 60.9576 637.51 62.1114 637.51 63.2766V242.888C637.51 245.241 638.444 247.498 640.107 249.162C641.77 250.825 644.025 251.76 646.377 251.76H968.546C970.898 251.76 973.154 250.825 974.817 249.162C976.479 247.498 977.414 245.241 977.414 242.888V63.2766C977.414 62.1114 977.184 60.9576 976.739 59.8812C976.293 58.8047 975.64 57.8266 974.817 57.0027C973.993 56.1788 973.016 55.5252 971.94 55.0793C970.864 54.6334 969.711 54.404 968.546 54.404Z" fill="#171A21"/>
<path d="M965.525 70.0842H649.398V248.516H965.525V70.0842Z" fill="#8F8CE7"/>
<path d="M807.192 65.2179C808.982 65.2179 810.434 63.7654 810.434 61.9737C810.434 60.182 808.982 58.7295 807.192 58.7295C805.401 58.7295 803.949 60.182 803.949 61.9737C803.949 63.7654 805.401 65.2179 807.192 65.2179Z" fill="#8F8CE7"/>
<path opacity="0.1" d="M875.118 248.516H649.398V70.0845L875.118 248.516Z" fill="#D8DCD6"/>
<path d="M698.863 235.164C715.645 235.164 729.25 221.551 729.25 204.759C729.25 187.967 715.645 174.354 698.863 174.354C682.08 174.354 668.476 187.967 668.476 204.759C668.476 221.551 682.08 235.164 698.863 235.164Z" fill="#F6F7F8"/>
<path d="M910.482 166.314H880.953V172.488H910.482V166.314Z" fill="#171A21"/>
<path d="M946.182 118.245H845.252V120.891H946.182V118.245Z" fill="#171A21"/>
<path d="M946.182 126.624H845.252V129.27H946.182V126.624Z" fill="#171A21"/>
<path d="M946.182 135.003H845.252V137.649H946.182V135.003Z" fill="#171A21"/>
<path d="M946.182 143.382H845.252V146.028H946.182V143.382Z" fill="#171A21"/>
<path d="M946.182 151.761H845.252V154.407H946.182V151.761Z" fill="#171A21"/>
<path d="M946.182 73.7041H933.842V86.0521H946.182V73.7041Z" fill="#F6F7F8"/>
<path d="M951.912 91.7852H936.927V76.7913H951.912V91.7852ZM937.578 91.1333H951.26V77.4432H937.578V91.1333Z" fill="#171A21"/>
<path d="M986.29 245.272H955.438V243.048C955.438 242.99 955.427 242.932 955.404 242.879C955.382 242.825 955.35 242.777 955.309 242.736C955.268 242.695 955.219 242.662 955.166 242.64C955.112 242.618 955.055 242.607 954.997 242.607H944.419C944.362 242.607 944.304 242.618 944.251 242.64C944.197 242.662 944.149 242.695 944.108 242.736C944.067 242.777 944.034 242.825 944.012 242.879C943.99 242.932 943.979 242.99 943.979 243.048V245.272H937.368V243.048C937.368 242.99 937.356 242.932 937.334 242.879C937.312 242.825 937.279 242.777 937.238 242.736C937.198 242.695 937.149 242.662 937.095 242.64C937.042 242.618 936.985 242.607 936.927 242.607H926.349C926.291 242.607 926.234 242.618 926.18 242.64C926.127 242.662 926.078 242.695 926.037 242.736C925.996 242.777 925.964 242.825 925.942 242.879C925.92 242.932 925.908 242.99 925.908 243.048V245.272H919.297V243.048C919.297 242.99 919.286 242.932 919.264 242.879C919.241 242.825 919.209 242.777 919.168 242.736C919.127 242.695 919.079 242.662 919.025 242.64C918.972 242.618 918.914 242.607 918.856 242.607H908.279C908.221 242.607 908.163 242.618 908.11 242.64C908.056 242.662 908.008 242.695 907.967 242.736C907.926 242.777 907.894 242.825 907.871 242.879C907.849 242.932 907.838 242.99 907.838 243.048V245.272H901.227V243.048C901.227 242.99 901.215 242.932 901.193 242.879C901.171 242.825 901.139 242.777 901.098 242.736C901.057 242.695 901.008 242.662 900.955 242.64C900.901 242.618 900.844 242.607 900.786 242.607H890.208C890.15 242.607 890.093 242.618 890.039 242.64C889.986 242.662 889.937 242.695 889.896 242.736C889.856 242.777 889.823 242.825 889.801 242.879C889.779 242.932 889.767 242.99 889.767 243.048V245.272H883.156V243.048C883.156 242.99 883.145 242.932 883.123 242.879C883.101 242.825 883.068 242.777 883.027 242.736C882.986 242.695 882.938 242.662 882.884 242.64C882.831 242.618 882.773 242.607 882.716 242.607H872.138C872.08 242.607 872.023 242.618 871.969 242.64C871.916 242.662 871.867 242.695 871.826 242.736C871.785 242.777 871.753 242.825 871.731 242.879C871.708 242.932 871.697 242.99 871.697 243.048V245.272H865.086V243.048C865.086 242.99 865.074 242.932 865.052 242.879C865.03 242.825 864.998 242.777 864.957 242.736C864.916 242.695 864.867 242.662 864.814 242.64C864.76 242.618 864.703 242.607 864.645 242.607H854.067C854.009 242.607 853.952 242.618 853.899 242.64C853.845 242.662 853.797 242.695 853.756 242.736C853.715 242.777 853.682 242.825 853.66 242.879C853.638 242.932 853.627 242.99 853.627 243.048V245.272H847.015V243.048C847.015 242.99 847.004 242.932 846.982 242.879C846.96 242.825 846.927 242.777 846.886 242.736C846.845 242.695 846.797 242.662 846.743 242.64C846.69 242.618 846.633 242.607 846.575 242.607H763.715C763.657 242.607 763.6 242.618 763.547 242.64C763.493 242.662 763.444 242.695 763.404 242.736C763.363 242.777 763.33 242.825 763.308 242.879C763.286 242.932 763.274 242.99 763.274 243.048V245.272H756.663V243.048C756.663 242.99 756.652 242.932 756.63 242.879C756.608 242.825 756.575 242.777 756.534 242.736C756.493 242.695 756.445 242.662 756.391 242.64C756.338 242.618 756.28 242.607 756.223 242.607H745.645C745.587 242.607 745.53 242.618 745.476 242.64C745.423 242.662 745.374 242.695 745.333 242.736C745.292 242.777 745.26 242.825 745.238 242.879C745.215 242.932 745.204 242.99 745.204 243.048V245.272H738.593V243.048C738.593 242.99 738.582 242.932 738.559 242.879C738.537 242.825 738.505 242.777 738.464 242.736C738.423 242.695 738.374 242.662 738.321 242.64C738.267 242.618 738.21 242.607 738.152 242.607H727.574C727.516 242.607 727.459 242.618 727.406 242.64C727.352 242.662 727.304 242.695 727.263 242.736C727.222 242.777 727.189 242.825 727.167 242.879C727.145 242.932 727.134 242.99 727.134 243.048V245.272H720.522V243.048C720.522 242.99 720.511 242.932 720.489 242.879C720.467 242.825 720.434 242.777 720.393 242.736C720.352 242.695 720.304 242.662 720.25 242.64C720.197 242.618 720.14 242.607 720.082 242.607H709.504C709.446 242.607 709.389 242.618 709.335 242.64C709.282 242.662 709.233 242.695 709.192 242.736C709.151 242.777 709.119 242.825 709.097 242.879C709.075 242.932 709.063 242.99 709.063 243.048V245.272H702.452V243.048C702.452 242.99 702.441 242.932 702.419 242.879C702.396 242.825 702.364 242.777 702.323 242.736C702.282 242.695 702.233 242.662 702.18 242.64C702.127 242.618 702.069 242.607 702.011 242.607H691.434C691.376 242.607 691.318 242.618 691.265 242.64C691.211 242.662 691.163 242.695 691.122 242.736C691.081 242.777 691.048 242.825 691.026 242.879C691.004 242.932 690.993 242.99 690.993 243.048V245.272H684.382V243.048C684.382 242.99 684.37 242.932 684.348 242.879C684.326 242.825 684.293 242.777 684.253 242.736C684.212 242.695 684.163 242.662 684.11 242.64C684.056 242.618 683.999 242.607 683.941 242.607H673.363C673.305 242.607 673.248 242.618 673.194 242.64C673.141 242.662 673.092 242.695 673.051 242.736C673.011 242.777 672.978 242.825 672.956 242.879C672.934 242.932 672.922 242.99 672.922 243.048V245.272H666.311V243.048C666.311 242.99 666.3 242.932 666.278 242.879C666.256 242.825 666.223 242.777 666.182 242.736C666.141 242.695 666.093 242.662 666.039 242.64C665.986 242.618 665.928 242.607 665.87 242.607H655.293C655.235 242.607 655.177 242.618 655.124 242.64C655.071 242.662 655.022 242.695 654.981 242.736C654.94 242.777 654.908 242.825 654.885 242.879C654.863 242.932 654.852 242.99 654.852 243.048V245.272H634.578C631.772 245.272 629.082 246.387 627.098 248.372C625.114 250.357 624 253.049 624 255.856V260.642C624 263.449 625.114 266.141 627.098 268.126C629.082 270.11 631.772 271.226 634.578 271.226H986.29C989.095 271.226 991.786 270.11 993.77 268.126C995.753 266.141 996.868 263.449 996.868 260.642V255.856C996.868 253.049 995.753 250.357 993.77 248.372C991.786 246.387 989.095 245.272 986.29 245.272Z" fill="#171A21"/>
<path d="M706.218 223.75C698.644 223.75 691.24 221.502 684.943 217.292C678.645 213.082 673.737 207.097 670.839 200.096C667.94 193.095 667.182 185.39 668.659 177.958C670.137 170.525 673.784 163.697 679.14 158.339C684.495 152.98 691.319 149.331 698.747 147.852C706.176 146.374 713.875 147.133 720.873 150.033C727.87 152.933 733.851 157.844 738.059 164.145C742.267 170.446 744.513 177.854 744.513 185.433C744.501 195.591 740.463 205.331 733.284 212.514C726.105 219.697 716.371 223.738 706.218 223.75ZM706.218 148.124C698.843 148.124 691.634 150.312 685.503 154.412C679.371 158.511 674.592 164.338 671.77 171.155C668.947 177.973 668.209 185.474 669.648 192.711C671.087 199.948 674.638 206.596 679.852 211.814C685.067 217.032 691.711 220.585 698.944 222.024C706.177 223.464 713.674 222.725 720.487 219.901C727.3 217.078 733.124 212.296 737.221 206.16C741.318 200.025 743.505 192.812 743.505 185.433C743.494 175.541 739.562 166.058 732.571 159.064C725.581 152.07 716.104 148.136 706.218 148.124Z" fill="#171A21"/>
<path d="M1047.85 61.4072H919.357V62.4156H1047.85V61.4072Z" fill="#171A21"/>
<path d="M1198 327.608H828.66V328.616H1198V327.608Z" fill="#171A21"/>
<path d="M849.57 373.992H721.083V375H849.57V373.992Z" fill="#171A21"/>
<path d="M875.434 322.292H861.325V336.409H875.434V322.292Z" fill="#8F8CE7"/>
<path d="M884 328.343H866.868V311.201H884V328.343ZM867.613 327.597H883.255V311.946H867.613V327.597Z" fill="#171A21"/>
<path d="M1039.19 56.0918H1025.08V70.2085H1039.19V56.0918Z" fill="#8F8CE7"/>
<path d="M1047.76 62.1417H1030.63V45H1047.76V62.1417ZM1031.37 61.3964H1047.01V45.7453H1031.37V61.3964Z" fill="#171A21"/>
<path d="M1181.29 322.292H1167.18V336.409H1181.29V322.292Z" fill="#8F8CE7"/>
<path d="M1189.85 328.343H1172.72V311.201H1189.85V328.343ZM1173.47 327.597H1189.11V311.946H1173.47V327.597Z" fill="#171A21"/>
<path d="M1156.68 161.946H1155.48V129.094C1155.48 126.597 1154.99 124.124 1154.04 121.817C1153.08 119.51 1151.68 117.414 1149.92 115.649C1148.15 113.883 1146.06 112.482 1143.75 111.527C1141.45 110.571 1138.98 110.08 1136.48 110.08H1066.92C1064.42 110.08 1061.95 110.571 1059.65 111.527C1057.34 112.482 1055.25 113.883 1053.48 115.649C1051.72 117.414 1050.32 119.51 1049.36 121.817C1048.41 124.124 1047.92 126.597 1047.92 129.094V309.324C1047.92 311.821 1048.41 314.294 1049.36 316.601C1050.32 318.908 1051.72 321.004 1053.48 322.77C1055.25 324.535 1057.34 325.936 1059.65 326.891C1061.95 327.847 1064.42 328.339 1066.92 328.339H1136.48C1138.98 328.339 1141.45 327.847 1143.75 326.891C1146.06 325.936 1148.15 324.535 1149.92 322.769C1151.68 321.004 1153.08 318.908 1154.04 316.601C1154.99 314.294 1155.48 311.821 1155.48 309.324V185.331H1156.68V161.946Z" fill="#171A21"/>
<path d="M1151.44 130.211V310.179C1151.44 313.945 1149.94 317.557 1147.28 320.221C1144.62 322.884 1141.01 324.381 1137.25 324.381H1067.35C1063.59 324.381 1059.98 322.884 1057.32 320.221C1054.66 317.557 1053.16 313.945 1053.16 310.179V130.211C1053.16 126.446 1054.66 122.835 1057.32 120.172C1059.98 117.51 1063.59 116.014 1067.35 116.014H1075.83C1075.41 117.038 1075.25 118.149 1075.37 119.25C1075.48 120.35 1075.86 121.406 1076.48 122.323C1077.1 123.241 1077.93 123.994 1078.9 124.514C1079.88 125.034 1080.97 125.306 1082.07 125.305H1121.93C1123.03 125.306 1124.12 125.034 1125.09 124.514C1126.07 123.994 1126.9 123.241 1127.52 122.324C1128.14 121.406 1128.52 120.35 1128.63 119.25C1128.74 118.149 1128.59 117.038 1128.17 116.014H1137.25C1141.01 116.014 1144.62 117.51 1147.28 120.172C1149.94 122.835 1151.44 126.446 1151.44 130.211Z" fill="#8F8CE7"/>
<path d="M1112.71 234.677H1091.89V240.851H1112.71V234.677Z" fill="#171A21"/>
<path d="M1137.88 186.608H1066.72V189.254H1137.88V186.608Z" fill="#171A21"/>
<path d="M1137.88 194.987H1066.72V197.633H1137.88V194.987Z" fill="#171A21"/>
<path d="M1137.88 203.366H1066.72V206.012H1137.88V203.366Z" fill="#171A21"/>
<path d="M1137.88 211.745H1066.72V214.391H1137.88V211.745Z" fill="#171A21"/>
<path d="M1137.88 220.124H1066.72V222.77H1137.88V220.124Z" fill="#171A21"/>
<path d="M1104.79 151.47H1092.44V163.818H1104.79V151.47Z" fill="#F6F7F8"/>
<path d="M1097.17 154.557V169.551H1112.15V154.557H1097.17ZM1111.5 168.901H1097.82V155.208H1111.5V168.901Z" fill="#171A21"/>
<path opacity="0.1" d="M1151.44 290.96V310.179C1151.44 313.945 1149.94 317.557 1147.28 320.221C1144.62 322.884 1141.01 324.381 1137.25 324.382H1067.35C1063.59 324.381 1059.98 322.884 1057.32 320.221C1054.66 317.557 1053.16 313.945 1053.16 310.179V213.273L1112.05 259.823L1113.06 260.619L1124.01 269.276L1125.03 270.088L1151.44 290.96Z" fill="#D8DCD6"/>
<path d="M1096.25 318.549C1108.46 318.549 1118.36 308.647 1118.36 296.432C1118.36 284.217 1108.46 274.315 1096.25 274.315C1084.05 274.315 1074.15 284.217 1074.15 296.432C1074.15 308.647 1084.05 318.549 1096.25 318.549Z" fill="#F6F7F8"/>
<path d="M785.326 375C776.656 375 768.181 372.427 760.972 367.608C753.763 362.788 748.144 355.938 744.826 347.923C741.508 339.908 740.64 331.089 742.332 322.58C744.023 314.072 748.198 306.256 754.329 300.122C760.46 293.987 768.271 289.81 776.774 288.117C785.278 286.425 794.092 287.294 802.102 290.614C810.112 293.933 816.959 299.555 821.776 306.769C826.593 313.982 829.164 322.462 829.164 331.137C829.15 342.766 824.528 353.915 816.309 362.138C808.091 370.361 796.949 374.987 785.326 375ZM785.326 288.283C776.856 288.283 768.575 290.796 761.532 295.505C754.488 300.214 748.999 306.907 745.757 314.738C742.516 322.568 741.667 331.185 743.32 339.498C744.973 347.811 749.052 355.447 755.041 361.44C761.031 367.433 768.663 371.515 776.971 373.168C785.279 374.822 793.89 373.973 801.717 370.73C809.543 367.486 816.232 361.993 820.938 354.946C825.644 347.899 828.156 339.613 828.156 331.137C828.143 319.776 823.626 308.883 815.597 300.849C807.568 292.815 796.682 288.296 785.326 288.283Z" fill="#171A21"/>
<path d="M1102.77 313.491C1097.29 313.491 1091.93 311.865 1087.37 308.818C1082.81 305.771 1079.26 301.441 1077.16 296.374C1075.07 291.307 1074.52 285.731 1075.59 280.353C1076.66 274.974 1079.3 270.033 1083.17 266.155C1087.05 262.277 1091.99 259.636 1097.36 258.566C1102.74 257.496 1108.31 258.045 1113.37 260.144C1118.44 262.243 1122.77 265.797 1125.81 270.357C1128.86 274.917 1130.48 280.278 1130.48 285.762C1130.47 293.114 1127.55 300.162 1122.35 305.361C1117.16 310.559 1110.12 313.483 1102.77 313.491ZM1102.77 259.041C1097.49 259.041 1092.32 260.608 1087.93 263.545C1083.54 266.481 1080.12 270.654 1078.1 275.537C1076.07 280.419 1075.55 285.792 1076.58 290.975C1077.61 296.159 1080.15 300.92 1083.88 304.657C1087.62 308.394 1092.38 310.939 1097.56 311.97C1102.74 313.001 1108.11 312.472 1112.99 310.449C1117.87 308.427 1122.04 305.002 1124.97 300.608C1127.91 296.213 1129.47 291.047 1129.47 285.762C1129.47 278.678 1126.65 271.886 1121.64 266.876C1116.64 261.867 1109.85 259.049 1102.77 259.041Z" fill="#171A21"/>
</g>
<g clip-path="url(#clip1_245_3539)">
<path d="M269.03 227.211H110.427C105.049 227.205 99.8925 225.062 96.0893 221.253C92.2862 217.443 90.1469 212.279 90.1409 206.891V20.3197C90.1469 14.9324 92.2862 9.76758 96.0893 5.95822C99.8925 2.14886 105.049 0.00608543 110.427 0H257.982L289.317 25.0172V206.891C289.311 212.279 287.171 217.443 283.368 221.253C279.565 225.062 274.409 227.205 269.03 227.211Z" fill="#D8DCD6"/>
<path d="M110.427 5.84961C106.597 5.85393 102.925 7.37984 100.217 10.0926C97.5087 12.8053 95.9853 16.4833 95.981 20.3197V206.891C95.9853 210.728 97.5087 214.406 100.217 217.118C102.925 219.831 106.597 221.357 110.427 221.361H269.03C272.861 221.357 276.533 219.831 279.241 217.118C281.949 214.406 283.472 210.728 283.477 206.891V27.8352L255.939 5.84961H110.427Z" fill="#F6F7F8"/>
<path d="M238.182 60.0996H165.972C165.529 60.0996 165.089 60.012 164.679 59.842C164.27 59.6719 163.897 59.4227 163.583 59.1085C163.27 58.7943 163.021 58.4213 162.851 58.0107C162.681 57.6002 162.594 57.1602 162.594 56.7158C162.594 56.2714 162.681 55.8314 162.851 55.4209C163.021 55.0104 163.27 54.6373 163.583 54.3231C163.897 54.0089 164.27 53.7597 164.679 53.5896C165.089 53.4196 165.529 53.332 165.972 53.332H238.182C238.626 53.332 239.065 53.4196 239.475 53.5896C239.885 53.7597 240.257 54.0089 240.571 54.3231C240.884 54.6373 241.133 55.0104 241.303 55.4209C241.473 55.8314 241.56 56.2714 241.56 56.7158C241.56 57.1602 241.473 57.6002 241.303 58.0107C241.133 58.4213 240.884 58.7943 240.571 59.1085C240.257 59.4227 239.885 59.6719 239.475 59.842C239.065 60.012 238.626 60.0996 238.182 60.0996Z" fill="#D8DCD6"/>
<path d="M252.117 71.52H165.972C165.076 71.52 164.217 71.1635 163.583 70.5289C162.95 69.8943 162.594 69.0336 162.594 68.1362C162.594 67.2388 162.95 66.3781 163.583 65.7435C164.217 65.1089 165.076 64.7524 165.972 64.7524H252.117C253.013 64.7524 253.872 65.1089 254.506 65.7435C255.139 66.3781 255.495 67.2388 255.495 68.1362C255.495 69.0336 255.139 69.8943 254.506 70.5289C253.872 71.1635 253.013 71.52 252.117 71.52Z" fill="#D8DCD6"/>
<path d="M238.182 111.279H165.972C165.076 111.279 164.217 110.923 163.583 110.288C162.95 109.654 162.594 108.793 162.594 107.895C162.594 106.998 162.95 106.137 163.583 105.503C164.217 104.868 165.076 104.512 165.972 104.512H238.182C239.078 104.512 239.937 104.868 240.571 105.503C241.204 106.137 241.56 106.998 241.56 107.895C241.56 108.793 241.204 109.654 240.571 110.288C239.937 110.923 239.078 111.279 238.182 111.279Z" fill="#D8DCD6"/>
<path d="M252.117 122.699H165.972C165.076 122.699 164.217 122.343 163.583 121.708C162.95 121.074 162.594 120.213 162.594 119.316C162.594 118.418 162.95 117.558 163.583 116.923C164.217 116.288 165.076 115.932 165.972 115.932H252.117C253.013 115.932 253.872 116.288 254.506 116.923C255.139 117.558 255.495 118.418 255.495 119.316C255.495 120.213 255.139 121.074 254.506 121.708C253.872 122.343 253.013 122.699 252.117 122.699Z" fill="#D8DCD6"/>
<path d="M238.182 162.459H165.972C165.076 162.459 164.217 162.102 163.583 161.468C162.95 160.833 162.594 159.972 162.594 159.075C162.594 158.178 162.95 157.317 163.583 156.682C164.217 156.048 165.076 155.691 165.972 155.691H238.182C239.078 155.691 239.937 156.048 240.571 156.682C241.204 157.317 241.56 158.178 241.56 159.075C241.56 159.972 241.204 160.833 240.571 161.468C239.937 162.102 239.078 162.459 238.182 162.459Z" fill="#D8DCD6"/>
<path d="M252.117 173.879H165.972C165.076 173.879 164.217 173.522 163.583 172.888C162.95 172.253 162.594 171.393 162.594 170.495C162.594 169.598 162.95 168.737 163.583 168.102C164.217 167.468 165.076 167.111 165.972 167.111H252.117C253.013 167.111 253.872 167.468 254.506 168.102C255.139 168.737 255.495 169.598 255.495 170.495C255.495 171.393 255.139 172.253 254.506 172.888C253.872 173.522 253.013 173.879 252.117 173.879Z" fill="#D8DCD6"/>
<path d="M135.902 74.3858C142.497 74.3858 147.843 69.0313 147.843 62.4261C147.843 55.8209 142.497 50.4663 135.902 50.4663C129.308 50.4663 123.962 55.8209 123.962 62.4261C123.962 69.0313 129.308 74.3858 135.902 74.3858Z" fill="#3B719F"/>
<path d="M134.719 66.9883C134.451 66.9888 134.189 66.9017 133.974 66.7403L133.961 66.7303L131.155 64.5802C130.893 64.3785 130.721 64.0809 130.678 63.7526C130.635 63.4244 130.723 63.0924 130.925 62.8296C131.126 62.5669 131.423 62.3949 131.75 62.3514C132.078 62.3079 132.41 62.3964 132.672 62.5977L134.49 63.9937L138.785 58.3812C138.884 58.2511 139.008 58.1419 139.15 58.0599C139.292 57.9778 139.448 57.9246 139.611 57.9031C139.773 57.8816 139.938 57.8924 140.096 57.9347C140.254 57.9771 140.402 58.0503 140.532 58.15L140.506 58.1874L140.533 58.1503C140.795 58.352 140.967 58.6497 141.01 58.9779C141.053 59.3062 140.965 59.6382 140.764 59.9011L135.712 66.4997C135.595 66.6518 135.445 66.7748 135.273 66.8593C135.101 66.9437 134.912 66.9874 134.72 66.9868L134.719 66.9883Z" fill="#F6F7F8"/>
<path d="M137.132 125.565C143.726 125.565 149.072 120.211 149.072 113.606C149.072 107 143.726 101.646 137.132 101.646C130.537 101.646 125.192 107 125.192 113.606C125.192 120.211 130.537 125.565 137.132 125.565Z" fill="#D8DCD6"/>
<path d="M135.902 176.745C142.497 176.745 147.843 171.39 147.843 164.785C147.843 158.18 142.497 152.825 135.902 152.825C129.308 152.825 123.962 158.18 123.962 164.785C123.962 171.39 129.308 176.745 135.902 176.745Z" fill="#D8DCD6"/>
<path d="M288.707 25.8222H264.161C262.369 25.8222 260.65 25.1092 259.383 23.84C258.116 22.5709 257.404 20.8495 257.404 19.0547V0.895635C257.404 0.816133 257.427 0.738234 257.469 0.670884C257.511 0.603533 257.571 0.549453 257.643 0.514842C257.714 0.480232 257.794 0.466493 257.873 0.475202C257.952 0.483912 258.027 0.514717 258.089 0.564084L288.969 25.0677C289.038 25.1222 289.088 25.1968 289.112 25.2811C289.137 25.3655 289.134 25.4553 289.106 25.5383C289.077 25.6212 289.023 25.6931 288.951 25.744C288.88 25.7949 288.794 25.8222 288.707 25.8222Z" fill="#D8DCD6"/>
<path d="M122.547 262.168L28.7097 281.98C25.9979 282.549 23.1714 282.018 20.8503 280.503C18.5291 278.987 16.9029 276.611 16.3284 273.896L0.225987 197.378C-0.342425 194.661 0.188051 191.83 1.70103 189.505C3.21401 187.18 5.58594 185.552 8.29644 184.976L102.134 165.164C104.846 164.595 107.672 165.126 109.994 166.642C112.315 168.157 113.941 170.533 114.515 173.248L130.618 249.767C131.186 252.483 130.656 255.314 129.143 257.639C127.63 259.964 125.258 261.593 122.547 262.168Z" fill="#F6F7F8"/>
<path d="M122.547 262.168L28.7097 281.98C25.9979 282.549 23.1714 282.018 20.8503 280.503C18.5291 278.987 16.9029 276.611 16.3284 273.896L0.225987 197.378C-0.342425 194.661 0.188051 191.83 1.70103 189.505C3.21401 187.18 5.58594 185.552 8.29644 184.976L102.134 165.164C104.846 164.595 107.672 165.126 109.994 166.642C112.315 168.157 113.941 170.533 114.515 173.248L130.618 249.767C131.186 252.483 130.656 255.314 129.143 257.639C127.63 259.964 125.258 261.593 122.547 262.168ZM8.55002 186.181C6.15841 186.689 4.06555 188.126 2.73056 190.178C1.39558 192.229 0.927504 194.727 1.42902 197.124L17.5314 273.642C18.0384 276.038 19.4733 278.134 21.5213 279.471C23.5694 280.809 26.0634 281.277 28.4561 280.775L122.294 260.963C124.685 260.456 126.778 259.018 128.113 256.967C129.448 254.915 129.916 252.417 129.415 250.021L113.312 173.502C112.805 171.107 111.371 169.01 109.322 167.673C107.274 166.336 104.78 165.867 102.388 166.369L8.55002 186.181Z" fill="#D8DCD6"/>
<path d="M96.3036 190.395L48.9449 200.394C48.5305 200.49 48.095 200.425 47.7265 200.212C47.358 199.999 47.0839 199.654 46.9597 199.246C46.903 199.034 46.89 198.812 46.9217 198.594C46.9533 198.377 47.029 198.168 47.1439 197.98C47.2589 197.793 47.4108 197.63 47.5904 197.504C47.7699 197.377 47.9734 197.288 48.1884 197.243L96.3965 187.065C98.2788 188.127 97.6845 190.103 96.3036 190.395Z" fill="#D8DCD6"/>
<path d="M98.0545 198.715L50.6959 208.714C50.2815 208.811 49.846 208.746 49.4775 208.533C49.109 208.32 48.8349 207.975 48.7107 207.567C48.6539 207.355 48.641 207.133 48.6726 206.915C48.7043 206.697 48.7799 206.488 48.8949 206.301C49.0099 206.113 49.1618 205.951 49.3413 205.824C49.5209 205.698 49.7244 205.609 49.9394 205.563L98.1475 195.385C100.03 196.448 99.4355 198.424 98.0545 198.715Z" fill="#D8DCD6"/>
<path d="M41.455 215.613L27.0017 218.665C26.5296 218.764 26.0376 218.671 25.6336 218.408C25.2296 218.144 24.9465 217.73 24.8466 217.258L21.2514 200.173C21.1524 199.701 21.2447 199.208 21.5081 198.803C21.7714 198.398 22.1844 198.115 22.6562 198.015L37.1095 194.963C37.5816 194.864 38.0735 194.957 38.4775 195.221C38.8815 195.484 39.1646 195.898 39.2646 196.37L42.8598 213.454C42.9588 213.927 42.8665 214.42 42.6031 214.825C42.3397 215.229 41.9269 215.513 41.455 215.613Z" fill="#D8DCD6"/>
<path d="M101.502 215.781L29.224 231.041C28.8096 231.137 28.3741 231.072 28.0056 230.859C27.6371 230.647 27.363 230.301 27.2388 229.894C27.182 229.681 27.1691 229.459 27.2007 229.242C27.2324 229.024 27.308 228.815 27.423 228.627C27.5379 228.44 27.6899 228.278 27.8694 228.151C28.049 228.024 28.2525 227.935 28.4674 227.89L101.595 212.451C103.478 213.513 102.883 215.49 101.502 215.781Z" fill="#D8DCD6"/>
<path d="M103.253 224.104L30.9755 239.364C30.561 239.46 30.1255 239.395 29.757 239.182C29.3885 238.97 29.1145 238.624 28.9903 238.217C28.9335 238.004 28.9205 237.782 28.9522 237.565C28.9839 237.347 29.0595 237.138 29.1744 236.95C29.2894 236.763 29.4413 236.601 29.6209 236.474C29.8005 236.347 30.0039 236.258 30.2189 236.213L103.347 220.774C105.229 221.836 104.634 223.812 103.253 224.104Z" fill="#D8DCD6"/>
<path d="M105.004 232.422L32.7259 247.682C32.3115 247.778 31.876 247.713 31.5075 247.5C31.139 247.287 30.8649 246.942 30.7408 246.534C30.684 246.322 30.671 246.1 30.7027 245.882C30.7343 245.664 30.81 245.455 30.9249 245.268C31.0399 245.08 31.1918 244.918 31.3714 244.792C31.5509 244.665 31.7544 244.576 31.9694 244.531L105.097 229.091C106.98 230.154 106.385 232.13 105.004 232.422Z" fill="#D8DCD6"/>
<path d="M106.755 240.744L34.4772 256.004C34.0627 256.1 33.6272 256.036 33.2587 255.823C32.8902 255.61 32.6162 255.264 32.492 254.857C32.4352 254.644 32.4222 254.422 32.4539 254.205C32.4856 253.987 32.5612 253.778 32.6762 253.59C32.7911 253.403 32.943 253.241 33.1226 253.114C33.3022 252.987 33.5056 252.899 33.7206 252.853L106.849 237.414C108.731 238.476 108.136 240.453 106.755 240.744Z" fill="#D8DCD6"/>
<path d="M108.506 249.063L36.2276 264.322C35.8132 264.419 35.3777 264.354 35.0092 264.141C34.6407 263.928 34.3667 263.583 34.2425 263.175C34.1857 262.963 34.1727 262.741 34.2044 262.523C34.2361 262.305 34.3117 262.096 34.4266 261.909C34.5416 261.721 34.6935 261.559 34.8731 261.432C35.0527 261.306 35.2561 261.217 35.4711 261.172L108.599 245.732C110.481 246.795 109.886 248.771 108.506 249.063Z" fill="#D8DCD6"/>
<path d="M121.264 210.968C121.1 211.266 120.96 211.577 120.844 211.898L91.2547 219.253L86.1072 213.919L77.0552 220.648L85.2516 230.977C85.9138 231.812 86.8284 232.409 87.858 232.678C88.8877 232.948 89.9768 232.876 90.962 232.473L123.069 219.331C124.125 220.109 125.392 220.547 126.701 220.586C128.011 220.626 129.302 220.265 130.402 219.551C131.502 218.838 132.359 217.806 132.859 216.593C133.359 215.38 133.479 214.043 133.202 212.76C132.925 211.477 132.265 210.309 131.309 209.411C130.353 208.513 129.147 207.928 127.851 207.733C126.555 207.539 125.231 207.744 124.054 208.322C122.878 208.9 121.904 209.823 121.264 210.968Z" fill="#A0616A"/>
<path d="M20.2645 276.417C21.187 276.132 22.0358 275.648 22.7511 274.998C23.4664 274.349 24.0308 273.55 24.4047 272.658C24.7785 271.767 24.9526 270.804 24.9147 269.838C24.8769 268.871 24.6279 267.925 24.1855 267.066L44.5483 210.375L30.407 207.865L14.8377 264.379C13.4454 265.219 12.4092 266.542 11.9254 268.096C11.4416 269.651 11.5439 271.329 12.2128 272.813C12.8817 274.297 14.0709 275.483 15.5548 276.148C17.0388 276.812 18.7145 276.908 20.2645 276.417Z" fill="#A0616A"/>
<path d="M41.962 220.439L27.9997 215.071C27.6024 214.918 27.2427 214.682 26.945 214.377C26.6473 214.073 26.4186 213.707 26.2745 213.306C26.1304 212.905 26.0743 212.478 26.1101 212.053C26.1458 211.629 26.2724 211.217 26.4814 210.845L33.8061 197.837C34.5978 195.806 36.1614 194.172 38.1539 193.294C40.1465 192.415 42.4054 192.364 44.4355 193.152C46.4657 193.939 48.1013 195.5 48.9839 197.494C49.8665 199.487 49.924 201.749 49.1438 203.785L45.9131 218.315C45.8204 218.731 45.6394 219.122 45.3822 219.462C45.1251 219.801 44.7979 220.082 44.4229 220.283C44.048 220.485 43.6341 220.603 43.2094 220.63C42.7847 220.656 42.3593 220.591 41.962 220.439Z" fill="#3B719F"/>
<path d="M73.4768 382.851L81.0135 382.851L84.5987 353.733L73.4756 353.734L73.4768 382.851Z" fill="#A0616A"/>
<path d="M71.5542 380.387L86.3964 380.386H86.397C87.6391 380.386 88.8691 380.631 90.0167 381.107C91.1643 381.583 92.207 382.281 93.0853 383.161C93.9636 384.041 94.6604 385.085 95.1357 386.234C95.611 387.384 95.8557 388.616 95.8557 389.86V390.168L71.5547 390.169L71.5542 380.387Z" fill="#171A21"/>
<path d="M31.0598 382.851L38.5965 382.851L42.1817 353.733L31.0586 353.734L31.0598 382.851Z" fill="#A0616A"/>
<path d="M29.1372 380.387L43.9794 380.386H43.98C45.2221 380.386 46.4521 380.631 47.5997 381.107C48.7473 381.583 49.79 382.281 50.6683 383.161C51.5466 384.041 52.2434 385.085 52.7187 386.234C53.194 387.384 53.4387 388.616 53.4387 389.86V390.168L29.1377 390.169L29.1372 380.387Z" fill="#171A21"/>
<path d="M38.9605 371.132H29.423C29.0487 371.132 28.6783 371.056 28.3342 370.908C27.9901 370.76 27.6794 370.544 27.4211 370.273C27.1628 370.002 26.9621 369.681 26.8313 369.329C26.7004 368.978 26.6421 368.604 26.6599 368.229L31.1901 270.737L31.4756 270.729L77.5314 269.526L86.5438 367.075C86.5784 367.44 86.5402 367.809 86.4312 368.16C86.3222 368.511 86.1447 368.836 85.909 369.118C85.6732 369.399 85.384 369.631 85.0581 369.799C84.7322 369.968 84.3761 370.069 84.0105 370.099L73.2979 370.957C72.6249 371.01 71.9556 370.816 71.4158 370.41C70.8761 370.003 70.5032 369.414 70.3674 368.751L56.6646 299.309C56.6272 299.098 56.5155 298.908 56.3498 298.772C56.1841 298.637 55.9754 298.565 55.7616 298.571H55.7578C55.5432 298.566 55.3341 298.639 55.1686 298.776C55.0031 298.913 54.8923 299.105 54.8564 299.317L41.6748 368.896C41.5499 369.525 41.2113 370.092 40.7165 370.5C40.2217 370.907 39.6012 371.131 38.9605 371.132Z" fill="#171A21"/>
<path d="M56.4314 183.785C64.7702 183.785 71.5301 177.014 71.5301 168.662C71.5301 160.31 64.7702 153.539 56.4314 153.539C48.0927 153.539 41.3328 160.31 41.3328 168.662C41.3328 177.014 48.0927 183.785 56.4314 183.785Z" fill="#A0616A"/>
<path d="M51.3687 282.162C44.1723 282.162 36.7807 280.267 30.6532 274.665C30.3271 274.369 30.0753 274 29.9184 273.588C29.7614 273.176 29.7036 272.733 29.7498 272.295C30.4057 266.392 33.5871 235.916 31.7954 215.557C31.4458 211.755 31.9833 207.923 33.3654 204.364C34.7476 200.805 36.9366 197.616 39.7598 195.05C42.5335 192.489 45.8633 190.61 49.4865 189.559C53.1097 188.508 56.9272 188.315 60.6377 188.995C60.8257 189.028 61.0138 189.064 61.202 189.1C73.29 191.443 81.6888 202.649 80.7384 215.165C79.3517 233.428 78.1085 258.132 80.0605 272.102C80.1414 272.674 80.0418 273.256 79.7756 273.768C79.5094 274.28 79.0899 274.696 78.576 274.957C74.1346 277.205 63.007 282.162 51.3687 282.162Z" fill="#3B719F"/>
<path d="M71.0705 221.527C70.7162 221.291 70.4169 220.981 70.1931 220.618C69.9693 220.256 69.8262 219.849 69.7737 219.426L67.9342 204.654C67.3502 202.554 67.6218 200.307 68.6892 198.406C69.7567 196.506 71.5329 195.107 73.6286 194.516C75.7242 193.925 77.9682 194.191 79.8686 195.255C81.769 196.319 83.1707 198.094 83.7663 200.191L89.8253 213.837C89.9982 214.227 90.0853 214.649 90.0806 215.075C90.0759 215.501 89.9796 215.921 89.7981 216.307C89.6167 216.692 89.3544 217.034 89.0292 217.309C88.704 217.584 88.3235 217.785 87.9135 217.9L73.5057 221.916C73.0958 222.03 72.666 222.055 72.2457 221.987C71.8254 221.92 71.4245 221.763 71.0705 221.527Z" fill="#3B719F"/>
<path d="M51.1605 183.572C49.7314 183.599 48.3112 183.341 46.982 182.815C46.3971 182.589 45.79 182.403 45.2062 182.178C40.0506 180.182 36.6544 174.683 36.5328 169.148C36.4111 163.613 39.2727 158.241 43.5219 154.701C47.771 151.161 53.2747 149.343 58.7858 148.923C64.7221 148.47 71.4066 149.978 74.7237 154.93C75.6067 156.248 76.2242 157.847 75.701 159.439C75.5443 159.919 75.2644 160.35 74.8894 160.687C73.408 162.008 71.9311 161.015 70.4209 160.927C68.3452 160.807 66.4809 162.49 65.8108 164.461C65.1408 166.433 65.4357 168.603 65.9768 170.614C66.3889 171.824 66.6488 173.081 66.7503 174.355C66.7939 174.994 66.6739 175.634 66.4017 176.213C66.1294 176.793 65.7138 177.293 65.1944 177.667C63.8974 178.452 62.194 177.998 60.8962 177.214C59.5984 176.43 58.4769 175.339 57.0751 174.763C55.6732 174.186 53.7898 174.314 52.9738 175.593C52.7145 176.058 52.539 176.566 52.4553 177.092C51.7239 180.43 51.892 180.234 51.1605 183.572Z" fill="#171A21"/>
<path d="M117.826 391H1.02539C0.862346 391 0.705984 390.935 0.590697 390.82C0.475411 390.704 0.410645 390.548 0.410645 390.384C0.410645 390.221 0.475411 390.064 0.590697 389.949C0.705984 389.833 0.862346 389.769 1.02539 389.769H117.826C117.989 389.769 118.145 389.833 118.261 389.949C118.376 390.064 118.441 390.221 118.441 390.384C118.441 390.548 118.376 390.704 118.261 390.82C118.145 390.935 117.989 391 117.826 391Z" fill="#D8DCD6"/>
<path d="M416.802 263.928L333.162 310.92C330.744 312.275 327.888 312.614 325.22 311.862C322.553 311.111 320.293 309.33 318.934 306.911L280.74 238.708C279.388 236.286 279.049 233.425 279.8 230.754C280.55 228.082 282.327 225.818 284.742 224.458L368.383 177.465C370.801 176.11 373.656 175.771 376.324 176.523C378.991 177.274 381.252 179.055 382.61 181.474L420.804 249.677C422.156 252.099 422.495 254.96 421.745 257.631C420.994 260.303 419.217 262.567 416.802 263.928Z" fill="#F6F7F8"/>
<path d="M416.802 263.928L333.162 310.92C330.744 312.275 327.888 312.614 325.22 311.862C322.553 311.111 320.293 309.33 318.934 306.911L280.74 238.708C279.388 236.286 279.049 233.425 279.8 230.754C280.55 228.082 282.327 225.818 284.742 224.458L368.383 177.465C370.801 176.11 373.656 175.771 376.324 176.523C378.991 177.274 381.252 179.055 382.61 181.474L420.804 249.677C422.156 252.099 422.495 254.96 421.745 257.631C420.994 260.303 419.217 262.567 416.802 263.928ZM285.344 225.532C283.213 226.732 281.645 228.73 280.983 231.087C280.321 233.445 280.619 235.969 281.813 238.106L320.007 306.309C321.205 308.443 323.2 310.014 325.553 310.677C327.907 311.34 330.427 311.041 332.56 309.846L416.2 262.854C418.331 261.653 419.9 259.655 420.562 257.298C421.224 254.941 420.925 252.417 419.731 250.28L381.537 182.076C380.339 179.942 378.344 178.371 375.991 177.708C373.638 177.045 371.118 177.344 368.984 178.539L285.344 225.532Z" fill="#D8DCD6"/>
<path d="M370.345 203.288L328.133 227.004C327.766 227.22 327.332 227.289 326.916 227.196C326.501 227.103 326.137 226.856 325.897 226.504C325.779 226.318 325.7 226.11 325.666 225.893C325.631 225.675 325.641 225.453 325.694 225.24C325.748 225.027 325.845 224.827 325.978 224.652C326.112 224.477 326.28 224.332 326.471 224.224L369.441 200.082C371.554 200.533 371.576 202.596 370.345 203.288Z" fill="#D8DCD6"/>
<path d="M374.498 210.704L332.286 234.421C331.92 234.637 331.485 234.705 331.069 234.612C330.654 234.519 330.29 234.272 330.05 233.92C329.932 233.734 329.853 233.526 329.819 233.309C329.784 233.092 329.794 232.87 329.848 232.657C329.901 232.443 329.998 232.243 330.131 232.068C330.265 231.894 330.433 231.748 330.624 231.64L373.594 207.499C375.707 207.949 375.729 210.013 374.498 210.704Z" fill="#D8DCD6"/>
<path d="M325.526 243.771L312.643 251.009C312.222 251.244 311.725 251.304 311.261 251.173C310.797 251.042 310.403 250.732 310.167 250.311L301.639 235.083C301.404 234.662 301.345 234.164 301.476 233.699C301.606 233.234 301.916 232.84 302.336 232.603L315.219 225.365C315.64 225.129 316.137 225.07 316.601 225.201C317.065 225.332 317.459 225.642 317.695 226.063L326.223 241.29C326.458 241.712 326.517 242.21 326.386 242.675C326.256 243.14 325.946 243.534 325.526 243.771Z" fill="#D8DCD6"/>
<path d="M382.879 225.959L318.456 262.154C318.089 262.37 317.654 262.439 317.239 262.346C316.824 262.253 316.459 262.005 316.219 261.654C316.102 261.468 316.023 261.26 315.988 261.043C315.954 260.825 315.963 260.603 316.017 260.39C316.071 260.177 316.168 259.976 316.301 259.802C316.435 259.627 316.602 259.481 316.794 259.374L381.975 222.752C384.088 223.203 384.11 225.267 382.879 225.959Z" fill="#D8DCD6"/>
<path d="M387.034 233.377L322.611 269.573C322.244 269.789 321.809 269.857 321.394 269.764C320.978 269.671 320.614 269.424 320.374 269.072C320.256 268.886 320.178 268.678 320.143 268.461C320.108 268.244 320.118 268.022 320.172 267.808C320.226 267.595 320.322 267.395 320.456 267.22C320.589 267.045 320.757 266.9 320.949 266.792L386.13 230.171C388.243 230.622 388.265 232.686 387.034 233.377Z" fill="#D8DCD6"/>
<path d="M391.185 240.791L326.762 276.987C326.395 277.202 325.96 277.271 325.545 277.178C325.13 277.085 324.766 276.838 324.525 276.486C324.408 276.3 324.329 276.092 324.295 275.875C324.26 275.658 324.27 275.436 324.323 275.222C324.377 275.009 324.474 274.809 324.607 274.634C324.741 274.459 324.909 274.314 325.1 274.206L390.281 237.585C392.395 238.035 392.416 240.099 391.185 240.791Z" fill="#D8DCD6"/>
<path d="M395.34 248.209L330.916 284.404C330.549 284.62 330.114 284.689 329.699 284.596C329.284 284.503 328.92 284.256 328.68 283.904C328.562 283.718 328.483 283.51 328.449 283.293C328.414 283.076 328.424 282.853 328.477 282.64C328.531 282.427 328.628 282.227 328.761 282.052C328.895 281.877 329.063 281.732 329.254 281.624L394.435 245.003C396.549 245.453 396.57 247.517 395.34 248.209Z" fill="#D8DCD6"/>
<path d="M399.492 255.623L335.068 291.819C334.702 292.035 334.267 292.103 333.851 292.01C333.436 291.917 333.072 291.67 332.832 291.318C332.714 291.132 332.635 290.924 332.601 290.707C332.566 290.49 332.576 290.268 332.63 290.054C332.683 289.841 332.78 289.641 332.913 289.466C333.047 289.292 333.215 289.146 333.406 289.038L398.587 252.417C400.701 252.868 400.723 254.932 399.492 255.623Z" fill="#D8DCD6"/>
<path d="M388.252 283.408C388.603 282.633 388.78 281.79 388.771 280.939C388.761 280.088 388.565 279.249 388.197 278.482C387.829 277.715 387.298 277.039 386.64 276.5C385.983 275.961 385.215 275.573 384.392 275.363L382.64 254.751L374.214 261.409L377.169 279.961C376.909 281.37 377.174 282.826 377.914 284.052C378.654 285.279 379.817 286.191 381.183 286.615C382.549 287.04 384.023 286.948 385.326 286.357C386.629 285.766 387.67 284.716 388.252 283.408Z" fill="#FFB8B8"/>
<path d="M382.799 273.204L375.801 274.04C375.446 274.083 375.085 274.051 374.743 273.947C374.4 273.844 374.082 273.67 373.809 273.438C373.536 273.206 373.314 272.92 373.157 272.598C373 272.276 372.911 271.924 372.895 271.566L371.875 247.92L358.61 211.624C358.079 210.498 357.836 209.256 357.905 208.013C357.974 206.769 358.352 205.562 359.004 204.501C359.33 203.989 359.702 203.508 360.116 203.065C360.932 202.184 361.949 201.515 363.08 201.112C364.21 200.71 365.421 200.588 366.609 200.756C367.833 200.919 369 201.372 370.014 202.078C371.028 202.783 371.859 203.721 372.439 204.813L381.089 222.969C384.707 230.564 386.415 238.929 386.065 247.336L385.089 270.727C385.064 271.339 384.824 271.923 384.411 272.375C383.998 272.827 383.44 273.119 382.833 273.2L382.799 273.204Z" fill="#3B719F"/>
<path d="M407.65 375.399L401.162 378.252L387.091 354.543L396.666 350.333L407.65 375.399Z" fill="#FFB8B8"/>
<path d="M412.066 380.971L391.146 390.169L391.03 389.904C390.561 388.833 390.306 387.68 390.282 386.51C390.258 385.341 390.463 384.178 390.887 383.088C391.312 381.998 391.946 381.003 392.754 380.159C393.562 379.314 394.529 378.638 395.598 378.168L408.376 372.55L412.066 380.971Z" fill="#171A21"/>
<path d="M320.548 383.289H313.463L310.092 355.915L320.55 355.915L320.548 383.289Z" fill="#FFB8B8"/>
<path d="M322.355 390.169L299.509 390.168V389.879C299.509 388.709 299.739 387.551 300.186 386.47C300.633 385.389 301.288 384.407 302.114 383.58C302.939 382.753 303.92 382.097 304.998 381.65C306.077 381.202 307.234 380.972 308.401 380.972L322.356 380.972L322.355 390.169Z" fill="#171A21"/>
<path d="M389.532 373.931L350.061 285.705C349.99 285.539 349.869 285.4 349.716 285.307C349.562 285.213 349.383 285.17 349.204 285.182C349.025 285.195 348.854 285.263 348.715 285.378C348.576 285.492 348.476 285.647 348.429 285.821L324.38 371.037C324.221 371.633 323.855 372.153 323.347 372.503C322.84 372.853 322.224 373.01 321.611 372.946L308.477 371.63C307.8 371.559 307.178 371.226 306.742 370.703C306.306 370.18 306.091 369.507 306.142 368.827C310.32 316.782 316.905 267.662 336.634 235.506L336.739 235.334L366.581 241.196L406.421 368.27C406.618 368.924 406.551 369.63 406.235 370.236C405.919 370.842 405.378 371.3 404.73 371.511L392.716 375.379C392.1 375.58 391.432 375.542 390.843 375.274C390.254 375.006 389.786 374.527 389.532 373.931Z" fill="#171A21"/>
<path d="M351.163 190.312C359.002 190.312 365.357 183.946 365.357 176.094C365.357 168.241 359.002 161.876 351.163 161.876C343.323 161.876 336.968 168.241 336.968 176.094C336.968 183.946 343.323 190.312 351.163 190.312Z" fill="#FFB8B8"/>
<path d="M334.8 237.967L334.619 237.93L334.576 237.75C332.664 229.662 332.618 220.835 334.441 211.516C335.365 206.753 337.938 202.469 341.706 199.42C345.474 196.37 350.196 194.75 355.039 194.845C360.295 194.952 365.311 197.066 369.061 200.755C372.811 204.444 375.012 209.43 375.214 214.691C375.822 230.72 369.283 244.616 369.216 244.755L369.119 244.958L334.8 237.967Z" fill="#3B719F"/>
<path d="M296.748 265.016C297.588 264.892 298.391 264.584 299.1 264.115C299.809 263.646 300.407 263.027 300.851 262.302C301.296 261.577 301.576 260.763 301.672 259.917C301.768 259.071 301.678 258.215 301.409 257.408L317.758 244.769L307.607 241.281L293.637 253.818C292.314 254.362 291.236 255.373 290.607 256.66C289.979 257.947 289.843 259.42 290.227 260.801C290.61 262.181 291.486 263.372 292.688 264.149C293.889 264.926 295.334 265.235 296.748 265.016Z" fill="#FFB8B8"/>
<path d="M305.678 255.484C305.145 255.8 304.518 255.914 303.909 255.806C303.3 255.699 302.75 255.376 302.357 254.898L297.866 249.458C297.638 249.182 297.469 248.862 297.37 248.517C297.271 248.172 297.245 247.811 297.292 247.455C297.339 247.1 297.459 246.758 297.644 246.451C297.83 246.144 298.076 245.879 298.368 245.671L317.661 232.006L340.938 201.178C341.596 200.121 342.506 199.244 343.587 198.629C344.669 198.013 345.886 197.677 347.13 197.653C347.736 197.649 348.341 197.702 348.937 197.811C350.118 198.021 351.231 198.514 352.181 199.248C353.131 199.983 353.889 200.936 354.392 202.027C354.918 203.146 355.169 204.374 355.126 205.61C355.083 206.846 354.746 208.054 354.144 209.133L336.908 237.092L336.87 237.153L305.678 255.484Z" fill="#3B719F"/>
<path d="M353.701 175.211C352.655 173.488 350.346 173.001 348.342 173.197C346.337 173.394 344.388 174.1 342.374 174.084C336.782 174.041 332.465 167.214 334.816 162.131C336.745 157.963 341.56 156.133 345.917 154.696C355.05 151.685 365.542 148.791 373.831 153.674C376.472 155.276 378.638 157.556 380.106 160.277C381.574 162.999 382.289 166.063 382.179 169.154C381.993 172.997 380.523 176.945 381.766 180.586C383.2 184.787 387.746 187.04 392.042 188.13C399.573 190.041 407.513 189.733 415.091 191.447C422.669 193.161 430.434 197.713 432.477 205.22C433.819 210.152 432.419 215.46 430.1 220.014C427.735 224.659 424.447 228.772 420.439 232.1C416.431 235.428 411.787 237.902 406.792 239.37C401.796 240.838 396.553 241.268 391.386 240.636C386.218 240.003 381.233 238.321 376.737 235.691C367.576 230.333 360.962 221.277 357.019 211.412C354.783 205.658 353.209 199.667 352.327 193.556C351.444 187.835 352.194 182.054 353.793 176.491C353.869 176.284 353.9 176.062 353.884 175.842C353.868 175.621 353.806 175.406 353.701 175.211Z" fill="#171A21"/>
<path d="M404.91 391H288.109C287.946 391 287.79 390.935 287.674 390.82C287.559 390.704 287.494 390.548 287.494 390.384C287.494 390.221 287.559 390.064 287.674 389.949C287.79 389.833 287.946 389.769 288.109 389.769H404.91C405.073 389.769 405.229 389.833 405.344 389.949C405.46 390.064 405.525 390.221 405.525 390.384C405.525 390.548 405.46 390.704 405.344 390.82C405.229 390.935 405.073 391 404.91 391Z" fill="#D8DCD6"/>
</g>
<defs>
<clipPath id="clip0_245_3539">
<rect width="574" height="330" fill="white" transform="translate(624 45)"/>
</clipPath>
<clipPath id="clip1_245_3539">
<rect width="433" height="391" fill="white"/>
</clipPath>
</defs>
</svg>
